<svg width="12" height="12" viewBox="0 0 12 12" fill="none" xmlns="http://www.w3.org/2000/svg">
<path d="M11.9977 5.99954C11.9977 6.86602 11.9977 7.7325 11.9977 8.59899C11.9918 9.2778 11.7804 9.93891 11.3915 10.4953C11.0026 11.0517 10.4544 11.4773 9.81894 11.7162C9.27841 11.918 8.70409 12.0138 8.12732 11.9984C6.62446 11.9984 5.1216 11.9984 3.61874 11.9984C2.89147 12.0151 2.17627 11.8107 1.56758 11.4124C0.832125 10.957 0.303281 10.2327 0.0934795 9.39356C0.0331944 9.13721 0.00183872 8.87491 0 8.61157C0 6.90377 0 5.19597 0 3.47918C0 2.59832 0.246283 1.80734 0.873674 1.16916C1.46636 0.529437 2.27136 0.126936 3.13875 0.0366223C3.67806 -0.0119151 4.21736 0.00246636 4.74588 0.000668675C5.8928 0.000668675 7.04152 0.000668675 8.19024 0.000668675C8.96864 0.000668675 9.71648 0.126506 10.3816 0.55795C11.1193 0.998504 11.6584 1.70694 11.8863 2.5354C11.9551 2.81792 11.9907 3.10751 11.9923 3.39829C12.0049 4.26477 11.9923 5.13126 11.9923 5.99774L11.9977 5.99954ZM0.898841 5.99954C0.898841 6.87501 0.898841 7.74868 0.898841 8.62415C0.898841 9.63984 1.43815 10.3284 2.30103 10.7993C2.72059 11.011 3.18688 11.113 3.65649 11.096C5.20429 11.096 6.7521 11.096 8.2999 11.096C8.83774 11.1052 9.36812 10.9692 9.83512 10.7023C10.6477 10.2313 11.0935 9.53738 11.0935 8.59359C11.1043 6.84085 11.1079 5.08811 11.0935 3.33357C11.0935 2.29631 10.5057 1.61139 9.6194 1.15658C9.22071 0.96743 8.78222 0.877389 8.34125 0.894117C6.80243 0.894117 5.26362 0.894117 3.723 0.894117C3.22985 0.881196 2.74103 0.989205 2.29924 1.20871C1.43815 1.65633 0.918616 2.35384 0.898841 3.35155C0.877269 4.23421 0.898841 5.11687 0.898841 5.99954Z" fill="white"/>
<path d="M6.00407 8.56294C5.45564 8.55479 4.92187 8.38464 4.46989 8.07391C4.01792 7.76317 3.66792 7.32573 3.46392 6.81659C3.25991 6.30745 3.21102 5.74935 3.32339 5.2125C3.43576 4.67564 3.70437 4.184 4.09543 3.79941C4.4865 3.41482 4.98255 3.15446 5.52121 3.05107C6.05987 2.94769 6.61707 3.00589 7.12273 3.21836C7.62839 3.43084 8.05994 3.78809 8.36308 4.2452C8.66622 4.7023 8.82743 5.23884 8.82643 5.78732C8.81789 6.52892 8.51632 7.23703 7.98753 7.75705C7.45875 8.27708 6.74571 8.56679 6.00407 8.56294ZM4.08594 5.78193C4.0788 6.16382 4.18552 6.53918 4.39249 6.8602C4.59946 7.18121 4.89732 7.43334 5.24811 7.58446C5.5989 7.73557 5.98673 7.77883 6.3622 7.70872C6.73766 7.63861 7.08375 7.45831 7.35637 7.19079C7.62899 6.92327 7.81579 6.58064 7.89297 6.20656C7.97015 5.83249 7.93421 5.44391 7.78974 5.09033C7.64527 4.73675 7.39881 4.43419 7.08176 4.2212C6.7647 4.00821 6.39142 3.89443 6.00946 3.89436C5.50492 3.89241 5.01997 4.08952 4.65985 4.44291C4.29973 4.79629 4.09351 5.27744 4.08594 5.78193Z" fill="white"/>
<path d="M9.74523 2.76707C9.74099 2.88319 9.70264 2.99548 9.63497 3.08993C9.5673 3.18439 9.47331 3.25682 9.36473 3.29818C9.25615 3.33955 9.13779 3.34801 9.02443 3.32252C8.91106 3.29703 8.80772 3.23871 8.7273 3.15484C8.64688 3.07098 8.59294 2.96529 8.57222 2.85096C8.5515 2.73663 8.56492 2.61873 8.6108 2.51197C8.65667 2.40522 8.73298 2.31435 8.83018 2.25069C8.92739 2.18704 9.04119 2.15343 9.15738 2.15406C9.31571 2.16012 9.46551 2.22742 9.57517 2.34179C9.68484 2.45615 9.74581 2.60863 9.74523 2.76707Z" fill="white"/>
</svg>
