<svg width="678" height="584" viewBox="0 0 678 584" fill="none" xmlns="http://www.w3.org/2000/svg">
<g clip-path="url(#clip0)">
<path d="M454.729 144.546H472.398V216.323H491.481V144.546H509.574V128.233H454.729V144.546Z" fill="#FAF7F4"/>
<path d="M318.749 472.647V384.558H259.805V472.647H279.029V401.012H299.525V472.647H318.749Z" fill="#FAF7F4"/>
<path d="M174.711 584V529.104H192.804V512.649H137.818V529.104H155.487V584H174.711Z" fill="#FAF7F4"/>
<path d="M455.012 256.324H436.778V344.414H455.012V256.324Z" fill="#FAF7F4"/>
<path d="M410.345 387.962C406.387 390.657 400.167 396.899 398.754 410.375L415.433 412.36C415.575 408.814 416.847 404.559 419.25 402.147C420.522 400.871 423.066 399.026 427.59 399.026C431.265 399.026 433.668 400.161 435.364 401.722C437.626 403.991 437.908 406.686 437.908 409.098C437.908 411.793 437.484 414.346 435.647 416.616C433.102 419.453 429.569 419.737 426.6 419.737H418.826V434.915H427.59C429.569 434.915 433.809 435.057 436.353 437.752C438.191 439.738 439.18 442.858 439.18 446.83C439.18 450.235 438.332 452.93 436.919 454.774C434.375 457.895 430.417 458.178 427.731 458.178C424.339 458.178 419.391 457.611 416.988 452.221C415.999 449.809 415.433 446.121 415.433 443.851L397.764 445.412C398.047 454.065 400.309 462.576 407.094 468.25C413.313 473.356 420.663 474.066 428.155 474.066C435.364 474.066 444.128 473.64 451.195 467.115C457.98 460.873 458.828 452.504 458.828 447.256C458.828 441.865 457.98 437.043 454.022 432.787C450.63 429.099 447.096 427.68 444.269 426.971V426.687C449.64 425.269 452.892 421.864 454.446 419.169C456.284 415.907 457.273 411.084 457.273 407.538C457.273 399.452 453.74 392.785 448.934 388.955C443.138 384.132 435.364 383.281 429.286 383.281C424.056 383.139 416.423 383.707 410.345 387.962Z" fill="#FAF7F4"/>
<path d="M392.534 512.649C383.064 512.649 376.844 515.77 373.31 518.465C368.929 521.869 363.84 528.678 363.84 539.601C363.84 546.835 365.819 552.651 369.353 556.906C371.897 560.169 374.724 561.729 377.551 562.864L368.504 583.858H388.435L394.937 565.985H403.701V583.858H422.925V512.649H392.534ZM395.22 551.8C392.534 551.8 388.718 550.807 386.598 548.679C385.043 547.119 383.488 544.282 383.488 539.175C383.488 533.643 385.325 530.948 386.739 529.671C388.294 528.253 390.697 527.118 394.796 527.118H403.56V551.8H395.22Z" fill="#FAF7F4"/>
<path d="M418.402 293.773C411.617 288.808 402.005 288.525 395.927 288.525H387.729V256.466H369.494V344.556H397.34C403.984 344.556 411.476 344.556 418.119 339.875C427.59 333.208 428.155 322.853 428.155 317.179C428.155 311.788 427.59 300.582 418.402 293.773ZM404.832 327.108C402.57 328.527 398.754 329.236 395.786 329.236H387.87V303.561H395.786C398.754 303.561 402.429 303.703 405.256 305.83C408.79 308.667 409.214 313.207 409.214 316.611C409.214 320.299 409.073 324.413 404.832 327.108Z" fill="#FAF7F4"/>
<path d="M9.75317 512.649V584H28.9771V564.566H50.0385V584H69.2624V512.649H50.0385V548.112H28.9771V512.649H9.75317Z" fill="#FAF7F4"/>
<path d="M500.527 584H519.751V563.432H546.325V548.254H519.751V527.827H553.958V512.649H500.527V584Z" fill="#FAF7F4"/>
<path d="M515.935 256.324H460.949V272.779H478.618V344.556H497.842V272.779H515.935V256.324Z" fill="#FAF7F4"/>
<path d="M352.39 560.736C351.118 559.318 348.15 556.197 343.061 554.779C347.867 553.36 350.412 550.381 351.401 549.247C355.218 544.424 355.642 538.75 355.642 535.345C355.642 525.132 350.836 519.316 347.16 516.763C344.899 515.202 339.952 512.649 329.067 512.649H296.274V583.858H315.498V562.439H324.968C327.795 562.439 331.47 562.58 334.156 564.425C335.852 565.559 338.114 568.396 338.114 574.212C338.114 577.333 337.407 581.447 335.146 583.574C335.004 583.716 335.004 583.716 334.863 583.716H356.631C357.338 581.163 357.762 578.61 357.762 576.34C357.903 570.808 355.924 564.708 352.39 560.736ZM332.318 545.842C328.926 548.254 324.827 548.112 321.858 548.112H315.639V526.976H323.272C325.816 526.976 329.35 526.834 332.46 529.104C335.428 531.373 335.852 534.21 335.852 537.331C335.852 540.026 335.57 543.431 332.318 545.842Z" fill="#FAF7F4"/>
<path d="M325.675 185.399C324.544 189.655 322.282 195.754 320.586 200.435H313.801V234.905H331.046V216.464H371.049V234.905H388.294V200.435H379.671V128.233H330.764V136.886C330.764 141.993 330.905 152.064 329.633 164.263C328.926 171.072 327.654 178.732 325.675 185.399ZM344.192 178.59C346.171 166.958 346.595 155.043 346.736 150.646L346.878 144.12H360.589V200.435H337.972C341.365 191.924 342.92 185.541 344.192 178.59Z" fill="#FAF7F4"/>
<path d="M238.885 234.763V200.293H230.262V128.233H181.355V136.886C181.355 141.993 181.496 152.064 180.224 164.263C179.517 171.214 178.245 178.874 176.266 185.399C175.135 189.655 172.873 195.754 171.177 200.435H164.392V234.905H181.637V216.464H221.64V234.905H238.885V234.763ZM211.039 200.435H188.422C191.815 191.924 193.369 185.683 194.642 178.59C196.621 166.958 197.045 155.043 197.186 150.646L197.327 144.12H211.039V200.435Z" fill="#FAF7F4"/>
<path d="M270.689 568.68C270.265 574.07 269.134 578.468 266.731 581.73C266.166 582.581 265.6 583.291 264.894 583.858H285.248C286.945 579.603 288.075 574.922 288.641 569.815L270.689 568.68Z" fill="#FAF7F4"/>
<path d="M449.499 580.312C448.51 577.9 447.944 574.212 447.944 571.943L430.275 573.503C430.417 577.049 430.841 580.596 431.83 584H452.326C451.196 583.149 450.206 581.872 449.499 580.312Z" fill="#FAF7F4"/>
<path d="M486.675 560.736C483.282 557.048 479.749 555.63 476.922 554.921V554.637C482.293 553.218 485.544 549.814 487.099 547.119C488.936 543.856 489.926 539.033 489.926 535.487C489.926 527.401 486.392 520.734 481.586 516.904C475.791 512.082 468.016 511.23 461.938 511.23C456.708 511.23 449.075 511.94 442.997 516.053C439.039 518.749 432.82 524.99 431.406 538.466L448.086 540.452C448.227 536.905 449.499 532.65 451.902 530.238C453.174 528.962 455.719 527.118 460.242 527.118C463.917 527.118 466.32 528.253 468.016 529.813C470.278 532.083 470.561 534.778 470.561 537.189C470.561 539.884 470.137 542.438 468.299 544.707C465.755 547.544 462.221 547.828 459.253 547.828H451.478V563.006H460.242C462.221 563.006 466.461 563.148 469.006 565.843C470.843 567.829 471.833 570.95 471.833 574.922C471.833 578.326 470.985 581.021 469.571 582.865C469.147 583.291 468.864 583.716 468.44 584H490.491C491.339 580.737 491.481 577.759 491.481 575.347C491.481 569.815 490.633 565.134 486.675 560.736Z" fill="#FAF7F4"/>
<path d="M249.345 581.447C247.507 578.751 245.387 572.794 245.387 557.899C245.387 549.672 246.094 536.338 250.476 530.948C252.172 528.962 254.858 527.26 258.109 527.26C261.501 527.26 264.187 528.82 266.166 530.806C269.841 534.92 270.406 541.445 270.689 546.835L288.217 545.417C287.934 533.501 284.259 524.139 278.039 518.465C271.254 512.082 263.056 511.23 258.25 511.23C253.444 511.23 244.539 511.94 237.189 518.749C227.859 527.543 224.75 543.572 224.75 556.906C224.75 566.269 226.305 575.914 229.838 583.858H251.607C250.758 583.291 250.052 582.44 249.345 581.447Z" fill="#FAF7F4"/>
<path d="M360.165 474.066C380.661 474.066 392.11 458.888 392.11 428.531C392.11 420.73 391.404 402.005 381.509 391.65C377.127 387.111 370.483 382.997 360.165 382.997C354.228 382.997 345.888 384.274 338.821 391.65C329.35 401.438 328.219 416.332 328.219 428.531C328.219 440.731 329.35 455.625 338.821 465.413C345.888 472.789 354.228 474.066 360.165 474.066ZM351.966 403.849C354.087 400.303 357.055 399.026 360.165 399.026C362.285 399.026 366.102 399.736 368.505 403.849C369.494 405.552 371.756 410.375 371.756 428.531C371.756 446.405 369.777 451.369 368.505 453.355C367.091 455.625 364.405 458.178 360.165 458.178C357.762 458.178 354.369 457.469 351.966 453.355C350.27 450.66 348.574 444.986 348.574 428.531C348.715 412.219 350.27 406.686 351.966 403.849Z" fill="#FAF7F4"/>
<path d="M480.314 384.558V393.211C480.314 398.317 480.455 408.389 479.183 420.588C478.476 427.538 477.204 435.198 475.225 441.724C474.095 445.979 471.833 452.079 470.137 456.76H463.352V491.229H480.597V472.789H520.599V491.229H537.844V456.76H529.222V384.558H480.314ZM509.998 456.76H487.382C490.774 448.249 492.329 442.007 493.601 434.915C495.58 423.283 496.004 411.367 496.145 406.97L496.287 400.445H509.998V456.76Z" fill="#FAF7F4"/>
<path d="M135.132 201.145H100.925V178.874H127.499V163.696H100.925V143.269H135.132V128.233H81.7014V216.323H135.132V201.145Z" fill="#FAF7F4"/>
<path d="M155.487 88.0894H174.711V16.4547H192.804V0H137.818V16.4547H155.487V88.0894Z" fill="#FAF7F4"/>
<path d="M135.132 73.0532H100.925V50.7826H127.499V35.6046H100.925V15.178H135.132V0H81.7014V88.0894H135.132V73.0532Z" fill="#FAF7F4"/>
<path d="M298.394 344.556H317.618V272.779H338.114V344.556H357.338V256.324H298.394V344.556Z" fill="#FAF7F4"/>
<path d="M355.359 73.0532H321.152V50.7826H347.726V35.6046H321.152V15.178H355.359V0H301.928V88.0894H355.359V73.0532Z" fill="#FAF7F4"/>
<path d="M237.754 88.0894H277.757V106.53H295.002V72.2021H286.379V0H237.471V8.6529C237.471 13.7595 237.613 23.8309 236.34 36.0301C235.634 42.9808 234.362 50.6408 232.383 57.1659C231.252 61.4214 228.99 67.521 227.294 72.2021H220.509V106.672H237.754V88.0894ZM250.758 50.3571C252.737 38.7253 253.161 26.8098 253.303 22.4124L253.444 15.8873H267.155V72.2021H244.539C247.931 63.691 249.486 57.4496 250.758 50.3571Z" fill="#FAF7F4"/>
<path d="M382.074 51.9174H403.277V88.0894H422.501V0H403.277V35.4627H382.074V0H362.992V88.0894H382.074V51.9174Z" fill="#FAF7F4"/>
<path d="M28.9771 308.242H50.0385V344.556H69.2624V256.324H50.0385V291.787H28.9771V256.324H9.75317V344.556H28.9771V308.242Z" fill="#FAF7F4"/>
<path d="M22.899 455.483C20.6374 457.469 18.0931 457.469 15.6901 457.469C13.0044 457.469 10.7428 457.185 8.33977 456.76V472.647C11.4495 473.498 14.4179 474.066 17.9517 474.066C23.6058 474.066 30.2493 473.214 35.0553 468.533C37.5996 466.122 40.8507 461.441 45.374 447.965L66.8595 384.558H49.3318L36.7515 426.829H36.1861L21.4855 384.558H0L26.5742 449.1C26.1501 451.795 24.5952 454.206 22.899 455.483Z" fill="#FAF7F4"/>
<path d="M135.132 329.378H100.925V307.107H127.499V291.929H100.925V271.503H135.132V256.324H81.7014V344.556H135.132V329.378Z" fill="#FAF7F4"/>
<path d="M28.9771 180.151H50.0385V216.323H69.2624V128.233H50.0385V163.696H28.9771V128.233H9.75317V216.323H28.9771V180.151Z" fill="#FAF7F4"/>
<path d="M75.4819 404.417C75.9059 408.389 75.7646 409.098 76.4713 414.63C76.8954 417.183 77.1781 420.304 79.8638 423.141C81.56 424.985 83.963 426.262 86.2246 426.829V427.255C83.3976 427.68 78.1676 429.099 75.3405 434.347C73.3616 437.894 73.2202 442.149 72.7962 445.979C72.0894 452.221 72.0894 453.923 71.2413 455.341C70.3932 457.044 69.121 457.327 67.5662 456.902V472.789C69.6864 473.498 71.2413 473.498 73.6443 473.498C78.4503 473.498 85.2352 472.789 88.2035 466.689C88.9103 464.987 90.1825 461.866 91.1719 447.823C91.4546 444.135 91.7373 440.021 93.4336 437.894C95.5538 435.34 99.5117 435.198 101.491 435.198H105.448V472.789H124.107V435.198H128.065C130.044 435.198 134.002 435.34 136.122 437.894C137.959 439.88 138.101 443.993 138.383 447.823C139.373 461.866 140.504 464.987 141.352 466.689C144.462 472.789 151.247 473.498 155.911 473.498C158.173 473.498 159.728 473.498 161.989 472.789V456.76C160.434 457.185 159.162 456.902 158.314 455.199C157.607 453.781 157.466 452.079 156.759 445.837C156.335 442.149 156.052 437.894 154.215 434.206C151.388 428.957 146.158 427.539 143.331 427.113V426.687C145.592 425.978 148.137 424.702 149.692 422.999C152.377 420.162 152.801 417.042 153.084 414.488C153.791 408.956 153.791 408.389 154.074 404.275C154.78 398.743 157.325 398.743 158.314 398.743H159.304V384.416C157.325 383.707 155.911 383.707 153.225 383.707C150.398 383.707 146.158 383.707 142.765 385.976C141.069 387.111 138.949 389.239 137.959 393.069C137.394 394.771 137.253 397.041 136.546 404.133C135.98 410.233 135.839 412.786 135.415 415.056C134.991 416.9 133.578 420.446 127.923 420.446H123.966V384.416H105.59V420.446H101.632C95.9779 420.446 94.5644 416.9 94.1403 415.056C93.5749 412.786 93.4336 410.233 93.0095 404.133C92.3028 397.041 92.1614 394.771 91.596 393.069C90.6065 389.239 88.3449 387.111 86.79 385.976C83.3976 383.707 79.157 383.707 76.33 383.707C73.7856 383.707 72.3721 383.848 70.2519 384.416V398.743H71.2413C72.2308 398.885 74.7751 398.885 75.4819 404.417Z" fill="#FAF7F4"/>
<path d="M28.9771 51.9174H50.0385V88.0894H69.2624V0H50.0385V35.4627H28.9771V0H9.75317V88.0894H28.9771V51.9174Z" fill="#FAF7F4"/>
<path d="M155.487 344.556H174.711V272.779H192.804V256.324H137.818V272.779H155.487V344.556Z" fill="#FAF7F4"/>
<path d="M386.315 128.233L412.889 192.775C412.324 195.612 410.91 197.882 409.214 199.159C406.952 201.145 404.408 201.145 402.005 201.145C399.319 201.145 397.058 200.861 394.655 200.435V216.323C397.764 217.174 400.733 217.741 404.267 217.741C409.921 217.741 416.564 216.89 421.37 212.209C423.915 209.797 427.166 205.116 431.689 191.641L453.174 128.233H435.364L422.784 170.505H422.218L407.518 128.233H386.315Z" fill="#FAF7F4"/>
<path d="M169.34 472.647H222.912V457.469H188.563V435.198H215.279V420.162H188.563V399.736H222.912V384.558H169.34V472.647Z" fill="#FAF7F4"/>
<path d="M645.696 474.066C666.192 474.066 677.641 458.888 677.641 428.531C677.641 420.73 676.935 402.005 667.04 391.65C662.658 387.111 656.015 382.997 645.696 382.997C639.759 382.997 631.419 384.274 624.352 391.65C614.881 401.438 613.75 416.332 613.75 428.531C613.75 440.731 614.881 455.625 624.352 465.413C631.278 472.789 639.759 474.066 645.696 474.066ZM637.497 403.849C639.618 400.303 642.586 399.026 645.696 399.026C647.816 399.026 651.633 399.736 654.036 403.849C655.025 405.552 657.287 410.375 657.287 428.531C657.287 446.405 655.308 451.369 654.036 453.355C652.622 455.625 649.936 458.178 645.696 458.178C643.293 458.178 639.9 457.469 637.497 453.355C635.801 450.66 634.105 444.986 634.105 428.531C634.105 412.219 635.801 406.686 637.497 403.849Z" fill="#FAF7F4"/>
<path d="M604.138 512.649V518.89L582.511 560.878C581.663 562.722 580.674 564.85 579.684 568.822C580.108 566.411 580.25 564.141 580.25 557.899V512.507H561.591V583.716H585.338L601.877 551.516C602.583 550.381 603.149 548.537 604.704 543.573C604.28 546.126 604.138 548.395 604.138 555.062V583.858H622.797V512.649H604.138Z" fill="#FAF7F4"/>
<path d="M267.155 128.233L240.864 216.323H258.674L262.915 198.024H287.651L292.033 216.323H311.681L286.52 128.233H267.155ZM266.731 182.846L275.212 146.957L284.118 182.846H266.731Z" fill="#FAF7F4"/>
<path d="M224.891 300.44C224.891 312.639 226.022 327.534 235.493 337.321C242.56 344.698 251.041 345.974 256.837 345.974C277.333 345.974 288.782 330.796 288.782 300.44C288.782 292.638 288.075 273.914 278.181 263.559C273.799 259.02 267.155 254.906 256.837 254.906C250.9 254.906 242.56 256.183 235.493 263.559C226.022 273.347 224.891 288.241 224.891 300.44ZM248.78 275.758C250.9 272.212 253.868 270.935 256.978 270.935C259.098 270.935 262.915 271.644 265.318 275.758C266.307 277.46 268.569 282.283 268.569 300.44C268.569 318.313 266.59 323.278 265.318 325.264C263.904 327.534 261.219 330.087 256.978 330.087C254.575 330.087 251.183 329.378 248.78 325.264C247.083 322.569 245.387 316.895 245.387 300.44C245.387 284.127 247.083 278.595 248.78 275.758Z" fill="#FAF7F4"/>
<path d="M81.7014 584H100.925V563.432H127.499V548.254H100.925V527.827H135.132V512.649H81.7014V584Z" fill="#FAF7F4"/>
<path d="M488.371 73.0532H454.023V50.7826H480.738V35.6046H454.023V15.178H488.371V0H434.799V88.0894H488.371V73.0532Z" fill="#FAF7F4"/>
<path d="M597.636 494.208C596.929 495.06 595.374 496.194 592.123 496.194C588.872 496.194 587.317 495.06 586.611 494.208C585.621 493.074 584.914 490.804 585.056 488.818H571.203C571.203 494.918 574.03 499.457 576.857 501.868C580.533 505.273 586.328 506.691 592.123 506.691C597.919 506.691 603.714 505.273 607.389 501.868C610.216 499.457 613.043 494.776 613.043 488.818H599.191C599.332 490.662 598.626 493.074 597.636 494.208Z" fill="#FAF7F4"/>
<path d="M515.087 16.4547H546.326V0H495.863V88.0894H515.087V16.4547Z" fill="#FAF7F4"/>
<path d="M563.994 384.558H544.771V472.647H563.994V436.475H585.056V472.647H604.28V384.558H585.056V420.02H563.994V384.558Z" fill="#FAF7F4"/>
<path d="M506.888 344.556H524.699L528.939 326.257H553.676L558.058 344.556H577.706L552.545 256.466H533.038L506.888 344.556ZM550.001 311.079H532.756L541.237 275.191L550.001 311.079Z" fill="#FAF7F4"/>
</g>
<defs>
<clipPath id="clip0">
<rect width="677.641" height="584" fill="white"/>
</clipPath>
</defs>
</svg>
