<svg width="85" height="85" viewBox="0 0 85 85" fill="none" xmlns="http://www.w3.org/2000/svg">
<path d="M42.5003 49.5834C38.5884 49.5834 35.417 52.7548 35.417 56.6667C35.4216 60.5767 38.5903 63.7454 42.5003 63.75C46.4123 63.75 49.5837 60.5787 49.5837 56.6667C49.5837 52.7548 46.4123 49.5834 42.5003 49.5834ZM42.5003 60.9167C40.1531 60.9167 38.2503 59.0139 38.2503 56.6667C38.2503 54.3195 40.1531 52.4167 42.5003 52.4167C44.8476 52.4167 46.7503 54.3195 46.7503 56.6667C46.7503 59.0139 44.8476 60.9167 42.5003 60.9167Z" fill="url(#paint0_linear)"/>
<path d="M48.1667 65.1666H36.8333C32.9233 65.1712 29.7546 68.34 29.75 72.25V83.5833C29.75 84.3657 30.3843 85 31.1667 85H53.8333C54.6157 85 55.25 84.3657 55.25 83.5833V72.25C55.2454 68.34 52.0767 65.1712 48.1667 65.1666ZM52.4167 82.1666H49.5833V76.5C49.5833 75.7176 48.949 75.0833 48.1667 75.0833C47.3843 75.0833 46.75 75.7176 46.75 76.5V82.1666H38.25V76.5C38.25 75.7176 37.6157 75.0833 36.8333 75.0833C36.051 75.0833 35.4167 75.7176 35.4167 76.5V82.1666H32.5833V72.25C32.5833 69.9027 34.4861 68 36.8333 68H48.1667C50.5139 68 52.4167 69.9027 52.4167 72.25V82.1666Z" fill="url(#paint1_linear)"/>
<path d="M14.1663 49.5834C10.2544 49.5834 7.08301 52.7548 7.08301 56.6667C7.08761 60.5767 10.2563 63.7454 14.1663 63.75C18.0783 63.75 21.2497 60.5787 21.2497 56.6667C21.2497 52.7548 18.0783 49.5834 14.1663 49.5834ZM14.1663 60.9167C11.8191 60.9167 9.91634 59.0139 9.91634 56.6667C9.91634 54.3195 11.8191 52.4167 14.1663 52.4167C16.5136 52.4167 18.4163 54.3195 18.4163 56.6667C18.4163 59.0139 16.5136 60.9167 14.1663 60.9167Z" fill="url(#paint2_linear)"/>
<path d="M70.8333 49.5834C66.9214 49.5834 63.75 52.7548 63.75 56.6667C63.7546 60.5767 66.9233 63.7454 70.8333 63.75C74.7453 63.75 77.9167 60.5787 77.9167 56.6667C77.9167 52.7548 74.7453 49.5834 70.8333 49.5834ZM70.8333 60.9167C68.4861 60.9167 66.5833 59.0139 66.5833 56.6667C66.5833 54.3195 68.4861 52.4167 70.8333 52.4167C73.1806 52.4167 75.0833 54.3195 75.0833 56.6667C75.0833 59.0139 73.1806 60.9167 70.8333 60.9167Z" fill="url(#paint3_linear)"/>
<path d="M19.8337 65.1666H8.50033C4.59033 65.1712 1.4216 68.34 1.41699 72.25V83.5833C1.41699 84.3657 2.0513 85 2.83366 85H25.5003C26.2827 85 26.917 84.3657 26.917 83.5833V72.25C26.9124 68.34 23.7437 65.1712 19.8337 65.1666ZM24.0837 82.1666H21.2503V76.5C21.2503 75.7176 20.616 75.0833 19.8337 75.0833C19.0513 75.0833 18.417 75.7176 18.417 76.5V82.1666H9.91699V76.5C9.91699 75.7176 9.28268 75.0833 8.50033 75.0833C7.71797 75.0833 7.08366 75.7176 7.08366 76.5V82.1666H4.25033V72.25C4.25033 69.9027 6.15309 68 8.50033 68H19.8337C22.1809 68 24.0837 69.9027 24.0837 72.25V82.1666Z" fill="url(#paint4_linear)"/>
<path d="M76.4997 65.1666H65.1663C61.2563 65.1712 58.0876 68.34 58.083 72.25V83.5833C58.083 84.3657 58.7173 85 59.4997 85H82.1663C82.9487 85 83.583 84.3657 83.583 83.5833V72.25C83.5784 68.34 80.4097 65.1712 76.4997 65.1666ZM80.7497 82.1666H77.9163V76.5C77.9163 75.7176 77.282 75.0833 76.4997 75.0833C75.7173 75.0833 75.083 75.7176 75.083 76.5V82.1666H66.583V76.5C66.583 75.7176 65.9487 75.0833 65.1663 75.0833C64.384 75.0833 63.7497 75.7176 63.7497 76.5V82.1666H60.9163V72.25C60.9163 69.9027 62.8191 68 65.1663 68H76.4997C78.8469 68 80.7497 69.9027 80.7497 72.25V82.1666Z" fill="url(#paint5_linear)"/>
<path d="M80.75 0H4.25C1.90276 0 0 1.90276 0 4.25C0 6.59724 1.90276 8.5 4.25 8.5V45.3333C4.25 46.1157 4.88431 46.75 5.66667 46.75H79.3333C80.1157 46.75 80.75 46.1157 80.75 45.3333V8.5C83.0972 8.5 85 6.59724 85 4.25C85 1.90276 83.0972 0 80.75 0ZM77.9167 43.9167H7.08333V8.5H77.9167V43.9167ZM80.75 5.66667H4.25C3.46765 5.66667 2.83333 5.03235 2.83333 4.25C2.83333 3.46765 3.46765 2.83333 4.25 2.83333H80.75C81.5323 2.83333 82.1667 3.46765 82.1667 4.25C82.1667 5.03235 81.5323 5.66667 80.75 5.66667Z" fill="url(#paint6_linear)"/>
<path d="M63.3002 14.5818C62.7513 14.0517 61.8809 14.0517 61.3318 14.5818L42.5 33.4136L32.8766 23.7902C32.3234 23.2371 31.4267 23.2371 30.8735 23.7902L18.8318 35.8318C18.2786 36.3852 18.2788 37.2822 18.8321 37.8354C19.0978 38.1008 19.458 38.2501 19.8334 38.2501C20.2091 38.2501 20.5693 38.1006 20.835 37.835L31.875 26.7949L41.4985 36.4183C42.0517 36.9714 42.9484 36.9714 43.5016 36.4183L63.335 16.585C63.8786 16.0222 63.863 15.1255 63.3002 14.5818Z" fill="url(#paint7_linear)"/>
<defs>
<linearGradient id="paint0_linear" x1="42.5003" y1="49.5834" x2="42.5003" y2="63.75" gradientUnits="userSpaceOnUse">
<stop stop-color="#BA8D61"/>
<stop offset="1" stop-color="#D1B396"/>
</linearGradient>
<linearGradient id="paint1_linear" x1="42.5" y1="65.1666" x2="42.5" y2="85" gradientUnits="userSpaceOnUse">
<stop stop-color="#BA8D61"/>
<stop offset="1" stop-color="#D1B396"/>
</linearGradient>
<linearGradient id="paint2_linear" x1="14.1663" y1="49.5834" x2="14.1663" y2="63.75" gradientUnits="userSpaceOnUse">
<stop stop-color="#BA8D61"/>
<stop offset="1" stop-color="#D1B396"/>
</linearGradient>
<linearGradient id="paint3_linear" x1="70.8333" y1="49.5834" x2="70.8333" y2="63.75" gradientUnits="userSpaceOnUse">
<stop stop-color="#BA8D61"/>
<stop offset="1" stop-color="#D1B396"/>
</linearGradient>
<linearGradient id="paint4_linear" x1="14.167" y1="65.1666" x2="14.167" y2="85" gradientUnits="userSpaceOnUse">
<stop stop-color="#BA8D61"/>
<stop offset="1" stop-color="#D1B396"/>
</linearGradient>
<linearGradient id="paint5_linear" x1="70.833" y1="65.1666" x2="70.833" y2="85" gradientUnits="userSpaceOnUse">
<stop stop-color="#BA8D61"/>
<stop offset="1" stop-color="#D1B396"/>
</linearGradient>
<linearGradient id="paint6_linear" x1="42.5" y1="0" x2="42.5" y2="46.75" gradientUnits="userSpaceOnUse">
<stop stop-color="#BA8D61"/>
<stop offset="1" stop-color="#D1B396"/>
</linearGradient>
<linearGradient id="paint7_linear" x1="41.0749" y1="14.1842" x2="41.0749" y2="38.2501" gradientUnits="userSpaceOnUse">
<stop stop-color="#BA8D61"/>
<stop offset="1" stop-color="#D1B396"/>
</linearGradient>
</defs>
</svg>
