<svg width="102" height="90" viewBox="0 0 102 90" fill="none" xmlns="http://www.w3.org/2000/svg">
<path d="M51.2124 37.762C50.9996 37.716 50.7813 37.7077 50.5658 37.7399C48.4059 37.4885 46.7765 35.6611 46.7729 33.4874C46.7729 32.4457 45.9282 31.6011 44.8865 31.6011C43.8448 31.6011 43.0002 32.4457 43.0002 33.4874C43.0057 37.1173 45.4336 40.2968 48.9337 41.2575V43.1438C48.9337 44.1855 49.7783 45.0301 50.82 45.0301C51.8617 45.0301 52.7063 44.1855 52.7063 43.1438V41.3717C56.7461 40.5261 59.4918 36.7636 59.0672 32.6584C58.6416 28.5533 55.1831 25.4336 51.0558 25.4327C48.6905 25.4327 46.7729 23.5151 46.7729 21.1498C46.7729 18.7845 48.6905 16.8668 51.0558 16.8668C53.4211 16.8668 55.3387 18.7845 55.3387 21.1498C55.3387 22.1915 56.1833 23.0361 57.225 23.0361C58.2668 23.0361 59.1114 22.1915 59.1114 21.1498C59.1059 17.3384 56.4357 14.0512 52.7063 13.2646V11.5477C52.7063 10.506 51.8617 9.66138 50.82 9.66138C49.7783 9.66138 48.9337 10.506 48.9337 11.5477V13.3797C45.0413 14.4426 42.536 18.2217 43.072 22.221C43.6081 26.2202 47.0206 29.2054 51.0558 29.2045C53.3898 29.2045 55.2936 31.0733 55.336 33.4063C55.3792 35.7394 53.5445 37.6773 51.2124 37.762Z" fill="url(#paint0_linear)"/>
<path d="M24 27.4635C24 42.5708 36.2464 54.8172 51.3537 54.8172C66.4609 54.8172 78.7073 42.5708 78.7073 27.4635C78.7073 12.3563 66.4609 0.109863 51.3537 0.109863C36.2538 0.126442 24.0175 12.3637 24 27.4635ZM51.3537 3.88253C64.3774 3.88253 74.9346 14.4397 74.9346 27.4635C74.9346 40.4873 64.3774 51.0445 51.3537 51.0445C38.3299 51.0445 27.7727 40.4873 27.7727 27.4635C27.7874 14.4462 38.3363 3.89727 51.3537 3.88253Z" fill="#BA8D61"/>
<path d="M88.4898 59.4676L73.7132 66.4492C71.673 62.6544 67.7595 60.2394 63.4526 60.1178L49.8117 59.743C47.6518 59.6813 45.5324 59.1341 43.612 58.1422L42.224 57.4228C35.1171 53.7183 26.6461 53.7275 19.5465 57.4468L19.6331 54.3023C19.6617 53.2605 18.841 52.3929 17.7993 52.3643L2.84127 51.9526C1.79955 51.9241 0.932836 52.7447 0.904283 53.7865L0.00072302 86.6112C-0.0278297 87.653 0.792835 88.5206 1.83455 88.5491L16.7926 88.9609H16.8442C17.8665 88.9609 18.7029 88.1476 18.7305 87.1261L18.7738 85.5557L22.6597 83.475C24.185 82.6544 25.9682 82.4591 27.6344 82.9307L50.8396 89.4435C50.8801 89.4555 50.9206 89.4647 50.9621 89.4739C52.6393 89.8248 54.3488 90.0007 56.062 89.9998C59.691 90.0017 63.2776 89.2197 66.5759 87.7055C66.6569 87.6686 66.7352 87.6253 66.8098 87.5765L100.455 65.8137C101.293 65.2712 101.564 64.1705 101.073 63.301C98.5754 58.8689 93.0352 57.1806 88.4898 59.4676ZM3.82405 84.8299L4.62353 55.776L15.8098 56.0836L15.0103 85.1385L3.82405 84.8299ZM64.8765 84.3362C60.7787 86.1857 56.202 86.696 51.7975 85.7961L28.6549 79.2998C26.0502 78.5639 23.2621 78.8688 20.8793 80.15L18.8935 81.2138L19.425 61.8964C25.7177 57.7111 33.788 57.281 40.4896 60.7727L41.8777 61.4921C44.3037 62.7447 46.9794 63.4355 49.7085 63.5147L63.3503 63.8896C67.1819 64.0001 70.4361 66.7283 71.2134 70.4825L50.8939 69.9216C49.8522 69.8931 48.9855 70.7146 48.956 71.7554C48.9275 72.7972 49.749 73.6648 50.7898 73.6933L73.214 74.3105H73.2665C74.2879 74.3095 75.1233 73.4962 75.151 72.4757C75.174 71.656 75.1132 70.8353 74.9686 70.0284L90.1246 62.8672C90.1394 62.8608 90.1541 62.8534 90.1689 62.846C92.3186 61.7582 94.9178 62.1221 96.6863 63.7588L64.8765 84.3362Z" fill="#BA8D61"/>
<defs>
<linearGradient id="paint0_linear" x1="51.0557" y1="9.66138" x2="51.0557" y2="45.0301" gradientUnits="userSpaceOnUse">
<stop stop-color="#BA8D61"/>
<stop offset="1" stop-color="#D1B396"/>
</linearGradient>
</defs>
</svg>
