<svg width="96" height="96" viewBox="0 0 96 96" fill="none" xmlns="http://www.w3.org/2000/svg">
<path d="M78.9478 77.7831C78.1712 77.7831 77.5415 78.4127 77.5415 79.1893V92.4107C77.5415 92.8388 77.1932 93.1871 76.7651 93.1871H69.2057V65.4939C69.2057 64.7173 68.5761 64.0877 67.7994 64.0877C67.0228 64.0877 66.3932 64.7173 66.3932 65.4939V93.1873H51.171L55.5853 88.3311C56.0676 87.8004 56.295 87.0446 56.1936 86.3085C56.1917 86.2943 56.1894 86.28 56.187 86.2658L51.9827 61.4282L53.1154 59.7231C53.7416 60.1678 54.2241 60.5961 55.1287 60.5961C56.049 60.5961 56.9094 60.081 57.3328 59.2331V59.2329L61.7672 50.3454L71.8689 54.2576C72.2344 54.4144 77.5412 56.8042 77.5412 63.1147V72.6266C77.541 73.4031 78.1706 74.0329 78.9474 74.0329C79.7241 74.0329 80.3537 73.4033 80.3537 72.6266V63.1147C80.3537 54.8003 73.2345 51.7779 72.9315 51.6533C72.9227 51.6495 72.9137 51.6459 72.9047 51.6426L56.0919 45.1314V41.1883C58.7623 39.1116 60.6139 36.033 61.0787 32.5208C62.4101 32.427 63.6456 31.9297 64.6545 31.0622C65.9721 29.9291 66.7281 28.2801 66.7281 26.5386C66.7281 25.0933 66.2066 23.7133 65.2774 22.638V17.4287C65.2772 7.81856 57.4588 0 47.8487 0C38.2385 0 30.4202 7.81856 30.4202 17.4287V22.7745C29.481 23.8389 28.9702 25.1492 28.9702 26.5384C28.9702 28.2804 29.7259 29.9293 31.0438 31.0626C32.052 31.9298 33.2867 32.4264 34.6177 32.5204C35.0863 36.0984 36.9919 39.2918 39.8897 41.3964V45.1314L23.0951 51.6424C23.0863 51.6457 23.0775 51.6493 23.0687 51.6529C22.7655 51.7776 15.6465 54.7999 15.6465 63.1144V92.4103C15.6465 94.3894 17.2565 95.9994 19.2356 95.9994H32.6338C33.4104 95.9994 34.0401 95.3698 34.0401 94.5932C34.0401 93.8166 33.4104 93.1869 32.6338 93.1869H29.6081V65.4939C29.6081 64.7173 28.9785 64.0877 28.2019 64.0877C27.4252 64.0877 26.7956 64.7173 26.7956 65.4939V93.1873H19.2358C18.8077 93.1873 18.4594 92.8389 18.4594 92.4109V63.1146C18.4594 56.7829 23.8018 54.3984 24.1299 54.2582L34.2238 50.3451L38.6585 59.2329C39.0829 60.0829 39.9444 60.5961 40.8628 60.5961C41.763 60.5961 42.2407 60.1744 42.8762 59.7231L44.0089 61.4282L39.8049 86.2659C39.8025 86.28 39.8004 86.2941 39.7984 86.3083C39.6967 87.0441 39.9242 87.8003 40.4066 88.3313L44.8209 93.1875H39.1969C38.4202 93.1875 37.7906 93.8171 37.7906 94.5938C37.7906 95.3704 38.4202 96 39.1969 96H76.7653C78.7444 96 80.3544 94.3897 80.3544 92.4109V79.1895C80.3541 78.4127 79.7244 77.7831 78.9478 77.7831ZM59.133 49.3254L54.9988 57.6111C54.896 57.5381 52.7051 55.9815 50.0269 54.0797C51.189 52.6451 49.8294 54.3232 55.1334 47.7765L59.133 49.3254ZM50.8207 58.0937L49.7486 59.7075H46.2418L45.1697 58.0937L47.9953 56.0869L50.8207 58.0937ZM42.702 45.5852V42.9534C44.4105 43.6421 46.2364 43.9614 48.0195 43.9614C49.8632 43.9614 51.6712 43.5684 53.2792 42.8653V45.5966L47.9953 52.1188L42.702 45.5852ZM63.9154 26.5386C63.9152 27.4598 63.5162 28.3314 62.8205 28.9298C62.3606 29.3254 61.8051 29.5783 61.1966 29.6773V23.4004C62.8129 23.6629 63.9154 25.0035 63.9154 26.5386ZM34.5015 29.6773C32.8669 29.412 31.7827 28.0605 31.7827 26.5384C31.7827 25.035 33.029 23.8114 34.5015 23.4711V29.6773ZM34.577 20.6055C34.1291 20.6569 33.6157 20.7782 33.233 20.9083V17.4287C33.233 9.36938 39.7895 2.81269 47.8489 2.81269C55.9082 2.81269 62.4647 9.36938 62.4647 17.4287V20.8118C62.0559 20.6874 61.632 20.6053 61.1968 20.5667C61.1968 19.2098 61.2086 19.4715 56.7696 14.6991C55.9532 13.8219 54.6028 13.6382 53.5751 14.3096C48.6757 17.5101 42.6992 19.1179 37.1848 18.7219C35.9752 18.6313 34.8735 19.428 34.577 20.6055ZM37.3142 30.7845V22.011V21.5488C43.3845 21.9043 49.7488 20.1009 54.8902 16.8083C56.9261 18.9941 58.0286 20.1407 58.3841 20.5768C58.3841 21.6801 58.3841 29.5215 58.3841 30.7843C58.3841 36.4931 53.7292 41.1486 48.0197 41.1486C41.6083 41.1488 37.3142 36.1751 37.3142 30.7845ZM40.992 57.6111L36.8578 49.3254L40.8502 47.7791L45.9579 54.0838C43.3605 55.9282 41.2277 57.4436 40.992 57.6111ZM42.6054 86.5691L46.6759 62.5198H49.3142L53.3846 86.5691L47.9951 92.4984L42.6054 86.5691Z" fill="url(#paint0_linear)"/>
<defs>
<linearGradient id="paint0_linear" x1="48.0005" y1="0" x2="48.0005" y2="96" gradientUnits="userSpaceOnUse">
<stop stop-color="#BA8D61"/>
<stop offset="1" stop-color="#D1B396"/>
</linearGradient>
</defs>
</svg>
