<svg width="117" height="106" viewBox="0 0 117 106" fill="none" xmlns="http://www.w3.org/2000/svg">
<path fill-rule="evenodd" clip-rule="evenodd" d="M65.9881 9.0374C66.0071 9.0915 65.9341 9.16693 65.8258 9.20501C65.7175 9.24309 65.6445 9.31851 65.6635 9.37262C65.6825 9.42672 65.6285 9.49546 65.5434 9.52537C65.3445 9.59534 65.1908 9.91558 65.2607 10.1144C65.2906 10.1994 65.2707 10.2845 65.2166 10.3036C65.1625 10.3226 65.1493 10.4267 65.1873 10.5349C65.2254 10.6431 65.2122 10.7472 65.1581 10.7663C65.0949 10.7885 65.3941 11.7519 65.9937 13.4569C66.9047 16.0474 66.923 16.1147 66.7309 16.1822C66.6226 16.2203 66.5496 16.2957 66.5686 16.3498C66.5877 16.4039 66.5146 16.4794 66.4064 16.5174C66.2981 16.5555 66.2251 16.6309 66.2441 16.6851C66.2631 16.7392 66.1458 16.8302 65.9834 16.8873C65.8209 16.9444 65.7036 17.0354 65.7226 17.0895C65.7417 17.1436 65.6243 17.2346 65.4619 17.2917C65.2995 17.3489 65.1822 17.4399 65.2012 17.494C65.2202 17.5481 65.1472 17.6235 65.0389 17.6616C64.9306 17.6997 64.8576 17.7751 64.8766 17.8292C64.8957 17.8833 64.7783 17.9743 64.6159 18.0314C64.4535 18.0885 64.3362 18.1795 64.3552 18.2336C64.3742 18.2877 64.3012 18.3632 64.1929 18.4012C64.0846 18.4393 64.0116 18.5147 64.0307 18.5689C64.0497 18.623 63.9324 18.714 63.7699 18.7711C63.6075 18.8282 63.4902 18.9192 63.5092 18.9733C63.5282 19.0274 63.4109 19.1184 63.2485 19.1755C63.0861 19.2327 62.9687 19.3237 62.9878 19.3778C63.0068 19.4319 62.9338 19.5073 62.8255 19.5454C62.7172 19.5835 62.6442 19.6589 62.6632 19.713C62.6822 19.7671 62.5649 19.8581 62.4025 19.9152C62.2401 19.9723 62.1227 20.0633 62.1418 20.1174C62.1608 20.1715 62.0435 20.2625 61.8811 20.3197C61.7186 20.3768 61.6013 20.4678 61.6203 20.5219C61.6394 20.576 61.5663 20.6514 61.4581 20.6895C61.3498 20.7276 61.2767 20.803 61.2958 20.8571C61.3148 20.9112 61.1975 21.0022 61.0351 21.0593C60.8726 21.1165 60.7553 21.2075 60.7743 21.2616C60.7934 21.3157 60.7203 21.3911 60.6121 21.4292C60.5038 21.4672 60.4307 21.5427 60.4498 21.5968C60.4688 21.6509 60.3515 21.7419 60.1891 21.799C60.0266 21.8561 59.9093 21.9471 59.9283 22.0012C59.9474 22.0553 59.83 22.1463 59.6676 22.2035C59.5052 22.2606 59.3879 22.3516 59.4069 22.4057C59.4259 22.4598 59.3529 22.5352 59.2446 22.5733C59.1363 22.6114 59.0633 22.6868 59.0823 22.7409C59.1014 22.795 58.984 22.886 58.8216 22.9431C58.6592 23.0003 58.5419 23.0913 58.5609 23.1454C58.5799 23.1995 58.5069 23.2749 58.3986 23.313C58.2903 23.351 58.2173 23.4265 58.2363 23.4806C58.2554 23.5347 58.138 23.6257 57.9756 23.6828C57.8132 23.7399 57.6959 23.8309 57.7149 23.885C57.7339 23.9391 57.6166 24.0301 57.4542 24.0873C57.2918 24.1444 57.1744 24.2354 57.1935 24.2895C57.2125 24.3436 57.1395 24.419 57.0312 24.4571C56.9229 24.4952 56.8499 24.5706 56.8689 24.6247C56.8879 24.6788 56.7706 24.7698 56.6082 24.8269C56.4458 24.8841 56.3284 24.9751 56.3475 25.0292C56.3665 25.0833 56.2935 25.1587 56.1852 25.1968C56.0769 25.2348 56.0039 25.3103 56.0229 25.3644C56.0419 25.4185 55.9246 25.5095 55.7622 25.5666C55.5998 25.6237 55.4824 25.7147 55.5015 25.7688C55.5205 25.8229 55.4032 25.9139 55.2407 25.9711C55.0783 26.0282 54.961 26.1192 54.98 26.1733C54.9991 26.2274 54.926 26.3028 54.8177 26.3409C54.7095 26.379 54.6364 26.4544 54.6555 26.5085C54.6745 26.5626 54.5572 26.6536 54.3947 26.7107C54.2323 26.7678 54.115 26.8589 54.134 26.913C54.1531 26.9671 54.0357 27.0581 53.8733 27.1152C53.7109 27.1723 53.5936 27.2633 53.6126 27.3174C53.6316 27.3715 53.5586 27.4469 53.4503 27.485C53.342 27.5231 53.269 27.5985 53.288 27.6526C53.3071 27.7067 53.1897 27.7977 53.0273 27.8549C52.8649 27.912 52.7476 28.003 52.7666 28.0571C52.7856 28.1112 52.7126 28.1866 52.6043 28.2247C52.496 28.2628 52.423 28.3382 52.442 28.3923C52.4611 28.4464 52.3437 28.5374 52.1813 28.5945C52.0189 28.6516 51.9016 28.7426 51.9206 28.7968C51.9396 28.8509 51.8223 28.9419 51.6599 28.999C51.4974 29.0561 51.3801 29.1471 51.3992 29.2012C51.4182 29.2553 51.3452 29.3307 51.2369 29.3688C51.1286 29.4069 51.0556 29.4823 51.0746 29.5364C51.0936 29.5905 50.9763 29.6815 50.8139 29.7387C50.6515 29.7958 50.5341 29.8868 50.5532 29.9409C50.5722 29.995 50.4992 30.0704 50.3909 30.1085C50.2826 30.1466 50.2096 30.222 50.2286 30.2761C50.2476 30.3302 50.1303 30.4212 49.9679 30.4783C49.8055 30.5354 49.6881 30.6264 49.7072 30.6806C49.7262 30.7347 49.6089 30.8257 49.4464 30.8828C49.284 30.9399 49.1667 31.0309 49.1857 31.085C49.2047 31.1391 49.1317 31.2145 49.0234 31.2526C48.9152 31.2907 48.8421 31.3661 48.8612 31.4202C48.8802 31.4743 48.7629 31.5653 48.6004 31.6225C48.438 31.6796 48.3207 31.7706 48.3397 31.8247C48.3587 31.8788 48.2857 31.9542 48.1774 31.9923C48.0692 32.0304 47.9961 32.1058 48.0152 32.1599C48.0342 32.214 47.9169 32.305 47.7544 32.3621C47.592 32.4192 47.4747 32.5102 47.4937 32.5644C47.5127 32.6185 47.3954 32.7095 47.233 32.7666C47.0706 32.8237 46.9533 32.9147 46.9723 32.9688C46.9913 33.0229 46.9183 33.0983 46.81 33.1364C46.7017 33.1745 46.6287 33.2499 46.6477 33.304C46.6667 33.3581 46.5494 33.4491 46.387 33.5062C46.2246 33.5634 46.1073 33.6544 46.1263 33.7085C46.1453 33.7626 46.028 33.8536 45.8656 33.9107C45.7031 33.9678 45.5858 34.0588 45.6048 34.1129C45.6239 34.167 45.5508 34.2425 45.4426 34.2805C45.3343 34.3186 45.2613 34.394 45.2803 34.4481C45.2993 34.5023 45.182 34.5933 45.0196 34.6504C44.8571 34.7075 44.7398 34.7985 44.7588 34.8526C44.7779 34.9067 44.7048 34.9821 44.5966 35.0202C44.4883 35.0583 44.4153 35.1337 44.4343 35.1878C44.4533 35.2419 44.336 35.3329 44.1736 35.39C44.0111 35.4472 43.8938 35.5382 43.9128 35.5923C43.9319 35.6464 43.8145 35.7374 43.6521 35.7945C43.4897 35.8516 43.3724 35.9426 43.3914 35.9967C43.4104 36.0508 43.3374 36.1263 43.2291 36.1643C43.1208 36.2024 43.0478 36.2778 43.0668 36.3319C43.0859 36.3861 42.9686 36.4771 42.8061 36.5342C42.6437 36.5913 42.5264 36.6823 42.5454 36.7364C42.5644 36.7905 42.4914 36.8659 42.3831 36.904C42.2748 36.9421 42.2018 37.0175 42.2208 37.0716C42.2399 37.1257 42.1226 37.2167 41.9601 37.2738C41.7977 37.331 41.6804 37.422 41.6994 37.4761C41.7184 37.5302 41.6011 37.6212 41.4387 37.6783C41.2763 37.7354 41.1589 37.8264 41.178 37.8805C41.197 37.9346 41.124 38.0101 41.0157 38.0481C40.9074 38.0862 40.8344 38.1616 40.8534 38.2157C40.8724 38.2699 40.7551 38.3609 40.5927 38.418C40.4303 38.4751 40.3129 38.5661 40.332 38.6202C40.351 38.6743 40.2337 38.7653 40.0713 38.8224C39.9088 38.8795 39.7915 38.9705 39.8105 39.0247C39.8296 39.0788 39.7565 39.1542 39.6483 39.1923C39.54 39.2303 39.4669 39.3058 39.486 39.3599C39.505 39.414 39.3877 39.505 39.2253 39.5621C39.0628 39.6192 38.9455 39.7102 38.9645 39.7643C38.9873 39.8292 36.1444 40.8666 30.6319 42.8053C25.1194 44.7439 22.2765 45.7814 22.2993 45.8462C22.3183 45.9003 22.1124 46.0224 21.8417 46.1176C21.571 46.2128 21.365 46.335 21.3841 46.3891C21.4031 46.4432 21.2858 46.5342 21.1234 46.5913C20.9609 46.6485 20.8436 46.7395 20.8626 46.7936C20.8817 46.8477 20.8086 46.9231 20.7004 46.9612C20.5921 46.9993 20.519 47.0747 20.5381 47.1288C20.5571 47.1829 20.4841 47.2583 20.3758 47.2964C20.2675 47.3345 20.1945 47.4099 20.2135 47.464C20.2325 47.5181 20.1693 47.5901 20.073 47.624C19.9766 47.6579 19.8651 47.7965 19.8251 47.9322C19.7851 48.0679 19.6946 48.1992 19.6239 48.2241C19.4566 48.2829 18.9105 49.4205 18.9693 49.5876C18.9941 49.6582 18.9483 49.811 18.8675 49.9271C18.7866 50.0432 18.7482 50.2169 18.782 50.3132C18.8159 50.4094 18.7993 50.5037 18.7451 50.5228C18.691 50.5418 18.6778 50.6459 18.7159 50.7541C18.7539 50.8624 18.7408 50.9665 18.6866 50.9855C18.6325 51.0046 18.6193 51.1087 18.6574 51.2169C18.6954 51.3251 18.6823 51.4292 18.6281 51.4482C18.574 51.4673 18.5764 51.6157 18.6335 51.778C18.6906 51.9403 18.693 52.0887 18.6388 52.1077C18.5847 52.1267 18.6182 52.3637 18.7134 52.6342C18.8085 52.9047 18.8421 53.1416 18.7879 53.1607C18.7338 53.1797 18.7362 53.3281 18.7933 53.4904L18.897 53.7855L16.4361 54.651C14.8611 55.2049 13.9876 55.5518 14.0097 55.6148C14.0288 55.6689 13.8671 55.7755 13.6506 55.8516C13.434 55.9278 13.2724 56.0344 13.2914 56.0885C13.3105 56.1426 13.1931 56.2336 13.0307 56.2907C12.8683 56.3478 12.751 56.4388 12.77 56.4929C12.789 56.5471 12.716 56.6225 12.6077 56.6606C12.4994 56.6986 12.4264 56.7741 12.4454 56.8282C12.4645 56.8823 12.4012 56.9543 12.3049 56.9881C12.2085 57.022 12.097 57.1607 12.057 57.2964C12.017 57.432 11.9268 57.5633 11.8566 57.5879C11.6901 57.6465 10.8876 59.3182 10.9461 59.4845C10.9708 59.5547 10.9249 59.7071 10.844 59.8232C10.7632 59.9393 10.7247 60.113 10.7586 60.2093C10.7924 60.3055 10.7758 60.3999 10.7217 60.4189C10.6675 60.438 10.6544 60.5421 10.6924 60.6503C10.7305 60.7585 10.7173 60.8626 10.6632 60.8816C10.609 60.9007 10.6114 61.0491 10.6685 61.2114C10.7256 61.3737 10.728 61.5221 10.6739 61.5411C10.6197 61.5601 10.6377 61.7528 10.7138 61.9692C10.7899 62.1856 10.8079 62.3783 10.7538 62.3973C10.6898 62.4198 11.1396 63.8091 12.0391 66.3668C12.9386 68.9245 13.4574 70.2896 13.5214 70.2671C13.5755 70.2481 13.6976 70.4538 13.7928 70.7243C13.8879 70.9949 14.0101 71.2006 14.0642 71.1816C14.1183 71.1625 14.1938 71.2355 14.2318 71.3437C14.2699 71.4519 14.3453 71.5249 14.3995 71.5058C14.4536 71.4868 14.5412 71.5943 14.594 71.7446C14.6505 71.9051 14.7921 72.0479 14.9369 72.0906C15.0726 72.1305 15.2051 72.2242 15.2314 72.2988C15.2576 72.3732 15.4556 72.5116 15.6713 72.6061C15.887 72.7006 16.0814 72.8285 16.1032 72.8905C16.1545 73.0365 16.7623 73.3278 16.9084 73.2764C16.9704 73.2546 17.1919 73.3259 17.4007 73.4349C17.6095 73.5439 17.8512 73.6081 17.9377 73.5777C18.0244 73.5472 18.1107 73.5666 18.1297 73.6207C18.1488 73.6748 18.2529 73.6879 18.3612 73.6498C18.4695 73.6117 18.5736 73.6248 18.5927 73.6789C18.6117 73.7331 18.7602 73.7306 18.9226 73.6735C19.085 73.6163 19.2335 73.6139 19.2525 73.668C19.2715 73.7221 19.42 73.7196 19.5824 73.6625C19.7448 73.6054 19.8933 73.6029 19.9123 73.657C19.9345 73.7202 20.8985 73.4207 22.6047 72.8207L25.2626 71.886L25.3663 72.1811C25.4234 72.3434 25.5144 72.4607 25.5686 72.4416C25.6227 72.4226 25.7448 72.6283 25.84 72.8989C25.9351 73.1694 26.0573 73.3751 26.1114 73.3561C26.1655 73.3371 26.2565 73.4543 26.3136 73.6166C26.3707 73.7789 26.4617 73.8961 26.5158 73.8771C26.57 73.8581 26.6576 73.9655 26.7104 74.1159C26.7669 74.2764 26.9085 74.4192 27.0533 74.4618C27.189 74.5018 27.3278 74.6132 27.3616 74.7095C27.3955 74.8057 27.4675 74.8689 27.5216 74.8499C27.5758 74.8308 27.6437 74.8826 27.6727 74.965C27.7368 75.1472 29.1318 75.8311 29.311 75.7681C29.3814 75.7433 29.534 75.7892 29.6501 75.8699C29.7663 75.9507 29.9303 75.9925 30.0146 75.9628C30.099 75.9331 30.263 75.9749 30.3791 76.0557C30.4953 76.1365 30.6943 76.1659 30.8216 76.1212C31.36 75.9318 31.1635 75.4551 34.7395 85.6236C36.9206 91.8256 38.0792 95.0133 38.1442 94.9905C38.1983 94.9714 38.3049 95.1329 38.381 95.3493C38.4571 95.5658 38.5637 95.7272 38.6178 95.7082C38.672 95.6892 38.763 95.8064 38.82 95.9687C38.8771 96.131 38.9681 96.2482 39.0223 96.2292C39.0764 96.2102 39.1518 96.2831 39.1899 96.3913C39.228 96.4995 39.3034 96.5725 39.3575 96.5535C39.4117 96.5344 39.4871 96.6074 39.5252 96.7156C39.5632 96.8238 39.6386 96.8967 39.6928 96.8777C39.7469 96.8587 39.8161 96.9138 39.8465 97.0004C39.8769 97.0869 40.0784 97.235 40.2941 97.3295C40.5098 97.4239 40.7039 97.5511 40.7253 97.612C40.7795 97.7662 41.926 98.3031 42.083 98.2479C42.1537 98.223 42.3065 98.2688 42.4226 98.3495C42.5388 98.4303 42.7028 98.4721 42.7871 98.4424C42.8715 98.4128 43.0355 98.4546 43.1516 98.5353C43.2678 98.6161 43.4415 98.6544 43.5379 98.6205C43.6342 98.5867 43.7286 98.6032 43.7476 98.6573C43.7667 98.7114 43.9151 98.709 44.0775 98.6518C44.24 98.5947 44.3884 98.5923 44.4074 98.6464C44.4265 98.7005 44.5749 98.698 44.7373 98.6409C44.8998 98.5838 45.0482 98.5813 45.0673 98.6354C45.0863 98.6895 45.279 98.6715 45.4956 98.5953C45.7122 98.5191 45.9049 98.5011 45.924 98.5552C45.9449 98.6148 46.3851 98.5036 47.0414 98.2728C47.6977 98.042 48.1106 97.8532 48.0896 97.7936C48.0706 97.7395 48.2765 97.6173 48.5472 97.5221C48.8179 97.4269 49.0238 97.3048 49.0048 97.2507C48.9858 97.1966 49.1031 97.1056 49.2655 97.0484C49.4279 96.9913 49.5452 96.9003 49.5262 96.8462C49.5072 96.7921 49.5802 96.7167 49.6885 96.6786C49.7968 96.6405 49.8698 96.5651 49.8508 96.511C49.8318 96.4569 49.9048 96.3815 50.0131 96.3434C50.1213 96.3053 50.1944 96.2299 50.1753 96.1758C50.1563 96.1217 50.2196 96.0497 50.3159 96.0158C50.4122 95.9819 50.5237 95.8432 50.5637 95.7076C50.6037 95.5719 50.694 95.4407 50.7642 95.416C50.9306 95.3575 51.7331 93.6858 51.6746 93.5194C51.65 93.4493 51.6959 93.2968 51.7768 93.1808C51.8576 93.0647 51.8995 92.9007 51.8698 92.8164C51.8402 92.7321 51.8821 92.5681 51.9629 92.452C52.0438 92.336 52.0823 92.1623 52.0484 92.066C52.0145 91.9697 52.0311 91.8754 52.0853 91.8563C52.1394 91.8373 52.137 91.6889 52.0799 91.5266C52.0228 91.3643 52.0204 91.2159 52.0746 91.1969C52.1287 91.1778 52.1107 90.9852 52.0346 90.7687C51.9585 90.5523 51.9406 90.3597 51.9947 90.3406C52.0583 90.3183 51.6945 89.1724 50.9663 87.1019C50.0359 84.4561 49.8554 83.8647 49.9308 83.7078C50.0046 83.5539 50.4625 83.3629 52.3423 82.7018C53.8235 82.1809 54.65 81.8502 54.628 81.7874C54.6089 81.7333 54.6613 81.6652 54.7443 81.636C54.9403 81.5671 55.3537 80.7058 55.2848 80.51C55.2557 80.427 55.2761 80.3436 55.3302 80.3245C55.3874 80.3044 55.3159 79.9692 55.1596 79.5247C54.9301 78.8723 54.854 78.7487 54.6437 78.6868C54.508 78.6469 54.3759 78.5545 54.3502 78.4814C54.2869 78.3013 53.9584 78.154 53.7687 78.2208C53.6836 78.2507 53.5984 78.2309 53.5794 78.1768C53.5604 78.1227 53.4562 78.1096 53.3479 78.1477C53.2397 78.1857 53.1355 78.1726 53.1165 78.1185C53.0944 78.0559 52.2757 78.3037 50.86 78.8015C49.0656 79.4326 48.6015 79.5654 48.4481 79.4918C48.2898 79.4159 48.0293 78.7505 46.889 75.508L45.52 71.6153L47.4888 70.9229C48.7357 70.4844 49.4703 70.2667 49.4922 70.3289C49.5112 70.3831 49.6597 70.3806 49.8221 70.3235C49.9845 70.2663 50.133 70.2639 50.152 70.318C50.171 70.3721 50.2752 70.3852 50.3835 70.3471C50.4917 70.309 50.5959 70.3221 50.6149 70.3763C50.634 70.4304 50.7824 70.4279 50.9448 70.3708C51.1073 70.3136 51.2557 70.3112 51.2747 70.3653C51.2938 70.4194 51.4422 70.4169 51.6047 70.3598C51.7671 70.3027 51.9155 70.3002 51.9346 70.3543C51.9536 70.4084 52.0578 70.4215 52.166 70.3835C52.2743 70.3454 52.3785 70.3585 52.3975 70.4126C52.4165 70.4667 52.565 70.4642 52.7274 70.4071C52.8898 70.35 53.0383 70.3475 53.0573 70.4016C53.0764 70.4557 53.1805 70.4688 53.2888 70.4308C53.3971 70.3927 53.5012 70.4058 53.5203 70.4599C53.5393 70.514 53.6878 70.5115 53.8502 70.4544C54.0126 70.3973 54.1611 70.3948 54.1801 70.4489C54.1991 70.503 54.3476 70.5006 54.51 70.4434C54.6724 70.3863 54.8209 70.3839 54.8399 70.438C54.8589 70.4921 54.9631 70.5052 55.0714 70.4671C55.1797 70.429 55.2838 70.4421 55.3028 70.4962C55.3219 70.5503 55.4703 70.5479 55.6328 70.4908C55.7952 70.4336 55.9436 70.4312 55.9627 70.4853C55.9817 70.5394 56.1301 70.5369 56.2926 70.4798C56.455 70.4227 56.6035 70.4202 56.6225 70.4743C56.6415 70.5284 56.7457 70.5415 56.854 70.5034C56.9622 70.4654 57.0664 70.4785 57.0854 70.5326C57.1045 70.5867 57.2529 70.5842 57.4153 70.5271C57.5778 70.47 57.7262 70.4675 57.7452 70.5216C57.7643 70.5757 57.8684 70.5888 57.9767 70.5507C58.085 70.5127 58.1892 70.5258 58.2082 70.5799C58.2272 70.634 58.3757 70.6315 58.5381 70.5744C58.7005 70.5173 58.849 70.5148 58.868 70.5689C58.887 70.623 59.0355 70.6206 59.1979 70.5634C59.3603 70.5063 59.5088 70.5038 59.5278 70.558C59.5468 70.6121 59.651 70.6252 59.7593 70.5871C59.8676 70.549 59.9717 70.5621 59.9908 70.6162C60.0098 70.6703 60.1583 70.6679 60.3207 70.6107C60.4831 70.5536 60.6316 70.5512 60.6506 70.6053C60.6696 70.6594 60.7738 70.6725 60.8821 70.6344C60.9903 70.5963 61.0945 70.6094 61.1135 70.6635C61.1326 70.7176 61.281 70.7152 61.4434 70.658C61.6059 70.6009 61.7543 70.5985 61.7733 70.6526C61.7924 70.7067 61.9408 70.7042 62.1033 70.6471C62.2657 70.59 62.4141 70.5875 62.4332 70.6416C62.4522 70.6957 62.5564 70.7088 62.6646 70.6707C62.7729 70.6327 62.8771 70.6458 62.8961 70.6999C62.9151 70.754 63.0636 70.7515 63.226 70.6944C63.3884 70.6373 63.5369 70.6348 63.5559 70.6889C63.575 70.743 63.7234 70.7405 63.8858 70.6834C64.0483 70.6263 64.1967 70.6238 64.2157 70.6779C64.2348 70.732 64.3389 70.7452 64.4472 70.7071C64.5555 70.669 64.6597 70.6821 64.6787 70.7362C64.6977 70.7903 64.8462 70.7878 65.0086 70.7307C65.171 70.6736 65.3195 70.6711 65.3385 70.7252C65.3575 70.7793 65.4617 70.7925 65.57 70.7544C65.6783 70.7163 65.7824 70.7294 65.8014 70.7835C65.8205 70.8376 65.9689 70.8352 66.1314 70.778C66.2938 70.7209 66.4422 70.7184 66.4613 70.7725C66.4803 70.8267 66.6287 70.8242 66.7912 70.7671C66.9536 70.7099 67.1021 70.7075 67.1211 70.7616C67.1401 70.8157 67.2443 70.8288 67.3526 70.7907C67.4608 70.7526 67.565 70.7657 67.584 70.8199C67.603 70.874 67.7515 70.8715 67.9139 70.8144C68.0764 70.7573 68.2248 70.7548 68.2438 70.8089C68.2629 70.863 68.367 70.8761 68.4753 70.838C68.5836 70.7999 68.6878 70.8131 68.7068 70.8672C68.7258 70.9213 68.8743 70.9188 69.0367 70.8617C69.1991 70.8046 69.3476 70.8021 69.3666 70.8562C69.3856 70.9103 69.5341 70.9078 69.6965 70.8507C69.8589 70.7936 70.0074 70.7911 70.0264 70.8452C70.0454 70.8993 70.1496 70.9124 70.2579 70.8744C70.3662 70.8363 70.4703 70.8494 70.4894 70.9035C70.5084 70.9576 70.6568 70.9551 70.8193 70.898C70.9817 70.8409 71.1302 70.8384 71.1492 70.8925C71.1682 70.9466 71.2724 70.9597 71.3807 70.9217C71.4889 70.8836 71.5931 70.8967 71.6121 70.9508C71.6312 71.0049 71.7796 71.0024 71.942 70.9453C72.1045 70.8882 72.2529 70.8857 72.2719 70.9398C72.291 70.9939 72.4394 70.9915 72.6018 70.9344C72.7643 70.8772 72.9127 70.8748 72.9318 70.9289C72.9508 70.983 73.0549 70.9961 73.1632 70.958C73.2715 70.9199 73.3757 70.933 73.3947 70.9871C73.4137 71.0412 73.5622 71.0388 73.7246 70.9817C73.887 70.9245 74.0355 70.9221 74.0545 70.9762C74.0735 71.0303 74.222 71.0278 74.3844 70.9707C74.5469 70.9136 74.6953 70.9111 74.7143 70.9652C74.7334 71.0193 74.8375 71.0324 74.9458 70.9943C75.0541 70.9563 75.1583 70.9694 75.1773 71.0235C75.1963 71.0776 75.3448 71.0751 75.5072 71.018C75.6696 70.9609 75.8181 70.9584 75.8371 71.0125C75.8561 71.0666 75.9603 71.0797 76.0686 71.0417C76.1769 71.0036 76.281 71.0167 76.3 71.0708C76.3191 71.1249 76.4675 71.1224 76.63 71.0653C76.7924 71.0082 76.9408 71.0057 76.9599 71.0598C76.9789 71.1139 77.1273 71.1115 77.2898 71.0543C77.4522 70.9972 77.6007 70.9948 77.6197 71.0489C77.6387 71.103 77.7429 71.1161 77.8512 71.078C77.9594 71.0399 78.0636 71.053 78.0826 71.1071C78.1016 71.1612 78.2501 71.1588 78.4125 71.1016C78.575 71.0445 78.7234 71.0421 78.7424 71.0962C78.7615 71.1503 78.8656 71.1634 78.9739 71.1253C79.0822 71.0872 79.1864 71.1003 79.2054 71.1544C79.2244 71.2085 79.3729 71.2061 79.5353 71.149C79.6977 71.0918 79.8462 71.0894 79.8652 71.1435C79.8842 71.1976 80.0327 71.1951 80.1951 71.138C80.3575 71.0809 80.506 71.0784 80.525 71.1325C80.544 71.1866 80.6482 71.1997 80.7565 71.1616C80.8648 71.1236 80.9689 71.1367 80.988 71.1908C81.007 71.2449 81.1554 71.2424 81.3179 71.1853C81.4803 71.1282 81.6288 71.1257 81.6478 71.1798C81.6668 71.2339 81.8153 71.2314 81.9777 71.1743C82.1401 71.1172 82.2886 71.1147 82.3076 71.1688C82.3266 71.223 82.4308 71.2361 82.5391 71.198C82.6473 71.1599 82.7515 71.173 82.7705 71.2271C82.7896 71.2812 82.938 71.2788 83.1004 71.2216C83.2629 71.1645 83.4113 71.162 83.4304 71.2162C83.4494 71.2703 83.5536 71.2834 83.6618 71.2453C83.7701 71.2072 83.8743 71.2203 83.8933 71.2744C83.9123 71.3285 84.0608 71.3261 84.2232 71.2689C84.3856 71.2118 84.5341 71.2093 84.5531 71.2635C84.5721 71.3176 84.7206 71.3151 84.883 71.258C85.0454 71.2009 85.1939 71.1984 85.2129 71.2525C85.232 71.3066 85.3361 71.3197 85.4444 71.2816C85.5527 71.2435 85.6569 71.2567 85.6759 71.3108C85.6949 71.3649 85.8434 71.3624 86.0058 71.3053L86.3011 71.2014L87.2698 73.9558C87.8925 75.7265 88.2736 76.6979 88.3369 76.6757C88.391 76.6566 88.4592 76.7089 88.4883 76.7918C88.5572 76.9877 89.4187 77.4006 89.6147 77.3316C89.6977 77.3025 89.7812 77.3228 89.8002 77.3769C89.8204 77.4343 90.1629 77.3599 90.6223 77.1984C91.0817 77.0368 91.3954 76.8804 91.3752 76.823C91.3562 76.7689 91.4086 76.7008 91.4916 76.6716C91.6875 76.6027 92.101 75.7414 92.0321 75.5456C92.0029 75.4627 92.0234 75.3792 92.0775 75.3602C92.143 75.3371 88.2808 64.2495 80.5596 42.2942C68.983 9.37573 68.9424 9.26265 68.6965 9.19028C68.5608 9.15035 68.4288 9.05795 68.4031 8.98486C68.3397 8.80474 68.0113 8.65749 67.8215 8.72424C67.7364 8.75415 67.6513 8.73435 67.6323 8.68025C67.6132 8.62614 67.5091 8.61303 67.4008 8.65111C67.2925 8.68919 67.1883 8.67608 67.1693 8.62198C67.1501 8.56728 66.8722 8.61593 66.5441 8.73132C66.216 8.8467 65.9688 8.9827 65.9881 9.0374ZM76.6145 43.6572L84.7789 66.873L84.4836 66.9769C84.3212 67.034 84.1727 67.0365 84.1537 66.9824C84.1347 66.9283 84.0305 66.9152 83.9222 66.9532C83.8139 66.9913 83.7098 66.9782 83.6907 66.9241C83.6717 66.87 83.5233 66.8725 83.3608 66.9296C83.1984 66.9867 83.05 66.9892 83.0309 66.9351C83.0119 66.881 82.8634 66.8834 82.701 66.9406C82.5386 66.9977 82.3901 67.0001 82.3711 66.946C82.3521 66.8919 82.2479 66.8788 82.1396 66.9169C82.0314 66.955 81.9272 66.9419 81.9082 66.8878C81.8891 66.8337 81.7407 66.8361 81.5783 66.8933C81.4158 66.9504 81.2674 66.9528 81.2484 66.8987C81.2293 66.8446 81.1252 66.8315 81.0169 66.8696C80.9086 66.9077 80.8044 66.8946 80.7854 66.8405C80.7664 66.7864 80.6179 66.7888 80.4555 66.846C80.2931 66.9031 80.1446 66.9055 80.1256 66.8514C80.1066 66.7973 79.9581 66.7998 79.7957 66.8569C79.6333 66.914 79.4848 66.9165 79.4658 66.8624C79.4467 66.8083 79.3426 66.7952 79.2343 66.8333C79.126 66.8713 79.0219 66.8582 79.0028 66.8041C78.9838 66.75 78.8353 66.7525 78.6729 66.8096C78.5105 66.8667 78.362 66.8692 78.343 66.8151C78.324 66.761 78.2198 66.7479 78.1115 66.786C78.0033 66.824 77.8991 66.8109 77.8801 66.7568C77.861 66.7027 77.7126 66.7052 77.5502 66.7623C77.3877 66.8194 77.2393 66.8219 77.2203 66.7678C77.2012 66.7137 77.0528 66.7162 76.8903 66.7733C76.7279 66.8304 76.5795 66.8329 76.5604 66.7788C76.5414 66.7246 76.4372 66.7115 76.329 66.7496C76.2207 66.7877 76.1165 66.7746 76.0975 66.7205C76.0785 66.6664 75.93 66.6688 75.7676 66.726C75.6052 66.7831 75.4567 66.7856 75.4377 66.7314C75.4186 66.6773 75.3145 66.6642 75.2062 66.7023C75.0979 66.7404 74.9938 66.7273 74.9747 66.6732C74.9557 66.6191 74.8072 66.6215 74.6448 66.6787C74.4824 66.7358 74.3339 66.7382 74.3149 66.6841C74.2959 66.63 74.1474 66.6325 73.985 66.6896C73.8226 66.7467 73.6741 66.7492 73.6551 66.6951C73.6361 66.641 73.5319 66.6279 73.4236 66.666C73.3153 66.7041 73.2112 66.6909 73.1922 66.6368C73.1731 66.5827 73.0247 66.5852 72.8622 66.6423C72.6998 66.6994 72.5514 66.7019 72.5323 66.6478C72.5133 66.5937 72.3648 66.5962 72.2024 66.6533C72.04 66.7104 71.8915 66.7129 71.8725 66.6588C71.8535 66.6047 71.7493 66.5916 71.641 66.6296C71.5328 66.6677 71.4286 66.6546 71.4096 66.6005C71.3905 66.5464 71.2421 66.5489 71.0797 66.606C70.9172 66.6631 70.7688 66.6656 70.7498 66.6115C70.7307 66.5574 70.6266 66.5442 70.5183 66.5823C70.41 66.6204 70.3058 66.6073 70.2868 66.5532C70.2678 66.4991 70.1193 66.5016 69.9569 66.5587C69.7945 66.6158 69.646 66.6183 69.627 66.5642C69.608 66.5101 69.4595 66.5125 69.2971 66.5696C69.1347 66.6268 68.9862 66.6292 68.9672 66.5751C68.9481 66.521 68.844 66.5079 68.7357 66.546C68.6274 66.5841 68.5233 66.571 68.5042 66.5169C68.4852 66.4627 68.3367 66.4652 68.1743 66.5223C68.0119 66.5795 67.8634 66.5819 67.8444 66.5278C67.8254 66.4737 67.7212 66.4606 67.6129 66.4987C67.5047 66.5368 67.4005 66.5237 67.3815 66.4695C67.3624 66.4154 67.214 66.4179 67.0516 66.475C66.8891 66.5321 66.7407 66.5346 66.7217 66.4805C66.7026 66.4264 66.5542 66.4289 66.3917 66.486C66.2293 66.5431 66.0809 66.5456 66.0618 66.4915C66.0428 66.4374 65.9386 66.4243 65.8304 66.4623C65.7221 66.5004 65.6179 66.4873 65.5989 66.4332C65.5799 66.3791 65.4314 66.3816 65.269 66.4387C65.1066 66.4958 64.9581 66.4983 64.9391 66.4442C64.92 66.3901 64.8159 66.377 64.7076 66.415C64.5993 66.4531 64.4952 66.44 64.4761 66.3859C64.4571 66.3318 64.3086 66.3343 64.1462 66.3914C63.9838 66.4485 63.8353 66.451 63.8163 66.3969C63.7973 66.3428 63.6488 66.3452 63.4864 66.4023C63.324 66.4595 63.1755 66.4619 63.1565 66.4078C63.1375 66.3537 63.0333 66.3406 62.925 66.3787C62.8167 66.4168 62.7126 66.4037 62.6936 66.3496C62.6745 66.2955 62.5261 66.2979 62.3636 66.355C62.2012 66.4122 62.0528 66.4146 62.0337 66.3605C62.0147 66.3064 61.9105 66.2933 61.8023 66.3314C61.694 66.3695 61.5898 66.3564 61.5708 66.3023C61.5518 66.2481 61.4033 66.2506 61.2409 66.3077C61.0785 66.3649 60.93 66.3673 60.911 66.3132C60.8919 66.2591 60.7435 66.2616 60.5811 66.3187C60.4186 66.3758 60.2702 66.3783 60.2512 66.3242C60.2321 66.2701 60.128 66.257 60.0197 66.2951C59.9114 66.3331 59.8072 66.32 59.7882 66.2659C59.7692 66.2118 59.6207 66.2143 59.4583 66.2714C59.2959 66.3285 59.1474 66.331 59.1284 66.2769C59.1094 66.2228 58.9609 66.2252 58.7985 66.2824C58.6361 66.3395 58.4876 66.3419 58.4686 66.2878C58.4495 66.2337 58.3454 66.2206 58.2371 66.2587C58.1288 66.2968 58.0247 66.2837 58.0056 66.2296C57.9866 66.1755 57.8381 66.1779 57.6757 66.2351C57.5133 66.2922 57.3648 66.2946 57.3458 66.2405C57.3268 66.1864 57.2226 66.1733 57.1143 66.2114C57.0061 66.2495 56.9019 66.2364 56.8829 66.1823C56.8638 66.1282 56.7154 66.1306 56.553 66.1878C56.3905 66.2449 56.2421 66.2473 56.2231 66.1932C56.204 66.1391 56.0556 66.1416 55.8931 66.1987C55.7307 66.2558 55.5823 66.2583 55.5632 66.2042C55.5442 66.1501 55.44 66.137 55.3318 66.1751C55.2235 66.2131 55.1193 66.2 55.1003 66.1459C55.0813 66.0918 54.9328 66.0943 54.7704 66.1514C54.608 66.2085 54.4595 66.211 54.4405 66.1569C54.4214 66.1028 54.3173 66.0897 54.209 66.1278C54.1007 66.1658 53.9966 66.1527 53.9775 66.0986C53.9585 66.0445 53.81 66.047 53.6476 66.1041C53.4852 66.1612 53.3367 66.1637 53.3177 66.1096C53.2987 66.0555 53.1502 66.058 52.9878 66.1151C52.8254 66.1722 52.6769 66.1747 52.6579 66.1206C52.6389 66.0664 52.5347 66.0533 52.4264 66.0914C52.3181 66.1295 52.214 66.1164 52.195 66.0623C52.1759 66.0082 52.0275 66.0106 51.865 66.0678C51.7026 66.1249 51.5542 66.1274 51.5351 66.0732C51.5161 66.0191 51.4119 66.006 51.3037 66.0441C51.1954 66.0822 51.0912 66.0691 51.0722 66.015C51.0532 65.9609 50.9047 65.9633 50.7423 66.0205L50.447 66.1243L46.345 54.4602C41.8869 41.7835 42.1114 42.5265 42.6785 42.327C42.8177 42.2781 42.9161 42.1938 42.897 42.1397C42.878 42.0856 42.951 42.0101 43.0593 41.9721C43.1676 41.934 43.2406 41.8586 43.2216 41.8045C43.2026 41.7503 43.3199 41.6593 43.4823 41.6022C43.6447 41.5451 43.7621 41.4541 43.743 41.4C43.724 41.3459 43.797 41.2705 43.9053 41.2324C44.0136 41.1943 44.0866 41.1189 44.0676 41.0648C44.0486 41.0107 44.1659 40.9197 44.3283 40.8626C44.4907 40.8054 44.6081 40.7144 44.589 40.6603C44.57 40.6062 44.6873 40.5152 44.8498 40.4581C45.0122 40.401 45.1295 40.31 45.1105 40.2559C45.0914 40.2018 45.1645 40.1263 45.2728 40.0883C45.381 40.0502 45.4541 39.9748 45.435 39.9207C45.416 39.8665 45.5333 39.7755 45.6958 39.7184C45.8582 39.6613 45.9755 39.5703 45.9565 39.5162C45.9374 39.4621 46.0105 39.3867 46.1188 39.3486C46.227 39.3105 46.3001 39.2351 46.281 39.181C46.262 39.1269 46.3793 39.0359 46.5417 38.9788C46.7042 38.9216 46.8215 38.8306 46.8025 38.7765C46.7834 38.7224 46.9008 38.6314 47.0632 38.5743C47.2256 38.5172 47.3429 38.4262 47.3239 38.3721C47.3049 38.318 47.3779 38.2425 47.4862 38.2045C47.5945 38.1664 47.6675 38.091 47.6485 38.0369C47.6294 37.9827 47.7468 37.8917 47.9092 37.8346C48.0716 37.7775 48.1889 37.6865 48.1699 37.6324C48.1509 37.5783 48.2682 37.4873 48.4306 37.4302C48.593 37.3731 48.7104 37.2821 48.6913 37.2279C48.6723 37.1738 48.7453 37.0984 48.8536 37.0603C48.9619 37.0223 49.0349 36.9468 49.0159 36.8927C48.9969 36.8386 49.1142 36.7476 49.2766 36.6905C49.439 36.6334 49.5564 36.5424 49.5373 36.4883C49.5183 36.4342 49.5913 36.3587 49.6996 36.3207C49.8079 36.2826 49.8809 36.2072 49.8619 36.1531C49.8429 36.099 49.9602 36.0079 50.1226 35.9508C50.285 35.8937 50.4024 35.8027 50.3833 35.7486C50.3643 35.6945 50.4816 35.6035 50.6441 35.5464C50.8065 35.4893 50.9238 35.3983 50.9048 35.3441C50.8858 35.29 50.9588 35.2146 51.0671 35.1765C51.1753 35.1385 51.2484 35.063 51.2293 35.0089C51.2103 34.9548 51.3276 34.8638 51.4901 34.8067C51.6525 34.7496 51.7698 34.6586 51.7508 34.6045C51.7318 34.5504 51.8048 34.4749 51.9131 34.4369C52.0213 34.3988 52.0944 34.3234 52.0753 34.2693C52.0563 34.2152 52.1736 34.1242 52.3361 34.067C52.4985 34.0099 52.6158 33.9189 52.5968 33.8648C52.5778 33.8107 52.6951 33.7197 52.8575 33.6626C53.0199 33.6055 53.1372 33.5145 53.1182 33.4603C53.0992 33.4062 53.1722 33.3308 53.2805 33.2927C53.3888 33.2547 53.4618 33.1792 53.4428 33.1251C53.4238 33.071 53.5411 32.98 53.7035 32.9229C53.8659 32.8658 53.9832 32.7748 53.9642 32.7207C53.9452 32.6666 54.0182 32.5911 54.1265 32.5531C54.2348 32.515 54.3078 32.4396 54.2888 32.3855C54.2698 32.3314 54.3871 32.2404 54.5495 32.1832C54.7119 32.1261 54.8292 32.0351 54.8102 31.981C54.7912 31.9269 54.9085 31.8359 55.0709 31.7788C55.2334 31.7217 55.3507 31.6307 55.3317 31.5766C55.3126 31.5224 55.3857 31.447 55.4939 31.4089C55.6022 31.3709 55.6752 31.2954 55.6562 31.2413C55.6372 31.1872 55.7545 31.0962 55.9169 31.0391C56.0794 30.982 56.1967 30.891 56.1777 30.8369C56.1586 30.7828 56.2317 30.7073 56.3399 30.6693C56.4482 30.6312 56.5212 30.5558 56.5022 30.5017C56.4832 30.4476 56.6005 30.3566 56.7629 30.2994C56.9254 30.2423 57.0427 30.1513 57.0237 30.0972C57.0046 30.0431 57.1219 29.9521 57.2844 29.895C57.4468 29.8379 57.5641 29.7469 57.5451 29.6928C57.5261 29.6386 57.5991 29.5632 57.7074 29.5251C57.8157 29.4871 57.8887 29.4116 57.8697 29.3575C57.8506 29.3034 57.9679 29.2124 58.1304 29.1553C58.2928 29.0982 58.4101 29.0072 58.3911 28.9531C58.3721 28.899 58.4894 28.808 58.6518 28.7509C58.8142 28.6937 58.9316 28.6027 58.9125 28.5486C58.8935 28.4945 58.9665 28.4191 59.0748 28.381C59.1831 28.3429 59.2561 28.2675 59.2371 28.2134C59.2181 28.1593 59.3354 28.0683 59.4978 28.0112C59.6602 27.9541 59.7776 27.8631 59.7585 27.809C59.7395 27.7548 59.8125 27.6794 59.9208 27.6413C60.0291 27.6033 60.1021 27.5278 60.0831 27.4737C60.0641 27.4196 60.1814 27.3286 60.3438 27.2715C60.5062 27.2144 60.6236 27.1234 60.6045 27.0693C60.5855 27.0152 60.7028 26.9242 60.8652 26.8671C61.0277 26.8099 61.145 26.7189 61.126 26.6648C61.1069 26.6107 61.18 26.5353 61.2882 26.4972C61.3965 26.4591 61.4696 26.3837 61.4505 26.3296C61.4315 26.2755 61.5488 26.1845 61.7112 26.1274C61.8737 26.0703 61.991 25.9793 61.972 25.9252C61.9529 25.871 62.026 25.7956 62.1342 25.7575C62.2425 25.7195 62.3156 25.644 62.2965 25.5899C62.2775 25.5358 62.3948 25.4448 62.5572 25.3877C62.7197 25.3306 62.837 25.2396 62.818 25.1855C62.7989 25.1314 62.9163 25.0404 63.0787 24.9833C63.2411 24.9261 63.3584 24.8351 63.3394 24.781C63.3204 24.7269 63.3934 24.6515 63.5017 24.6134C63.61 24.5753 63.683 24.4999 63.664 24.4458C63.6449 24.3917 63.7623 24.3007 63.9247 24.2436C64.0871 24.1865 64.2044 24.0955 64.1854 24.0414C64.1664 23.9873 64.2394 23.9118 64.3477 23.8737C64.456 23.8357 64.529 23.7602 64.51 23.7061C64.4909 23.652 64.6083 23.561 64.7707 23.5039C64.9331 23.4468 65.0504 23.3558 65.0314 23.3017C65.0124 23.2476 65.1297 23.1566 65.2921 23.0995C65.4545 23.0423 65.5719 22.9513 65.5528 22.8972C65.5338 22.8431 65.6068 22.7677 65.7151 22.7296C65.8234 22.6915 65.8964 22.6161 65.8774 22.562C65.8584 22.5079 65.9757 22.4169 66.1381 22.3598C66.3005 22.3027 66.4179 22.2117 66.3988 22.1576C66.3798 22.1035 66.4528 22.028 66.5611 21.9899C66.6694 21.9519 66.7424 21.8764 66.7234 21.8223C66.7044 21.7682 66.8217 21.6772 66.9841 21.6201C67.1465 21.563 67.2639 21.472 67.2448 21.4179C67.2258 21.3638 67.3431 21.2728 67.5055 21.2157C67.668 21.1585 67.7853 21.0675 67.7663 21.0134C67.7472 20.9593 67.8203 20.8839 67.9286 20.8458C68.0368 20.8077 68.1099 20.7323 68.0908 20.6782C68.0718 20.6241 68.1448 20.5487 68.2531 20.5106C68.4494 20.4416 68.4731 20.507 76.6145 43.6572ZM91.121 24.5172C91.14 24.5713 91.0879 24.6394 91.0053 24.6684C90.7515 24.7577 90.2735 25.8818 90.3712 26.1597C90.4193 26.2964 90.4143 26.4238 90.3602 26.4428C90.3061 26.4619 90.3085 26.6103 90.3655 26.7726C90.4226 26.9349 90.5136 27.0521 90.5678 27.0331C90.6219 27.014 90.7129 27.1313 90.77 27.2936C90.8271 27.4559 90.9181 27.5731 90.9722 27.5541C91.0264 27.535 91.095 27.5887 91.1248 27.6734C91.1546 27.7581 91.4762 27.965 91.8396 28.1333C92.203 28.3017 92.5184 28.4909 92.5405 28.5538C92.5627 28.6168 92.7573 28.7456 92.9731 28.8401C93.1888 28.9346 93.384 29.0649 93.4068 29.1297C93.4296 29.1946 93.6247 29.3249 93.8404 29.4194C94.0562 29.5139 94.2576 29.662 94.288 29.7485C94.3185 29.835 94.3876 29.8902 94.4418 29.8711C94.4959 29.8521 94.5713 29.9251 94.6094 30.0333C94.6475 30.1415 94.7229 30.2144 94.777 30.1954C94.8312 30.1764 94.9066 30.2493 94.9447 30.3575C94.9827 30.4657 95.0581 30.5387 95.1123 30.5196C95.1664 30.5006 95.2419 30.5736 95.2799 30.6818C95.318 30.79 95.3934 30.8629 95.4475 30.8439C95.5017 30.8249 95.5771 30.8978 95.6152 31.006C95.6532 31.1142 95.7287 31.1872 95.7828 31.1682C95.8369 31.1491 95.9124 31.2221 95.9504 31.3303C95.9885 31.4385 96.0639 31.5114 96.1181 31.4924C96.1722 31.4734 96.2632 31.5906 96.3203 31.7529C96.3774 31.9152 96.4684 32.0324 96.5225 32.0134C96.5766 31.9944 96.6676 32.1116 96.7247 32.2739C96.7818 32.4362 96.8728 32.5534 96.9269 32.5344C96.9811 32.5154 97.0877 32.6768 97.1638 32.8933C97.2399 33.1097 97.3464 33.2712 97.4006 33.2521C97.4553 33.2329 97.5913 33.4799 97.7066 33.8078C97.8219 34.1356 97.9579 34.3826 98.0126 34.3634C98.0741 34.3417 98.3186 34.919 98.6646 35.9027C99.0105 36.8864 99.1812 37.4896 99.1197 37.5113C99.0649 37.5305 99.1135 37.8083 99.2288 38.1361C99.3441 38.464 99.3926 38.7417 99.3379 38.761C99.2838 38.78 99.3017 38.9727 99.3779 39.1891C99.454 39.4055 99.4719 39.5982 99.4178 39.6172C99.3637 39.6362 99.3661 39.7846 99.4231 39.9469C99.4802 40.1092 99.4826 40.2576 99.4285 40.2767C99.3744 40.2957 99.3768 40.4441 99.4338 40.6064C99.4909 40.7687 99.4933 40.9171 99.4392 40.9361C99.3851 40.9552 99.3875 41.1036 99.4445 41.2659C99.5016 41.4282 99.504 41.5766 99.4499 41.5956C99.3957 41.6146 99.3826 41.7188 99.4206 41.827C99.4587 41.9352 99.4455 42.0393 99.3914 42.0583C99.3372 42.0774 99.3241 42.1815 99.3621 42.2897C99.4002 42.3979 99.387 42.502 99.3329 42.5211C99.2788 42.5401 99.2622 42.6345 99.296 42.7307C99.3299 42.827 99.2914 43.0007 99.2106 43.1168C99.1297 43.2329 99.0912 43.4066 99.1251 43.5029C99.1589 43.5991 99.1424 43.6934 99.0882 43.7125C99.0341 43.7315 99.0147 43.8178 99.0451 43.9044C99.0755 43.9909 99.0112 44.2325 98.902 44.4412C98.7929 44.6499 98.7215 44.8715 98.7433 44.9335C98.7652 44.9956 98.5804 45.461 98.3328 45.9678C98.0852 46.4746 97.9067 46.9578 97.9361 47.0416C97.9656 47.1253 97.9454 47.2095 97.8912 47.2285C97.8371 47.2476 97.8395 47.3959 97.8966 47.5582C97.9537 47.7206 97.9561 47.8689 97.9019 47.888C97.8478 47.907 97.8502 48.0554 97.9073 48.2177C97.9644 48.38 98.0554 48.4973 98.1095 48.4782C98.1637 48.4592 98.2547 48.5764 98.3117 48.7387C98.3688 48.901 98.4598 49.0183 98.514 48.9992C98.5681 48.9802 98.6364 49.033 98.6658 49.1166C98.7351 49.3134 99.3276 49.5974 99.5246 49.5281C99.6083 49.4987 99.6922 49.5189 99.7113 49.573C99.7303 49.6271 99.8787 49.6246 100.041 49.5675C100.204 49.5104 100.352 49.5079 100.371 49.562C100.39 49.6161 100.583 49.5981 100.799 49.5219C101.016 49.4458 101.178 49.3392 101.159 49.2851C101.14 49.231 101.213 49.1556 101.321 49.1175C101.429 49.0794 101.502 49.004 101.483 48.9499C101.464 48.8958 101.516 48.8278 101.598 48.7988C101.769 48.7388 102.468 47.3456 102.41 47.1808C102.389 47.1212 102.489 46.8402 102.632 46.556C102.776 46.2719 102.875 45.9874 102.852 45.9237C102.83 45.86 102.901 45.6371 103.01 45.4284C103.119 45.2196 103.183 44.978 103.153 44.8916C103.123 44.805 103.142 44.7187 103.196 44.6997C103.25 44.6806 103.267 44.5862 103.233 44.49C103.199 44.3937 103.238 44.22 103.319 44.1039C103.399 43.9878 103.438 43.8141 103.404 43.7178C103.37 43.6216 103.387 43.5273 103.441 43.5082C103.495 43.4892 103.508 43.3851 103.47 43.2769C103.432 43.1686 103.445 43.0645 103.499 43.0455C103.554 43.0265 103.567 42.9223 103.529 42.8141C103.491 42.7059 103.504 42.6018 103.558 42.5828C103.612 42.5637 103.625 42.4596 103.587 42.3514C103.549 42.2432 103.562 42.1391 103.616 42.12C103.671 42.101 103.684 41.9969 103.646 41.8887C103.608 41.7805 103.621 41.6764 103.675 41.6573C103.729 41.6383 103.727 41.4899 103.67 41.3276C103.612 41.1653 103.61 41.0169 103.664 40.9978C103.718 40.9788 103.716 40.8304 103.659 40.6681C103.602 40.5058 103.599 40.3574 103.653 40.3384C103.708 40.3193 103.705 40.171 103.648 40.0086C103.591 39.8463 103.589 39.698 103.643 39.6789C103.697 39.6599 103.679 39.4672 103.603 39.2508C103.527 39.0344 103.509 38.8417 103.563 38.8227C103.617 38.8037 103.599 38.611 103.523 38.3946C103.447 38.1782 103.429 37.9855 103.483 37.9665C103.539 37.9467 103.478 37.6367 103.339 37.2433C103.201 36.8498 103.139 36.5398 103.196 36.52C103.258 36.4981 103.04 35.7641 102.602 34.518C102.164 33.2719 101.874 32.5632 101.812 32.5851C101.756 32.6049 101.61 32.3246 101.471 31.9312C101.333 31.5377 101.187 31.2574 101.131 31.2772C101.076 31.2962 100.97 31.1347 100.894 30.9183C100.818 30.7019 100.711 30.5404 100.657 30.5594C100.603 30.5785 100.496 30.417 100.42 30.2006C100.344 29.9841 100.237 29.8226 100.183 29.8417C100.129 29.8607 100.038 29.7435 99.981 29.5812C99.924 29.4189 99.833 29.3017 99.7788 29.3207C99.7247 29.3397 99.6337 29.2225 99.5766 29.0602C99.5195 28.8979 99.4285 28.7807 99.3744 28.7997C99.3202 28.8187 99.2448 28.7458 99.2067 28.6376C99.1687 28.5294 99.0932 28.4564 99.0391 28.4754C98.985 28.4945 98.9095 28.4215 98.8715 28.3133C98.8334 28.2051 98.758 28.1322 98.7039 28.1512C98.6497 28.1702 98.5587 28.053 98.5016 27.8907C98.4445 27.7284 98.3535 27.6112 98.2994 27.6302C98.2453 27.6492 98.1698 27.5763 98.1318 27.4681C98.0937 27.3599 98.0183 27.2869 97.9641 27.3059C97.91 27.325 97.838 27.2618 97.8042 27.1656C97.7703 27.0693 97.6316 26.9579 97.4959 26.9179C97.3601 26.878 97.2214 26.7666 97.1876 26.6703C97.1537 26.5741 97.0817 26.5109 97.0276 26.5299C96.9734 26.549 96.9014 26.4858 96.8676 26.3895C96.8337 26.2932 96.695 26.1819 96.5593 26.1419C96.4236 26.102 96.2911 26.0083 96.2648 25.9337C96.2387 25.8593 96.0407 25.7209 95.8249 25.6264C95.6092 25.5319 95.4148 25.4038 95.393 25.3418C95.3712 25.2797 94.9357 25.0324 94.4254 24.7921C93.9151 24.5519 93.4734 24.2868 93.4439 24.203C93.4145 24.1193 93.3115 24.0785 93.2153 24.1123C93.1189 24.1462 92.9451 24.1078 92.829 24.0271C92.649 23.9019 92.505 23.92 91.8521 24.1496C91.4073 24.306 91.1009 24.4601 91.121 24.5172ZM42.3432 55.6622C45.6423 65.0432 46.1897 66.6653 46.1118 66.8277C46.0345 66.9889 44.9631 67.3896 39.0737 69.4608C34.508 71.0664 32.1149 71.8701 32.0922 71.8055C32.0732 71.7514 31.8804 71.7694 31.6639 71.8456C31.4473 71.9217 31.2545 71.9398 31.2355 71.8857C31.2165 71.8316 31.133 71.8112 31.05 71.8404C30.854 71.9093 29.9925 71.4964 29.9236 71.3006C29.8945 71.2177 29.8263 71.1653 29.7722 71.1844C29.7072 71.2072 28.4975 67.8744 26.2142 61.3818C23.9309 54.8892 22.7881 51.5328 22.8531 51.5099C22.9073 51.4909 22.9275 51.407 22.8981 51.3233C22.8687 51.2397 22.9152 51.0244 23.0014 50.8449C23.0876 50.6653 23.2265 50.4943 23.3102 50.4649C23.3939 50.4355 23.4467 50.3671 23.4277 50.313C23.4087 50.2589 23.4817 50.1835 23.59 50.1454C23.6983 50.1073 23.7713 50.0319 23.7523 49.9778C23.7295 49.9131 26.2443 48.9909 31.1005 47.2831L38.4834 44.6867L42.3432 55.6622ZM86.5243 34.0925C86.5433 34.1466 86.4912 34.2147 86.4087 34.2437C86.2133 34.3125 85.6713 35.4414 85.74 35.6367C85.769 35.7192 85.7485 35.8024 85.6943 35.8214C85.6396 35.8407 85.6882 36.1184 85.8035 36.4463C85.9188 36.7741 86.0547 37.0211 86.1095 37.0019C86.1636 36.9828 86.239 37.0558 86.2771 37.164C86.3151 37.2722 86.3906 37.3452 86.4447 37.3261C86.4989 37.3071 86.5677 37.3614 86.5978 37.4467C86.6278 37.5322 86.8894 37.7098 87.1791 37.8416C87.4688 37.9734 87.7303 38.1511 87.7604 38.2366C87.7904 38.3219 87.8593 38.3762 87.9134 38.3572C87.9676 38.3381 88.0741 38.4996 88.1503 38.716C88.2264 38.9324 88.3329 39.0939 88.3871 39.0749C88.4412 39.0559 88.5633 39.2616 88.6585 39.5321C88.7536 39.8027 88.7872 40.0396 88.733 40.0586C88.6789 40.0777 88.6813 40.226 88.7384 40.3884C88.7955 40.5507 88.7979 40.6991 88.7437 40.7181C88.6896 40.7371 88.673 40.8315 88.7068 40.9277C88.7407 41.024 88.7022 41.1977 88.6214 41.3138C88.5405 41.4299 88.4958 41.5859 88.5221 41.6605C88.5482 41.7349 88.4805 41.9668 88.3714 42.1755C88.2622 42.3842 88.1979 42.6258 88.2283 42.7123C88.2587 42.7989 88.2393 42.8852 88.1852 42.9042C88.1304 42.9235 88.179 43.2012 88.2943 43.5291C88.4096 43.8569 88.5456 44.1039 88.6003 44.0847C88.6545 44.0656 88.7299 44.1386 88.7679 44.2468C88.806 44.355 88.8814 44.428 88.9356 44.4089C88.9897 44.3899 89.0585 44.4439 89.0884 44.5289C89.1551 44.7185 89.4756 44.8823 89.6558 44.8189C89.7289 44.7932 89.8837 44.8382 89.9998 44.919C90.1798 45.0441 90.3239 45.0261 90.9767 44.7965C91.4216 44.6401 91.728 44.486 91.7079 44.4288C91.6889 44.3747 91.7619 44.2993 91.8702 44.2612C91.9784 44.2231 92.0515 44.1477 92.0324 44.0936C92.0134 44.0395 92.0663 43.9712 92.1499 43.9417C92.3266 43.8796 92.6342 43.2884 92.5759 43.1228C92.5542 43.0609 92.6256 42.8394 92.7347 42.6307C92.8438 42.422 92.9082 42.1804 92.8778 42.0939C92.8473 42.0074 92.8668 41.921 92.9209 41.902C92.975 41.883 92.9882 41.7789 92.9501 41.6706C92.9121 41.5624 92.9252 41.4583 92.9794 41.4393C93.0335 41.4202 93.0467 41.3161 93.0086 41.2079C92.9706 41.0997 92.9837 40.9956 93.0379 40.9766C93.092 40.9575 93.0896 40.8091 93.0325 40.6468C92.9755 40.4845 92.973 40.3361 93.0272 40.3171C93.0813 40.298 93.0634 40.1054 92.9872 39.889C92.9111 39.6726 92.8932 39.4799 92.9473 39.4609C93.0082 39.4394 92.8612 38.9016 92.5614 38.049C92.2616 37.1964 92.0396 36.685 91.9786 36.7064C91.9245 36.7255 91.8179 36.564 91.7418 36.3476C91.6657 36.1312 91.5591 35.9697 91.505 35.9887C91.4509 36.0077 91.3754 35.9348 91.3374 35.8266C91.2993 35.7184 91.2239 35.6454 91.1697 35.6645C91.1156 35.6835 91.028 35.576 90.9752 35.4257C90.9187 35.2652 90.7771 35.1224 90.6323 35.0797C90.4965 35.0398 90.3578 34.9284 90.324 34.8321C90.2901 34.7359 90.2181 34.6727 90.164 34.6917C90.1098 34.7107 90.0419 34.6591 90.013 34.5769C89.9446 34.3824 88.2811 33.5852 88.0865 33.6537C88.0042 33.6826 87.9214 33.662 87.9024 33.6079C87.8827 33.5517 87.5725 33.6134 87.1787 33.7518C86.785 33.8903 86.5045 34.0364 86.5243 34.0925ZM22.1144 62.9341L23.8787 67.9511L21.6147 68.7473C20.1709 69.2551 19.3381 69.5079 19.316 69.4452C19.297 69.3911 19.1928 69.378 19.0845 69.416C18.9763 69.4541 18.8721 69.441 18.8531 69.3869C18.834 69.3328 18.7489 69.313 18.6638 69.3429C18.474 69.4097 18.1456 69.2624 18.0823 69.0823C18.0566 69.0092 17.9245 68.9168 17.7888 68.8769C17.5493 68.8065 17.5024 68.6914 16.2005 64.9895C15.3292 62.5119 14.8935 61.1626 14.9573 61.1401C15.0115 61.1211 15.0319 61.0376 15.0027 60.9547C14.9339 60.7588 15.3473 59.8976 15.5433 59.8286C15.6263 59.7995 15.6786 59.7313 15.6596 59.6772C15.6375 59.6143 16.4782 59.2788 17.9875 58.748L20.35 57.9171L22.1144 62.9341ZM44.7307 81.9519C46.8064 87.8542 47.8453 90.9156 47.7804 90.9384C47.7263 90.9574 47.7287 91.1058 47.7858 91.2681C47.8428 91.4304 47.8453 91.5788 47.7911 91.5979C47.737 91.6169 47.7164 91.7001 47.7455 91.7826C47.8141 91.9779 47.2722 93.1068 47.0768 93.1755C46.9942 93.2046 46.9421 93.2726 46.9612 93.3267C46.9802 93.3808 46.9072 93.4563 46.7989 93.4944C46.6906 93.5324 46.6176 93.6079 46.6366 93.662C46.6576 93.7216 46.2447 93.9103 45.5884 94.1411C44.9321 94.3719 44.4919 94.4832 44.471 94.4236C44.4519 94.3695 44.3478 94.3564 44.2395 94.3944C44.1312 94.4325 44.027 94.4194 44.008 94.3653C43.989 94.3112 43.9055 94.2908 43.8225 94.32C43.6265 94.3889 42.765 93.976 42.6961 93.7802C42.667 93.6973 42.5988 93.645 42.5446 93.664C42.4905 93.683 42.4151 93.6101 42.377 93.5019C42.339 93.3937 42.2635 93.3207 42.2094 93.3398C42.1553 93.3588 42.0642 93.2416 42.0072 93.0793C41.9501 92.9169 41.8591 92.7997 41.8049 92.8188C41.7401 92.8416 40.6456 89.8366 38.5929 83.9999L35.4794 75.1464L38.531 74.0732L41.5825 73L44.7307 81.9519Z" fill="url(#paint0_linear)"/>
<defs>
<linearGradient id="paint0_linear" x1="45.2815" y1="16.2089" x2="71.1587" y2="89.7913" gradientUnits="userSpaceOnUse">
<stop stop-color="#BA8D61"/>
<stop offset="1" stop-color="#D1B396"/>
</linearGradient>
</defs>
</svg>
