<svg width="95" height="96" viewBox="0 0 95 96" fill="none" xmlns="http://www.w3.org/2000/svg">
<g clip-path="url(#clip0)">
<path d="M54.005 45.5267C54.2852 46.0804 54.8426 46.4003 55.4189 46.4003C55.6595 46.4003 55.9065 46.3442 56.1362 46.2259C56.2295 46.1779 65.5491 41.3939 70.1454 39.9267C70.9783 39.6595 71.4405 38.7603 71.1761 37.9188C70.9132 37.0771 70.0298 36.6084 69.1891 36.8741C64.3473 38.4213 55.0912 43.1733 54.6986 43.3748C53.9195 43.7748 53.6093 44.7381 54.005 45.5267Z" fill="url(#paint0_linear)"/>
<path d="M55.4189 27.2006C55.6595 27.2006 55.9065 27.1445 56.1362 27.0262C56.2295 26.9782 65.5491 22.1942 70.1454 20.727C70.9783 20.4598 71.4405 19.5606 71.1761 18.7191C70.9132 17.8774 70.0298 17.4087 69.1891 17.6744C64.3473 19.2216 55.0912 23.9736 54.6986 24.1751C53.9196 24.5751 53.6092 25.5382 54.005 26.327C54.2852 26.8805 54.8425 27.2006 55.4189 27.2006Z" fill="url(#paint1_linear)"/>
<path d="M93.417 24.0006C92.5414 24.0006 91.8337 24.7174 91.8337 25.6005V88C91.8337 90.6464 89.7025 92.8 87.0837 92.8H49.084V89.1184C51.3926 88.3025 57.4059 86.4001 63.3339 86.4001C77.1263 86.4001 86.4917 89.4865 86.585 89.5184C87.0615 89.6783 87.5936 89.5984 88.01 89.2975C88.4232 88.9967 88.667 88.5136 88.667 87.9998V17.6007C88.667 16.8503 88.1525 16.2006 87.4272 16.039C87.4272 16.039 86.1859 15.7591 84.0642 15.3653C83.2075 15.2054 82.3796 15.7814 82.2212 16.6486C82.0629 17.5189 82.6312 18.3526 83.491 18.5125C84.3002 18.6629 84.9778 18.7956 85.5003 18.9014V85.8736C81.9124 84.9232 73.9453 83.2001 63.3337 83.2001C56.4352 83.2001 49.6587 85.4896 47.5622 86.2657C45.6986 85.4337 40.0652 83.2001 33.2505 83.2001C22.3445 83.2001 13.3608 85.0177 9.50072 85.9409V18.8389C12.6626 18.0533 22.0011 16.0006 33.2505 16.0006C39.0234 16.0006 43.9743 17.8165 45.9172 18.6374V81.6001C45.9172 82.1761 46.2242 82.709 46.7198 82.9921C47.2154 83.2769 47.8266 83.2689 48.3159 82.9713C48.4727 82.877 64.1602 73.4081 78.0839 68.7186C78.7314 68.4994 79.1669 67.8899 79.1669 67.2002V1.60069C79.1669 1.07588 78.9119 0.584632 78.4845 0.285572C78.0601 -0.0136754 77.5155 -0.0824873 77.0263 0.101636C64.3581 4.9031 51.5397 12.9638 51.4113 13.0439C50.6703 13.5127 50.4439 14.4998 50.9078 15.2487C51.3701 15.9976 52.347 16.2263 53.0896 15.7576C53.2067 15.6824 64.3581 8.67126 76.0002 3.94011V66.0548C65.1924 69.85 53.908 76.0468 49.0837 78.821V17.6007C49.0837 16.9943 48.7449 16.4406 48.2081 16.1688C47.9357 16.0328 41.4474 12.8007 33.2505 12.8007C18.9437 12.8007 7.94436 15.9288 7.48198 16.063C6.8027 16.2582 6.33401 16.8871 6.33401 17.6007V88.0002C6.33401 88.501 6.56836 88.9746 6.96264 89.2771C7.24133 89.4899 7.57698 89.6003 7.91746 89.6003C8.06311 89.6003 8.20876 89.5795 8.35126 89.5379C8.46055 89.5075 19.4092 86.4003 33.2505 86.4003C39.0392 86.4003 43.9854 88.2211 45.9172 89.0386V92.8002H7.91746C5.29867 92.8002 3.16749 90.6466 3.16749 88.0002V25.6007C3.16749 24.7176 2.45815 24.0008 1.58424 24.0008C0.710317 24.0008 0.000976562 24.7176 0.000976562 25.6007V88.0002C0.000976562 92.4113 3.55232 96.0002 7.91764 96.0002H87.0837C91.4489 96.0002 95.0004 92.4115 95.0004 88.0002V25.6007C95.0002 24.7174 94.2925 24.0006 93.417 24.0006Z" fill="url(#paint2_linear)"/>
<path d="M54.005 35.9268C54.2852 36.4805 54.8426 36.8003 55.4189 36.8003C55.6595 36.8003 55.9065 36.7443 56.1362 36.626C56.2295 36.578 65.5491 31.7939 70.1454 30.3268C70.9783 30.0596 71.4405 29.1603 71.1761 28.3188C70.9132 27.4772 70.0298 27.0084 69.1891 27.2741C64.3473 28.8213 55.0912 33.5733 54.6986 33.7749C53.9195 34.1748 53.6093 35.1382 54.005 35.9268Z" fill="url(#paint3_linear)"/>
<path d="M54.005 55.1266C54.2852 55.6803 54.8426 56.0002 55.4189 56.0002C55.6595 56.0002 55.9065 55.9441 56.1362 55.8258C56.2295 55.7778 65.5491 50.9938 70.1454 49.5266C70.9783 49.2594 71.4405 48.3602 71.1761 47.5187C70.9132 46.677 70.0298 46.2082 69.1891 46.4739C64.3473 48.0212 55.0912 52.7731 54.6986 52.9747C53.9195 53.3746 53.6093 54.338 54.005 55.1266Z" fill="url(#paint4_linear)"/>
<path d="M38.3619 29.6934C28.585 27.375 17.4747 30.3286 17.0077 30.455C16.1638 30.6838 15.6619 31.5605 15.8883 32.4149C16.0783 33.1301 16.7179 33.6005 17.4163 33.6005C17.5525 33.6005 17.6901 33.5829 17.828 33.5461C17.9341 33.5157 28.631 30.6725 37.6402 32.8085C38.4872 33.0086 39.3438 32.4757 39.5433 31.6149C39.7426 30.7558 39.2138 29.8949 38.3619 29.6934Z" fill="url(#paint5_linear)"/>
<path d="M38.3619 39.2932C28.585 36.9765 17.4747 39.9285 17.0077 40.0549C16.1638 40.2836 15.6619 41.1605 15.8883 42.0148C16.0783 42.7299 16.7179 43.2003 17.4163 43.2003C17.5525 43.2003 17.6901 43.1827 17.828 43.1459C17.9341 43.1156 28.631 40.2723 37.6402 42.4083C38.4872 42.6084 39.3438 42.0755 39.5433 41.2147C39.7426 40.3556 39.2138 39.4948 38.3619 39.2932Z" fill="url(#paint6_linear)"/>
<path d="M54.005 64.7266C54.2852 65.2802 54.8426 65.6001 55.4189 65.6001C55.6595 65.6001 55.9065 65.5441 56.1362 65.4257C56.2295 65.3777 65.5491 60.5937 70.1454 59.1265C70.9783 58.8594 71.4405 57.9601 71.1761 57.1186C70.9132 56.2771 70.0298 55.8082 69.1891 56.0739C64.3473 57.6211 55.0912 62.3731 54.6986 62.5746C53.9195 62.9746 53.6093 63.9379 54.005 64.7266Z" fill="url(#paint7_linear)"/>
<path d="M38.3619 48.8932C28.585 46.5765 17.4747 49.5268 17.0077 49.6549C16.1638 49.8836 15.6619 50.7605 15.8883 51.6148C16.0783 52.3299 16.7179 52.802 17.4163 52.802C17.5525 52.802 17.6901 52.7829 17.828 52.746C17.9341 52.7156 28.631 49.8724 37.6402 52.0083C38.4872 52.2084 39.3438 51.6755 39.5433 50.8147C39.7426 49.9556 39.2138 49.0948 38.3619 48.8932Z" fill="url(#paint8_linear)"/>
<path d="M38.3619 68.0932C28.585 65.7747 17.4747 68.7284 17.0077 68.8548C16.1638 69.0835 15.6619 69.9605 15.8883 70.8147C16.0783 71.5298 16.7179 72.0019 17.4163 72.0019C17.5525 72.0019 17.6901 71.9828 17.828 71.9459C17.9341 71.9155 28.631 69.0723 37.6402 71.2083C38.4872 71.4066 39.3438 70.8754 39.5433 70.0146C39.7426 69.1555 39.2138 68.2947 38.3619 68.0932Z" fill="url(#paint9_linear)"/>
<path d="M38.3619 58.4932C28.585 56.1748 17.4747 59.1268 17.0077 59.2548C16.1638 59.4836 15.6619 60.3605 15.8883 61.2148C16.0783 61.9299 16.7179 62.402 17.4163 62.402C17.5525 62.402 17.6901 62.3829 17.828 62.3459C17.9341 62.3156 28.631 59.4723 37.6402 61.6083C38.4872 61.8084 39.3438 61.2755 39.5433 60.4147C39.7426 59.5556 39.2138 58.6948 38.3619 58.4932Z" fill="url(#paint10_linear)"/>
</g>
<defs>
<linearGradient id="paint0_linear" x1="62.5418" y1="36.7997" x2="62.5418" y2="46.4003" gradientUnits="userSpaceOnUse">
<stop stop-color="#BA8D61"/>
<stop offset="1" stop-color="#D1B396"/>
</linearGradient>
<linearGradient id="paint1_linear" x1="62.5418" y1="17.6" x2="62.5418" y2="27.2006" gradientUnits="userSpaceOnUse">
<stop stop-color="#BA8D61"/>
<stop offset="1" stop-color="#D1B396"/>
</linearGradient>
<linearGradient id="paint2_linear" x1="47.5007" y1="0" x2="47.5007" y2="96.0002" gradientUnits="userSpaceOnUse">
<stop stop-color="#BA8D61"/>
<stop offset="1" stop-color="#D1B396"/>
</linearGradient>
<linearGradient id="paint3_linear" x1="62.5418" y1="27.1997" x2="62.5418" y2="36.8003" gradientUnits="userSpaceOnUse">
<stop stop-color="#BA8D61"/>
<stop offset="1" stop-color="#D1B396"/>
</linearGradient>
<linearGradient id="paint4_linear" x1="62.5418" y1="46.3995" x2="62.5418" y2="56.0002" gradientUnits="userSpaceOnUse">
<stop stop-color="#BA8D61"/>
<stop offset="1" stop-color="#D1B396"/>
</linearGradient>
<linearGradient id="paint5_linear" x1="27.7096" y1="28.8081" x2="27.7096" y2="33.6005" gradientUnits="userSpaceOnUse">
<stop stop-color="#BA8D61"/>
<stop offset="1" stop-color="#D1B396"/>
</linearGradient>
<linearGradient id="paint6_linear" x1="27.7096" y1="38.4087" x2="27.7096" y2="43.2003" gradientUnits="userSpaceOnUse">
<stop stop-color="#BA8D61"/>
<stop offset="1" stop-color="#D1B396"/>
</linearGradient>
<linearGradient id="paint7_linear" x1="62.5418" y1="55.9995" x2="62.5418" y2="65.6001" gradientUnits="userSpaceOnUse">
<stop stop-color="#BA8D61"/>
<stop offset="1" stop-color="#D1B396"/>
</linearGradient>
<linearGradient id="paint8_linear" x1="27.7096" y1="48.0084" x2="27.7096" y2="52.802" gradientUnits="userSpaceOnUse">
<stop stop-color="#BA8D61"/>
<stop offset="1" stop-color="#D1B396"/>
</linearGradient>
<linearGradient id="paint9_linear" x1="27.7096" y1="67.2079" x2="27.7096" y2="72.0019" gradientUnits="userSpaceOnUse">
<stop stop-color="#BA8D61"/>
<stop offset="1" stop-color="#D1B396"/>
</linearGradient>
<linearGradient id="paint10_linear" x1="27.7096" y1="57.6077" x2="27.7096" y2="62.402" gradientUnits="userSpaceOnUse">
<stop stop-color="#BA8D61"/>
<stop offset="1" stop-color="#D1B396"/>
</linearGradient>
<clipPath id="clip0">
<rect width="95" height="96" fill="white"/>
</clipPath>
</defs>
</svg>
