<svg width="99" height="96" viewBox="0 0 99 96" fill="none" xmlns="http://www.w3.org/2000/svg">
<path fill-rule="evenodd" clip-rule="evenodd" d="M8.24135 62.6813H3.29902V69.2776C3.29902 71.0987 4.77863 72.5783 6.59969 72.5783H92.3708C94.1919 72.5783 95.6715 71.0987 95.6715 69.2776V62.6813H90.7292L90.723 62.6814H8.24756L8.24135 62.6813ZM6.59805 59.3822H3.29902V6.59969C3.29902 4.77863 4.77863 3.29902 6.59969 3.29902H92.3708C94.1919 3.29902 95.6715 4.77863 95.6715 6.59969V59.3822H92.3725V8.24756C92.3725 7.33703 91.6335 6.59805 90.723 6.59805H8.24756C7.33703 6.59805 6.59805 7.33703 6.59805 8.24756V59.3822ZM89.0735 59.3822H9.89707V9.89707H89.0735V59.3822ZM98.9705 6.59969V61.0318V61.0318V69.2776C98.9705 72.9165 96.0097 75.8773 92.3708 75.8773H59.4284C59.8106 82.4471 62.5644 85.7744 67.6297 85.7744C67.6335 85.7744 67.6373 85.7744 67.6411 85.7744H70.9287C73.657 85.7744 75.8773 87.9947 75.8773 90.723C75.8773 93.4513 73.657 95.6715 70.9287 95.6715H28.0415C25.3132 95.6715 23.093 93.4513 23.093 90.723C23.093 87.9947 25.3132 85.7744 28.0415 85.7744H31.3292C31.333 85.7744 31.3368 85.7744 31.3405 85.7744C36.4059 85.7744 39.1597 82.4471 39.5419 75.8773H6.59969C2.96087 75.8773 0 72.9165 0 69.2776V61.0318V61.0318V6.59969C0 2.96087 2.96087 0 6.59969 0H92.3708C96.0097 0 98.9705 2.96087 98.9705 6.59969ZM51.1348 42.285V46.1863C51.1348 47.0969 50.3958 47.8358 49.4853 47.8358C48.5747 47.8358 47.8358 47.0969 47.8358 46.1863V42.2851L31.3406 34.5227V43.5174L49.4852 52.5897L67.6298 43.5174V34.5227L51.1348 42.285ZM79.1764 28.0584V42.387L82.1985 46.9202C82.7032 47.6773 82.4987 48.7033 81.7416 49.208C81.4595 49.3961 81.1411 49.4852 80.8277 49.4852C80.2949 49.4852 79.772 49.2278 79.4537 48.7511L77.527 45.861L75.6002 48.7511C75.2819 49.2278 74.759 49.4852 74.2262 49.4852C73.9128 49.4852 73.5944 49.3961 73.3124 49.208C72.5552 48.7033 72.3507 47.679 72.8555 46.9202L75.8774 42.3873V30.6415L70.9288 32.9702V44.5368C70.9288 45.162 70.5758 45.7327 70.0167 46.0131L50.2226 55.9102C49.9916 56.0257 49.7376 56.0834 49.4852 56.0834C49.2328 56.0834 48.9788 56.0257 48.7479 55.9102L28.9538 46.0131C28.3946 45.7327 28.0416 45.162 28.0416 44.5368V32.9701L20.741 29.5345C20.1636 29.2623 19.7941 28.6801 19.7941 28.0417C19.7941 27.4033 20.1636 26.8211 20.741 26.5489L48.7826 13.3528C49.228 13.1433 49.7426 13.1433 50.188 13.3528L78.2296 26.5489C78.486 26.6698 78.7014 26.8518 78.8617 27.0727L78.8768 27.0939C79.0381 27.3232 79.1426 27.5954 79.1695 27.89C79.1705 27.9009 79.1714 27.9118 79.1722 27.9227C79.175 27.9621 79.1765 28.0018 79.1765 28.0417L79.1764 28.0584ZM68.5928 30.4228L70.1473 29.6912H51.1348V31.3407C51.1348 32.2512 50.3958 32.9902 49.4853 32.9902C48.5747 32.9902 47.8358 32.2512 47.8358 31.3407V28.0417V24.7427C47.8358 23.8322 48.5747 23.0932 49.4853 23.0932C50.3958 23.0932 51.1348 23.8322 51.1348 24.7427V26.3922H70.1473L49.4853 16.6683L25.3183 28.0417L49.4853 39.4151L68.5766 30.4302L68.5928 30.4228ZM56.0832 67.6298C56.0832 68.5403 55.3442 69.2793 54.4337 69.2793H44.5366C43.6261 69.2793 42.8871 68.5403 42.8871 67.6298C42.8871 66.7193 43.6261 65.9803 44.5366 65.9803H54.4337C55.3442 65.9803 56.0832 66.7193 56.0832 67.6298ZM28.0415 89.0735C27.1326 89.0735 26.392 89.8141 26.392 90.723C26.392 91.6319 27.1326 92.3725 28.0415 92.3725H70.9287C71.8376 92.3725 72.5782 91.6319 72.5782 90.723C72.5782 89.8141 71.8376 89.0735 70.9287 89.0735H28.0415ZM56.1294 75.8774C56.3685 80.1743 57.5644 83.5245 59.5966 85.7744H39.3753C41.4075 83.5245 42.6017 80.1743 42.8426 75.8774H56.1294Z" fill="url(#paint0_linear)"/>
<defs>
<linearGradient id="paint0_linear" x1="49.4853" y1="0" x2="49.4853" y2="95.6715" gradientUnits="userSpaceOnUse">
<stop stop-color="#BA8D61"/>
<stop offset="1" stop-color="#D1B396"/>
</linearGradient>
</defs>
</svg>
