<svg width="43" height="55" viewBox="0 0 43 55" fill="none" xmlns="http://www.w3.org/2000/svg">
<path d="M30.041 0.00984706C30.6938 0.292889 30.8747 0.817133 30.8747 1.48659C30.8649 9.79409 30.86 18.1016 30.86 26.4091C30.8499 26.5716 30.8812 26.734 30.9509 26.8809C31.0206 27.0278 31.1265 27.1543 31.2585 27.2484C36.0429 31.0928 36.8814 37.6102 33.2632 42.5499C33.1923 42.6459 33.1287 42.7493 33.0505 42.8699C33.1923 43.0225 33.3219 43.1627 33.4563 43.2981L42.013 51.9247C42.1525 52.0571 42.2824 52.1994 42.4017 52.3505C42.5631 52.5511 42.6456 52.8044 42.6334 53.0622C42.6213 53.32 42.5153 53.5643 42.3357 53.7485C42.16 53.9369 41.9205 54.0518 41.6646 54.0705C41.4087 54.0892 41.1552 54.0103 40.9544 53.8494C40.7869 53.723 40.6307 53.5822 40.4874 53.4286C37.6548 50.5817 34.823 47.7316 31.9919 44.8782C31.8495 44.7152 31.7172 44.5434 31.5959 44.3638C31.1485 44.669 30.7989 44.925 30.4346 45.1563C28.5434 46.3739 26.3242 46.9721 24.0817 46.869C21.8391 46.7659 19.6833 45.9664 17.9102 44.5804C17.662 44.4008 17.3651 44.302 17.0594 44.2974C11.8839 44.2801 6.70838 44.2851 1.53285 44.2851C0.31048 44.2851 0 43.9823 0 42.7714C0 29.0262 0 15.2794 0 1.53089C0 0.85405 0.151575 0.329806 0.765207 0L30.041 0.00984706ZM2.17094 2.18558V42.129H15.617C14.5606 40.5645 13.9124 38.7574 13.7321 36.8743H13.1161C11.0185 36.8743 8.92088 36.8743 6.82084 36.8743C5.93584 36.8743 5.44445 36.3353 5.59847 35.5674C5.70359 35.021 6.12653 34.7305 6.87218 34.7281C8.95266 34.7281 11.0282 34.7281 13.1161 34.7281H13.7713C13.972 33.0703 14.5248 31.4754 15.3921 30.0517H7.07998C6.87093 30.0567 6.6618 30.0468 6.45413 30.0222C6.19049 29.9924 5.94916 29.8592 5.78254 29.6513C5.61592 29.4435 5.53747 29.1779 5.56424 28.9122C5.60091 28.2698 6.05319 27.908 6.85507 27.908C10.1147 27.908 13.3679 27.908 16.6145 27.908C16.959 27.9194 17.2948 27.7979 17.5533 27.5683C20.1618 25.3852 23.1493 24.5509 26.501 25.1268C27.2345 25.2523 27.9386 25.4812 28.672 25.6658V2.18558H2.17094ZM24.5868 27.0835C22.2616 27.0939 20.0356 28.0328 18.3974 29.694C16.7592 31.3553 15.8428 33.6031 15.8493 35.9439C15.8545 38.2744 16.777 40.5078 18.4148 42.1547C20.0525 43.8017 22.272 44.728 24.5868 44.7306C26.9104 44.726 29.138 43.7966 30.7836 42.145C32.4291 40.4934 33.3592 38.2537 33.3708 35.9144C33.3592 33.5738 32.4296 31.3325 30.7845 29.6785C29.1393 28.0246 26.9118 27.0919 24.5868 27.0835Z" fill="#D5604F"/>
<path d="M16.1423 20.7984H24.2649C24.3872 20.7984 24.5094 20.7984 24.6317 20.7984C25.5168 20.8126 26.0181 21.2052 25.9961 21.8626C25.9741 22.52 25.4728 22.8771 24.6268 22.8771H11.9416C10.4574 22.8771 8.97078 22.8771 7.4866 22.8771C6.69438 22.8771 6.22492 22.4538 6.23959 21.8082C6.24121 21.5801 6.32634 21.3599 6.47987 21.1867C6.63341 21.0136 6.84541 20.8986 7.07826 20.8623C7.32078 20.8246 7.56619 20.8072 7.81179 20.8102C10.5894 20.7992 13.3663 20.7953 16.1423 20.7984Z" fill="#D5604F"/>
<path d="M16.1145 16.6356H7.77057C7.56077 16.6407 7.35085 16.6328 7.14209 16.6117C6.90542 16.5861 6.68567 16.4795 6.52183 16.3108C6.35798 16.1421 6.26064 15.9221 6.24705 15.69C6.21626 15.4499 6.27736 15.2072 6.41863 15.0084C6.5599 14.8097 6.77139 14.6689 7.01248 14.6131C7.23449 14.5691 7.4611 14.5515 7.68742 14.5605H24.5831C25.4806 14.5605 25.9843 14.9306 25.9965 15.5849C26.0088 16.2392 25.5075 16.638 24.5635 16.638L16.1145 16.6356Z" fill="#D5604F"/>
<path d="M14.0225 9.35879C11.8608 9.35879 9.70163 9.35879 7.53998 9.35879C6.70558 9.35879 6.22494 8.9495 6.23958 8.29417C6.23926 8.07348 6.31674 7.85931 6.45919 7.68719C6.60164 7.51507 6.80049 7.39533 7.02275 7.34785C7.24333 7.30243 7.46819 7.27944 7.69369 7.27924C11.9227 7.27924 16.1573 7.27924 20.3976 7.27924C20.6234 7.2767 20.8487 7.30053 21.0686 7.35021C21.2906 7.40363 21.4873 7.52834 21.6269 7.70404C21.7665 7.87974 21.8405 8.09609 21.8371 8.31783C21.8411 8.53002 21.7731 8.73759 21.6435 8.90859C21.5138 9.07958 21.3299 9.20452 21.1198 9.26416C20.8677 9.32902 20.6072 9.3585 20.3464 9.35169C18.236 9.35879 16.128 9.35879 14.0225 9.35879Z" fill="#D5604F"/>
<path d="M22.877 8.31426C22.877 7.7036 23.5435 7.26977 24.449 7.2792C25.3545 7.28863 26.021 7.75076 25.9959 8.34727C25.9707 8.94378 25.3168 9.35404 24.4238 9.35875C23.5309 9.36347 22.8738 8.92492 22.877 8.31426Z" fill="#D5604F"/>
</svg>
