<svg width="738" height="675" viewBox="0 0 738 675" fill="none" xmlns="http://www.w3.org/2000/svg">
<path d="M605.602 191.316H629.133V286.813H654.546V191.316H678.642V169.612H605.602V191.316Z" fill="#EFE4D7" fill-opacity="0.38"/>
<path d="M424.504 627.847V510.646H346.004V627.847H371.606V532.539H398.902V627.847H424.504Z" fill="#EFE4D7" fill-opacity="0.38"/>
<path d="M605.978 340.034H581.693V457.236H605.978V340.034Z" fill="#EFE4D7" fill-opacity="0.38"/>
<path d="M546.491 515.176C541.22 518.761 532.937 527.065 531.054 544.995L553.268 547.637C553.456 542.919 555.15 537.257 558.35 534.048C560.045 532.35 563.433 529.896 569.457 529.896C574.352 529.896 577.552 531.406 579.811 533.482C582.823 536.502 583.199 540.088 583.199 543.296C583.199 546.882 582.635 550.279 580.187 553.299C576.799 557.074 572.092 557.451 568.139 557.451H557.786V577.645H569.457C572.093 577.645 577.74 577.834 581.129 581.42C583.576 584.062 584.894 588.214 584.894 593.498C584.894 598.028 583.764 601.614 581.882 604.067C578.493 608.219 573.222 608.597 569.645 608.597C565.127 608.597 558.539 607.842 555.338 600.67C554.021 597.462 553.268 592.555 553.268 589.535L529.736 591.611C530.113 603.124 533.125 614.447 542.161 621.996C550.444 628.791 560.233 629.734 570.21 629.734C579.811 629.734 591.482 629.168 600.895 620.487C609.931 612.183 611.06 601.047 611.06 594.064C611.06 586.893 609.931 580.476 604.66 574.814C600.142 569.907 595.435 568.02 591.67 567.076V566.699C598.824 564.811 603.154 560.282 605.224 556.696C607.672 552.355 608.989 545.938 608.989 541.22C608.989 530.463 604.283 521.592 597.883 516.497C590.164 510.08 579.811 508.947 571.716 508.947C564.751 508.759 554.585 509.514 546.491 515.176Z" fill="#EFE4D7" fill-opacity="0.38"/>
<path d="M557.22 389.859C548.184 383.254 535.383 382.876 527.289 382.876H516.37V340.223H492.086V457.424H529.171C538.019 457.424 547.996 457.424 556.844 451.196C569.457 442.326 570.21 428.549 570.21 421C570.21 413.828 569.457 398.918 557.22 389.859ZM539.148 434.211C536.136 436.098 531.054 437.042 527.1 437.042H516.558V402.882H527.1C531.054 402.882 535.948 403.07 539.713 405.901C544.42 409.676 544.984 415.715 544.984 420.245C544.984 425.152 544.796 430.625 539.148 434.211Z" fill="#EFE4D7" fill-opacity="0.38"/>
<path d="M433.729 245.67C432.223 251.332 429.211 259.447 426.952 265.675H417.916V311.536H440.883V287.001H494.157V311.536H517.124V265.675H505.641V169.612H440.506V181.124C440.506 187.918 440.694 201.318 439 217.549C438.059 226.608 436.365 236.799 433.729 245.67ZM458.39 236.611C461.025 221.135 461.59 205.282 461.778 199.431L461.967 190.749H480.227V265.675H450.107C454.625 254.351 456.696 245.858 458.39 236.611Z" fill="#EFE4D7" fill-opacity="0.38"/>
<path d="M318.142 311.348V265.486H306.659V169.612H241.525V181.124C241.525 187.918 241.713 201.318 240.019 217.549C239.077 226.797 237.383 236.988 234.748 245.67C233.242 251.332 230.23 259.447 227.971 265.675H218.935V311.536H241.901V287.001H295.176V311.536H318.142V311.348ZM281.057 265.675H250.937C255.455 254.351 257.526 246.047 259.22 236.611C261.856 221.135 262.42 205.282 262.609 199.431L262.797 190.749H281.057V265.675Z" fill="#EFE4D7" fill-opacity="0.38"/>
<path d="M479.662 629.734C506.958 629.734 522.206 609.54 522.206 569.152C522.206 558.772 521.265 533.86 508.087 520.083C502.252 514.043 493.404 508.57 479.662 508.57C471.755 508.57 460.648 510.269 451.236 520.083C438.623 533.105 437.117 552.922 437.117 569.152C437.117 585.383 438.623 605.2 451.236 618.222C460.648 628.036 471.755 629.734 479.662 629.734ZM468.743 536.313C471.567 531.595 475.52 529.896 479.662 529.896C482.485 529.896 487.568 530.84 490.769 536.313C492.086 538.578 495.098 544.995 495.098 569.152C495.098 592.932 492.463 599.538 490.769 602.18C488.886 605.2 485.309 608.597 479.662 608.597C476.461 608.597 471.943 607.653 468.743 602.18C466.484 598.594 464.225 591.045 464.225 569.152C464.413 547.448 466.484 540.088 468.743 536.313Z" fill="#EFE4D7" fill-opacity="0.38"/>
<path d="M179.967 266.619H134.411V236.988H169.802V216.794H134.411V189.617H179.967V169.612H108.809V286.813H179.967V266.619Z" fill="#EFE4D7" fill-opacity="0.38"/>
<path d="M207.075 116.201H232.677V20.8926H256.773V-1H183.544V20.8926H207.075V116.201Z" fill="#EFE4D7" fill-opacity="0.38"/>
<path d="M179.967 96.1958H134.411V66.5652H169.802V46.3711H134.411V19.1941H179.967V-1H108.809V116.201H179.967V96.1958Z" fill="#EFE4D7" fill-opacity="0.38"/>
<path d="M397.396 457.424H422.999V361.927H450.295V457.424H475.897V340.034H397.396V457.424Z" fill="#EFE4D7" fill-opacity="0.38"/>
<path d="M473.26 96.1958H427.704V66.5652H463.095V46.3711H427.704V19.1941H473.26V-1H402.102V116.201H473.26V96.1958Z" fill="#EFE4D7" fill-opacity="0.38"/>
<path d="M316.636 116.201H369.911V140.736H392.878V95.0634H381.395V-1H316.26V10.5125C316.26 17.3068 316.448 30.7066 314.754 46.9373C313.813 56.1851 312.118 66.3765 309.483 75.058C307.977 80.7199 304.965 88.8353 302.706 95.0634H293.67V140.925H316.636V116.201ZM333.955 65.999C336.591 50.5232 337.156 34.6699 337.344 28.8193L337.532 20.1377H355.792V95.0634H325.672C330.19 83.7396 332.261 75.4355 333.955 65.999Z" fill="#EFE4D7" fill-opacity="0.38"/>
<path d="M508.84 68.0751H537.077V116.201H562.679V-1H537.077V46.1824H508.84V-1H483.426V116.201H508.84V68.0751Z" fill="#EFE4D7" fill-opacity="0.38"/>
<path d="M38.5913 409.11H66.6406V457.424H92.2426V340.034H66.6406V387.217H38.5913V340.034H12.9893V457.424H38.5913V409.11Z" fill="#EFE4D7" fill-opacity="0.38"/>
<path d="M30.4965 605.011C27.4845 607.653 24.096 607.653 20.8958 607.653C17.319 607.653 14.307 607.276 11.1068 606.709V627.847C15.2483 628.98 19.2015 629.735 23.9078 629.735C31.4378 629.735 40.2855 628.602 46.686 622.374C50.0745 619.166 54.4043 612.938 60.4283 595.008L89.0423 510.646H65.6993L48.945 566.888H48.192L28.614 510.646H0L35.391 596.518C34.8263 600.104 32.7555 603.312 30.4965 605.011Z" fill="#EFE4D7" fill-opacity="0.38"/>
<path d="M179.967 437.23H134.411V407.6H169.802V387.406H134.411V360.229H179.967V340.034H108.809V457.424H179.967V437.23Z" fill="#EFE4D7" fill-opacity="0.38"/>
<path d="M38.5913 238.687H66.6406V286.813H92.2426V169.612H66.6406V216.794H38.5913V169.612H12.9893V286.813H38.5913V238.687Z" fill="#EFE4D7" fill-opacity="0.38"/>
<path d="M100.525 537.068C101.09 542.353 100.902 543.296 101.843 550.657C102.408 554.054 102.784 558.206 106.361 561.981C108.62 564.434 111.82 566.133 114.832 566.887V567.454C111.067 568.02 104.102 569.907 100.337 576.89C97.7017 581.608 97.5134 587.27 96.9487 592.366C96.0074 600.67 96.0074 602.935 94.8779 604.822C93.7484 607.087 92.0541 607.464 89.9834 606.898V628.036C92.8071 628.98 94.8779 628.98 98.0781 628.98C104.479 628.98 113.515 628.036 117.468 619.921C118.409 617.656 120.103 613.504 121.421 594.82C121.798 589.913 122.174 584.439 124.433 581.608C127.257 578.211 132.528 578.023 135.163 578.023H140.434V628.036H165.283V578.023H170.554C173.19 578.023 178.461 578.211 181.285 581.608C183.732 584.251 183.92 589.724 184.297 594.82C185.614 613.504 187.12 617.656 188.25 619.921C192.391 628.036 201.427 628.98 207.64 628.98C210.652 628.98 212.722 628.98 215.734 628.036V606.709C213.664 607.276 211.969 606.898 210.84 604.633C209.899 602.746 209.71 600.481 208.769 592.177C208.204 587.27 207.828 581.608 205.381 576.701C201.616 569.718 194.65 567.831 190.885 567.265V566.699C193.897 565.755 197.286 564.057 199.357 561.792C202.933 558.017 203.498 553.865 203.875 550.468C204.816 543.108 204.816 542.353 205.192 536.879C206.134 529.519 209.522 529.519 210.84 529.519H212.158V510.457C209.522 509.514 207.64 509.514 204.063 509.514C200.298 509.514 194.65 509.514 190.132 512.533C187.873 514.043 185.05 516.874 183.732 521.97C182.979 524.235 182.791 527.254 181.849 536.691C181.096 544.806 180.908 548.203 180.343 551.223C179.779 553.676 177.896 558.395 170.366 558.395H165.095V510.457H140.623V558.395H135.352C127.822 558.395 125.939 553.676 125.374 551.223C124.621 548.203 124.433 544.806 123.868 536.691C122.927 527.254 122.739 524.235 121.986 521.97C120.668 516.874 117.656 514.043 115.585 512.533C111.067 509.514 105.42 509.514 101.655 509.514C98.2664 509.514 96.3839 509.702 93.5602 510.457V529.519H94.8779C96.1957 529.708 99.5842 529.708 100.525 537.068Z" fill="#EFE4D7" fill-opacity="0.38"/>
<path d="M38.5913 68.0751H66.6406V116.201H92.2426V-1H66.6406V46.1824H38.5913V-1H12.9893V116.201H38.5913V68.0751Z" fill="#EFE4D7" fill-opacity="0.38"/>
<path d="M207.075 457.424H232.677V361.927H256.773V340.034H183.544V361.927H207.075V457.424Z" fill="#EFE4D7" fill-opacity="0.38"/>
<path d="M514.486 169.612L549.877 255.484C549.124 259.258 547.242 262.278 544.983 263.976C541.971 266.619 538.582 266.619 535.382 266.619C531.805 266.619 528.793 266.241 525.593 265.675V286.813C529.735 287.945 533.688 288.7 538.394 288.7C545.924 288.7 554.772 287.568 561.172 281.34C564.561 278.131 568.891 271.903 574.915 253.974L603.529 169.612H579.809L563.055 225.853H562.302L542.724 169.612H514.486Z" fill="#EFE4D7" fill-opacity="0.38"/>
<path d="M225.523 627.847H296.87V607.653H251.125V578.023H286.705V558.017H251.125V530.84H296.87V510.646H225.523V627.847Z" fill="#EFE4D7" fill-opacity="0.38"/>
<path d="M355.792 169.612L320.777 286.813H344.497L350.144 262.467H383.088L388.924 286.813H415.091L381.582 169.612H355.792ZM355.227 242.273L366.522 194.524L378.382 242.273H355.227Z" fill="#EFE4D7" fill-opacity="0.38"/>
<path d="M299.506 398.729C299.506 414.96 301.012 434.777 313.625 447.799C323.037 457.613 334.332 459.312 342.05 459.312C369.347 459.312 384.595 439.118 384.595 398.729C384.595 388.349 383.654 363.437 370.476 349.66C364.64 343.62 355.793 338.147 342.05 338.147C334.144 338.147 323.037 339.846 313.625 349.66C301.012 362.682 299.506 382.499 299.506 398.729ZM331.32 365.89C334.144 361.172 338.097 359.474 342.239 359.474C345.062 359.474 350.145 360.417 353.345 365.89C354.663 368.155 357.675 374.572 357.675 398.729C357.675 422.509 355.04 429.115 353.345 431.757C351.463 434.777 347.886 438.174 342.239 438.174C339.038 438.174 334.52 437.23 331.32 431.757C329.061 428.171 326.802 420.622 326.802 398.729C326.802 377.026 329.061 369.665 331.32 365.89Z" fill="#EFE4D7" fill-opacity="0.38"/>
<path d="M650.403 96.1958H604.659V66.5652H640.238V46.3711H604.659V19.1941H650.403V-1H579.057V116.201H650.403V96.1958Z" fill="#EFE4D7" fill-opacity="0.38"/>
</svg>
