<svg width="784" height="675" viewBox="0 0 784 675" fill="none" xmlns="http://www.w3.org/2000/svg">
<g clip-path="url(#clip0)">
<mask id="mask0" mask-type="alpha" maskUnits="userSpaceOnUse" x="118" y="54" width="541" height="541">
<rect x="118" y="54" width="541" height="541" rx="270.5" fill="#EFE4D7"/>
</mask>
<g mask="url(#mask0)">
<path d="M651.602 191.316H675.133V286.813H700.546V191.316H724.642V169.612H651.602V191.316Z" fill="#EFE4D7" fill-opacity="0.38"/>
<path d="M470.504 627.847V510.646H392.004V627.847H417.606V532.539H444.902V627.847H470.504Z" fill="#EFE4D7" fill-opacity="0.38"/>
<path d="M651.978 340.034H627.693V457.236H651.978V340.034Z" fill="#EFE4D7" fill-opacity="0.38"/>
<path d="M592.491 515.176C587.22 518.761 578.937 527.065 577.054 544.995L599.268 547.637C599.456 542.919 601.15 537.257 604.35 534.048C606.045 532.35 609.433 529.896 615.457 529.896C620.352 529.896 623.552 531.406 625.811 533.482C628.823 536.502 629.199 540.088 629.199 543.296C629.199 546.882 628.635 550.279 626.187 553.299C622.799 557.074 618.092 557.451 614.139 557.451H603.786V577.645H615.457C618.093 577.645 623.74 577.834 627.129 581.42C629.576 584.062 630.894 588.214 630.894 593.498C630.894 598.028 629.764 601.614 627.882 604.067C624.493 608.219 619.222 608.597 615.645 608.597C611.127 608.597 604.539 607.842 601.338 600.67C600.021 597.462 599.268 592.555 599.268 589.535L575.736 591.611C576.113 603.124 579.125 614.447 588.161 621.996C596.444 628.791 606.233 629.734 616.21 629.734C625.811 629.734 637.482 629.168 646.895 620.487C655.931 612.183 657.06 601.047 657.06 594.064C657.06 586.893 655.931 580.476 650.66 574.814C646.142 569.907 641.435 568.02 637.67 567.076V566.699C644.824 564.811 649.154 560.282 651.224 556.696C653.672 552.355 654.989 545.938 654.989 541.22C654.989 530.463 650.283 521.592 643.883 516.497C636.164 510.08 625.811 508.947 617.716 508.947C610.751 508.759 600.585 509.514 592.491 515.176Z" fill="#EFE4D7" fill-opacity="0.38"/>
<path d="M603.22 389.859C594.184 383.254 581.383 382.876 573.289 382.876H562.37V340.223H538.086V457.424H575.171C584.019 457.424 593.996 457.424 602.844 451.196C615.457 442.326 616.21 428.549 616.21 421C616.21 413.828 615.457 398.918 603.22 389.859ZM585.148 434.211C582.136 436.098 577.054 437.042 573.1 437.042H562.558V402.882H573.1C577.054 402.882 581.948 403.07 585.713 405.901C590.42 409.676 590.984 415.715 590.984 420.245C590.984 425.152 590.796 430.625 585.148 434.211Z" fill="#EFE4D7" fill-opacity="0.38"/>
<path d="M479.729 245.67C478.223 251.332 475.211 259.447 472.952 265.675H463.916V311.536H486.883V287.001H540.157V311.536H563.124V265.675H551.641V169.612H486.506V181.124C486.506 187.918 486.694 201.318 485 217.549C484.059 226.608 482.365 236.799 479.729 245.67ZM504.39 236.611C507.025 221.135 507.59 205.282 507.778 199.431L507.967 190.749H526.227V265.675H496.107C500.625 254.351 502.696 245.858 504.39 236.611Z" fill="#EFE4D7" fill-opacity="0.38"/>
<path d="M364.142 311.348V265.486H352.659V169.612H287.525V181.124C287.525 187.918 287.713 201.318 286.019 217.549C285.077 226.797 283.383 236.988 280.748 245.67C279.242 251.332 276.23 259.447 273.971 265.675H264.935V311.536H287.901V287.001H341.176V311.536H364.142V311.348ZM327.057 265.675H296.937C301.455 254.351 303.526 246.047 305.22 236.611C307.856 221.135 308.42 205.282 308.609 199.431L308.797 190.749H327.057V265.675Z" fill="#EFE4D7" fill-opacity="0.38"/>
<path d="M525.662 629.734C552.958 629.734 568.206 609.54 568.206 569.152C568.206 558.772 567.265 533.86 554.087 520.083C548.252 514.043 539.404 508.57 525.662 508.57C517.755 508.57 506.648 510.269 497.236 520.083C484.623 533.105 483.117 552.922 483.117 569.152C483.117 585.383 484.623 605.2 497.236 618.222C506.648 628.036 517.755 629.734 525.662 629.734ZM514.743 536.313C517.567 531.595 521.52 529.896 525.662 529.896C528.485 529.896 533.568 530.84 536.769 536.313C538.086 538.578 541.098 544.995 541.098 569.152C541.098 592.932 538.463 599.538 536.769 602.18C534.886 605.2 531.309 608.597 525.662 608.597C522.461 608.597 517.943 607.653 514.743 602.18C512.484 598.594 510.225 591.045 510.225 569.152C510.413 547.448 512.484 540.088 514.743 536.313Z" fill="#EFE4D7" fill-opacity="0.38"/>
<path d="M225.967 266.619H180.411V236.988H215.802V216.794H180.411V189.617H225.967V169.612H154.809V286.813H225.967V266.619Z" fill="#EFE4D7" fill-opacity="0.38"/>
<path d="M253.075 116.201H278.677V20.8926H302.773V-1H229.544V20.8926H253.075V116.201Z" fill="#EFE4D7" fill-opacity="0.38"/>
<path d="M225.967 96.1958H180.411V66.5652H215.802V46.3711H180.411V19.1941H225.967V-1H154.809V116.201H225.967V96.1958Z" fill="#EFE4D7" fill-opacity="0.38"/>
<path d="M443.396 457.424H468.999V361.927H496.295V457.424H521.897V340.034H443.396V457.424Z" fill="#EFE4D7" fill-opacity="0.38"/>
<path d="M519.26 96.1958H473.704V66.5652H509.095V46.3711H473.704V19.1941H519.26V-1H448.102V116.201H519.26V96.1958Z" fill="#EFE4D7" fill-opacity="0.38"/>
<path d="M362.636 116.201H415.911V140.736H438.878V95.0634H427.395V-1H362.26V10.5125C362.26 17.3068 362.448 30.7066 360.754 46.9373C359.813 56.1851 358.118 66.3765 355.483 75.058C353.977 80.7199 350.965 88.8353 348.706 95.0634H339.67V140.925H362.636V116.201ZM379.955 65.999C382.591 50.5232 383.156 34.6699 383.344 28.8193L383.532 20.1377H401.792V95.0634H371.672C376.19 83.7396 378.261 75.4355 379.955 65.999Z" fill="#EFE4D7" fill-opacity="0.38"/>
<path d="M554.84 68.0751H583.077V116.201H608.679V-1H583.077V46.1824H554.84V-1H529.426V116.201H554.84V68.0751Z" fill="#EFE4D7" fill-opacity="0.38"/>
<path d="M84.5913 409.11H112.641V457.424H138.243V340.034H112.641V387.217H84.5913V340.034H58.9893V457.424H84.5913V409.11Z" fill="#EFE4D7" fill-opacity="0.38"/>
<path d="M76.4965 605.011C73.4845 607.653 70.096 607.653 66.8958 607.653C63.319 607.653 60.307 607.276 57.1068 606.709V627.847C61.2483 628.98 65.2015 629.735 69.9078 629.735C77.4378 629.735 86.2855 628.602 92.686 622.374C96.0745 619.166 100.404 612.938 106.428 595.008L135.042 510.646H111.699L94.945 566.888H94.192L74.614 510.646H46L81.391 596.518C80.8263 600.104 78.7555 603.312 76.4965 605.011Z" fill="#EFE4D7" fill-opacity="0.38"/>
<path d="M225.967 437.23H180.411V407.6H215.802V387.406H180.411V360.229H225.967V340.034H154.809V457.424H225.967V437.23Z" fill="#EFE4D7" fill-opacity="0.38"/>
<path d="M84.5913 238.687H112.641V286.813H138.243V169.612H112.641V216.794H84.5913V169.612H58.9893V286.813H84.5913V238.687Z" fill="#EFE4D7" fill-opacity="0.38"/>
<path d="M146.525 537.068C147.09 542.353 146.902 543.296 147.843 550.657C148.408 554.054 148.784 558.206 152.361 561.981C154.62 564.434 157.82 566.133 160.832 566.887V567.454C157.067 568.02 150.102 569.907 146.337 576.89C143.702 581.608 143.513 587.27 142.949 592.366C142.007 600.67 142.007 602.935 140.878 604.822C139.748 607.087 138.054 607.464 135.983 606.898V628.036C138.807 628.98 140.878 628.98 144.078 628.98C150.479 628.98 159.515 628.036 163.468 619.921C164.409 617.656 166.103 613.504 167.421 594.82C167.798 589.913 168.174 584.439 170.433 581.608C173.257 578.211 178.528 578.023 181.163 578.023H186.434V628.036H211.283V578.023H216.554C219.19 578.023 224.461 578.211 227.285 581.608C229.732 584.251 229.92 589.724 230.297 594.82C231.614 613.504 233.12 617.656 234.25 619.921C238.391 628.036 247.427 628.98 253.64 628.98C256.652 628.98 258.722 628.98 261.734 628.036V606.709C259.664 607.276 257.969 606.898 256.84 604.633C255.899 602.746 255.71 600.481 254.769 592.177C254.204 587.27 253.828 581.608 251.381 576.701C247.616 569.718 240.65 567.831 236.885 567.265V566.699C239.897 565.755 243.286 564.057 245.357 561.792C248.933 558.017 249.498 553.865 249.875 550.468C250.816 543.108 250.816 542.353 251.192 536.879C252.134 529.519 255.522 529.519 256.84 529.519H258.158V510.457C255.522 509.514 253.64 509.514 250.063 509.514C246.298 509.514 240.65 509.514 236.132 512.533C233.873 514.043 231.05 516.874 229.732 521.97C228.979 524.235 228.791 527.254 227.849 536.691C227.096 544.806 226.908 548.203 226.343 551.223C225.779 553.676 223.896 558.395 216.366 558.395H211.095V510.457H186.623V558.395H181.352C173.822 558.395 171.939 553.676 171.374 551.223C170.621 548.203 170.433 544.806 169.868 536.691C168.927 527.254 168.739 524.235 167.986 521.97C166.668 516.874 163.656 514.043 161.585 512.533C157.067 509.514 151.42 509.514 147.655 509.514C144.266 509.514 142.384 509.702 139.56 510.457V529.519H140.878C142.196 529.708 145.584 529.708 146.525 537.068Z" fill="#EFE4D7" fill-opacity="0.38"/>
<path d="M84.5913 68.0751H112.641V116.201H138.243V-1H112.641V46.1824H84.5913V-1H58.9893V116.201H84.5913V68.0751Z" fill="#EFE4D7" fill-opacity="0.38"/>
<path d="M253.075 457.424H278.677V361.927H302.773V340.034H229.544V361.927H253.075V457.424Z" fill="#EFE4D7" fill-opacity="0.38"/>
<path d="M560.486 169.612L595.877 255.484C595.124 259.258 593.242 262.278 590.983 263.976C587.971 266.619 584.582 266.619 581.382 266.619C577.805 266.619 574.793 266.241 571.593 265.675V286.813C575.735 287.945 579.688 288.7 584.394 288.7C591.924 288.7 600.772 287.568 607.172 281.34C610.561 278.131 614.891 271.903 620.915 253.974L649.529 169.612H625.809L609.055 225.853H608.302L588.724 169.612H560.486Z" fill="#EFE4D7" fill-opacity="0.38"/>
<path d="M271.523 627.847H342.87V607.653H297.125V578.023H332.705V558.017H297.125V530.84H342.87V510.646H271.523V627.847Z" fill="#EFE4D7" fill-opacity="0.38"/>
<path d="M401.792 169.612L366.777 286.813H390.497L396.144 262.467H429.088L434.924 286.813H461.091L427.582 169.612H401.792ZM401.227 242.273L412.522 194.524L424.382 242.273H401.227Z" fill="#EFE4D7" fill-opacity="0.38"/>
<path d="M345.506 398.729C345.506 414.96 347.012 434.777 359.625 447.799C369.037 457.613 380.332 459.312 388.05 459.312C415.347 459.312 430.595 439.118 430.595 398.729C430.595 388.349 429.654 363.437 416.476 349.66C410.64 343.62 401.793 338.147 388.05 338.147C380.144 338.147 369.037 339.846 359.625 349.66C347.012 362.682 345.506 382.499 345.506 398.729ZM377.32 365.89C380.144 361.172 384.097 359.474 388.239 359.474C391.062 359.474 396.145 360.417 399.345 365.89C400.663 368.155 403.675 374.572 403.675 398.729C403.675 422.509 401.04 429.115 399.345 431.757C397.463 434.777 393.886 438.174 388.239 438.174C385.038 438.174 380.52 437.23 377.32 431.757C375.061 428.171 372.802 420.622 372.802 398.729C372.802 377.026 375.061 369.665 377.32 365.89Z" fill="#EFE4D7" fill-opacity="0.38"/>
<path d="M696.403 96.1958H650.659V66.5652H686.238V46.3711H650.659V19.1941H696.403V-1H625.057V116.201H696.403V96.1958Z" fill="#EFE4D7" fill-opacity="0.38"/>
</g>
</g>
<defs>
<clipPath id="clip0">
<rect width="784" height="675" fill="white"/>
</clipPath>
</defs>
</svg>
