<svg width="46" height="46" viewBox="0 0 46 46" fill="none" xmlns="http://www.w3.org/2000/svg">
<path d="M0 39.7105C0.509918 38.2661 1.72155 37.5907 3.0057 37.0251C4.73711 36.2847 6.55726 35.7717 8.42066 35.4988C10.4697 35.1786 12.5304 34.9379 14.5864 34.6598C14.6402 34.6598 14.694 34.6341 14.7923 34.6107C14.1561 33.9539 13.5339 33.3393 12.9421 32.6965C10.7784 30.3453 8.98672 27.7486 7.78444 24.7733C7.05255 22.9784 6.57391 21.0906 6.36228 19.164C6.07457 16.4645 6.27105 13.8234 7.18562 11.2618C8.93057 6.37702 12.1959 2.88988 17.0869 1.12761C22.7288 -0.903437 28.1156 -0.202271 33.0043 3.3246C36.4825 5.83478 38.6064 9.29855 39.4274 13.5009C40.2882 17.9182 39.542 22.1346 37.5982 26.164C36.1036 29.2631 33.9984 31.9019 31.5307 34.2695C31.4254 34.37 31.3272 34.4822 31.1775 34.6388C31.9564 34.7229 32.6768 34.7837 33.3926 34.8725C36.6837 35.2955 39.963 35.7723 43.0506 37.0765C43.9091 37.4387 44.7254 37.8828 45.3499 38.598C46.2668 39.6451 46.206 40.8534 45.2166 41.8327C44.1617 42.8751 42.8214 43.3893 41.453 43.8311C39.3374 44.4721 37.1704 44.9296 34.9761 45.1983C31.9244 45.6102 28.8526 45.8567 25.7742 45.9369C25.5076 45.9369 25.2456 45.979 24.9813 46H20.7569C20.5075 45.9591 20.2561 45.9311 20.0037 45.9159C16.3739 45.8498 12.754 45.5146 9.17383 44.9132C6.96575 44.5392 4.77638 44.0671 2.72969 43.1182C1.53443 42.5619 0.437409 41.8841 0.00234136 40.5239L0 39.7105ZM8.1353 16.9062C8.18442 17.7149 8.18909 18.4675 8.28499 19.2061C8.60345 21.6725 9.39782 24.0537 10.6241 26.2177C13.5198 31.3456 17.791 35.0781 22.7732 38.0768C22.8474 38.1089 22.9276 38.1245 23.0084 38.1225C23.0892 38.1204 23.1686 38.1009 23.241 38.0651C27.1496 35.7419 30.6068 32.8999 33.3715 29.2678C36.3001 25.4231 38.0169 21.1506 37.8158 16.2378C37.7463 13.6839 36.9979 11.1945 35.6475 9.0251C32.9201 4.69188 28.9694 2.34531 23.8492 2.01342C20.7673 1.76727 17.69 2.54091 15.0917 4.21508C10.4931 7.1857 8.29201 11.5213 8.14465 16.9062H8.1353ZM22.9884 44.1466C25.6011 44.0157 28.1577 43.9129 30.7073 43.7493C33.4424 43.5807 36.1588 43.1859 38.8286 42.569C40.4005 42.2043 41.9606 41.7907 43.3711 40.968C44.3067 40.421 44.3441 39.8858 43.3991 39.3857C42.492 38.8999 41.5403 38.5023 40.5572 38.1983C36.9082 37.0835 33.1306 36.7095 29.346 36.408C29.1755 36.4196 29.0124 36.4823 28.8782 36.588C27.1629 37.7239 25.4475 38.8652 23.7322 40.012C23.5264 40.1651 23.2766 40.2478 23.02 40.2478C22.7634 40.2478 22.5136 40.1651 22.3077 40.012C20.7242 38.965 19.1266 37.9412 17.5641 36.8638C17.0963 36.5366 16.715 36.3379 16.0694 36.4408C14.0064 36.7656 11.9129 36.9082 9.84749 37.2097C7.67449 37.5346 5.53425 38.0277 3.51329 38.9205C3.04017 39.14 2.59558 39.4163 2.18937 39.7433C1.85254 40.005 1.86424 40.2925 2.18937 40.5753C2.45711 40.8346 2.76822 41.045 3.10862 41.197C4.35546 41.69 5.62642 42.1199 6.91664 42.4848C9.67949 43.1682 12.5002 43.5923 15.342 43.7516C17.9079 43.9129 20.4786 44.018 22.9978 44.1466H22.9884Z" fill="#D5604F"/>
<path d="M30.9999 14.5191C30.9999 18.6122 27.6035 22.0263 23.5327 21.9998C22.5374 22.0015 21.5516 21.8056 20.6326 21.4236C19.7136 21.0416 18.8796 20.4811 18.179 19.7745C17.4783 19.0679 16.925 18.2293 16.551 17.3073C16.177 16.3853 15.9899 15.3983 16.0004 14.4035C16.0224 12.4732 16.7894 10.626 18.1413 9.24743C19.4931 7.86882 21.3254 7.06531 23.2557 7.00461C24.2631 6.96924 25.2673 7.13772 26.2079 7.49994C27.1486 7.86217 28.0063 8.41066 28.7296 9.1125C29.4529 9.81433 30.0268 10.655 30.417 11.5841C30.8071 12.5132 31.0054 13.5115 30.9999 14.5191ZM23.5158 8.98134C22.787 8.97687 22.0646 9.11705 21.3904 9.39376C20.7162 9.67048 20.1037 10.0782 19.5883 10.5933C19.073 11.1085 18.6651 11.7207 18.3882 12.3946C18.1114 13.0685 17.9711 13.7906 17.9756 14.5191C17.9756 17.4637 20.4687 19.9894 23.3978 19.9966C24.1261 20.0103 24.8499 19.88 25.5276 19.6131C26.2053 19.3462 26.8235 18.9479 27.3466 18.4413C27.8698 17.9347 28.2876 17.3297 28.576 16.6612C28.8644 15.9926 29.0177 15.2736 29.0271 14.5456C29.0338 13.8181 28.8961 13.0966 28.6221 12.4226C28.3481 11.7487 27.9431 11.1357 27.4306 10.6192C26.9181 10.1027 26.3082 9.69281 25.6363 9.41334C24.9643 9.13386 24.2436 8.99031 23.5158 8.99097V8.98134Z" fill="#D5604F"/>
</svg>
