<svg width="189" height="59" viewBox="0 0 189 59" fill="none" xmlns="http://www.w3.org/2000/svg">
<path d="M0.00204917 46.8503C0.00204917 43.7386 0.0462144 40.6268 0.00204917 37.5151C-0.0421161 35.9409 0.620362 35.1721 2.69613 35.1721C9.45341 35.2453 16.2107 35.2087 22.968 35.1721C24.9996 35.1721 25.6179 35.9043 25.6179 37.5151C25.6179 39.1991 24.8229 39.7848 22.8355 39.7848C18.2865 39.7116 13.7374 39.858 9.18842 39.7116C6.89182 39.6384 7.42181 40.8099 7.37764 41.7983C7.33348 42.8599 7.11265 43.8118 9.18842 43.702C12.0592 43.5555 14.9299 43.5921 17.8006 43.702C24.6904 43.9216 28.4886 47.436 27.3845 52.6345C26.722 55.7096 24.0279 57.8695 19.6997 58.2356C13.7816 58.7115 7.81929 58.382 1.85699 58.4186C0.311206 58.4186 0.00204917 57.4668 0.00204917 56.3686C0.00204917 53.1836 0.00204917 49.9986 0.00204917 46.8503ZM12.8983 53.8426C14.4441 53.806 15.9899 53.9158 17.4915 53.806C19.4347 53.6595 20.2297 52.5613 20.2297 51.0237C20.1856 49.4861 19.3906 48.3879 17.4031 48.3513C14.4882 48.278 11.5292 48.3146 8.61427 48.278C7.81929 48.278 7.46597 48.4611 7.37764 49.1933C6.71516 53.6595 6.89183 53.8426 12.2358 53.8426C12.4566 53.8426 12.6775 53.8426 12.8983 53.8426Z" fill="#472017"/>
<path d="M52.3378 42.5671C50.4829 45.3127 48.6279 48.0218 46.773 50.7674C45.448 52.7443 44.1231 54.6845 42.7981 56.6614C42.0032 57.8329 40.899 58.4552 39.2208 58.4186C37.3658 58.382 35.555 58.382 33.7001 58.4186C32.2427 58.4186 31.536 57.8329 31.536 56.6248C31.536 50.1085 31.536 43.5921 31.536 37.0758C31.536 35.7945 32.2868 35.1721 33.8326 35.2087C34.4951 35.2453 35.1576 35.2453 35.82 35.2087C37.94 35.0623 38.6908 35.9043 38.6908 37.5883C38.6466 41.8715 38.6466 46.1181 38.6908 50.4013C38.6908 50.9871 38.4699 51.5728 38.9999 52.3416C42.0473 47.9119 45.0064 43.5921 47.9655 39.2723C48.0096 39.2357 48.0096 39.1625 48.0538 39.0892C50.7037 35.1721 52.9561 34.2935 58.256 35.2087C59.4926 35.4284 59.9342 36.0873 59.9342 37.0758C59.9342 43.5189 59.9342 49.9986 59.9342 56.4418C59.9342 57.7231 59.2718 58.382 57.6818 58.382C57.3727 58.382 57.1077 58.382 56.7985 58.382C52.8678 58.4186 52.8236 58.3454 52.8236 55.1605C52.8236 50.9871 52.8236 46.8137 52.8236 42.6403C52.647 42.6403 52.5145 42.6037 52.3378 42.5671Z" fill="#472017"/>
<path d="M78.042 58.5651C74.5088 58.6383 70.7548 58.7481 67.3982 56.9543C65.9849 56.2221 64.7483 55.3435 64.1741 54.0256C63.6442 52.8541 62.9817 51.5362 64.7041 50.5478C65.9407 49.8522 69.209 50.1817 70.004 51.1335C70.9756 52.2684 71.7706 53.6595 73.6697 53.8059C76.9379 54.0256 80.2944 54.2818 83.5185 53.6229C84.976 53.33 85.2851 52.2684 85.1526 51.1335C85.0201 49.8888 84.0927 49.2298 82.7235 49.1566C80.8244 49.0468 78.8812 49.0102 76.9821 49.0468C75.083 49.0834 74.0671 48.5343 74.0671 46.8503C74.0671 45.2029 74.9063 44.5439 76.8937 44.6172C78.6603 44.6904 80.4269 44.7636 82.1936 44.4707C83.7393 44.2145 84.7551 43.5921 84.7551 42.1644C84.7993 40.7366 83.8277 40.0045 82.2819 39.8214C79.632 39.4919 76.9821 39.5651 74.3763 39.7482C72.9189 39.858 71.9031 40.6634 71.1081 41.7251C70.0481 43.1162 67.2215 43.7019 65.4549 43.0064C64.66 42.6769 64.3066 42.1278 64.2625 41.3956C64.2625 40.1875 64.7925 39.1258 65.7199 38.2106C66.5149 37.4052 67.5307 36.7097 68.679 36.3436C75.1271 34.3667 81.7077 34.3301 88.0234 36.3436C92.2191 37.6615 93.4557 42.7135 90.7174 45.6788C89.9666 46.4842 89.6575 46.8503 90.7616 47.7655C94.3832 50.7674 92.4399 56.515 87.405 57.9061C84.446 58.7115 81.3544 58.6017 78.042 58.5651Z" fill="#472017"/>
<path d="M130.157 46.7771C130.157 43.5921 130.201 40.4438 130.157 37.2588C130.113 35.7579 130.908 35.1721 132.674 35.1721C139.741 35.2087 146.807 35.2087 153.874 35.1721C155.729 35.1721 156.259 35.9409 156.303 37.3686C156.303 38.7964 155.905 39.7848 153.918 39.7482C149.192 39.7116 144.511 39.7848 139.785 39.7116C138.195 39.675 137.4 39.8946 137.488 41.4688C137.621 44.4707 137.488 44.4707 141.066 44.4707C144.467 44.4707 147.823 44.4707 151.224 44.4707C153.167 44.4341 154.006 45.1297 154.006 46.7771C154.006 48.3879 153.255 49.12 151.268 49.12C147.293 49.0834 143.318 49.1566 139.343 49.0834C137.886 49.0468 137.488 49.4495 137.533 50.621C137.577 53.8792 137.488 53.8792 141.507 53.8792C145.571 53.8792 149.59 53.9158 153.653 53.8792C155.552 53.8426 156.303 54.5381 156.303 56.0757C156.303 57.6133 155.729 58.4919 153.653 58.4553C146.719 58.4186 139.829 58.4186 132.895 58.4553C130.908 58.4553 130.157 57.7597 130.201 56.1489C130.245 53.0006 130.157 49.8888 130.157 46.7771Z" fill="#472017"/>
<path d="M96.5914 46.7403C96.5914 43.6286 96.6356 40.5169 96.5914 37.4051C96.5472 35.8676 97.2097 35.2086 99.153 35.172C103.879 35.0988 103.835 35.0622 103.923 39.0525C103.967 40.6633 103.04 42.8232 104.364 43.775C105.513 44.5804 108.03 44.0313 109.929 44.0313C111.828 44.0313 113.772 43.9581 115.671 44.0679C117.084 44.1411 117.437 43.6652 117.349 42.6036C117.261 40.7731 117.349 38.9427 117.305 37.1123C117.305 35.831 118.012 35.2818 119.557 35.2086C124.371 35.0256 124.548 35.1354 124.548 39.0525C124.548 44.6537 124.548 50.2548 124.548 55.8559C124.548 58.1623 124.239 58.3819 121.545 58.4185C120.971 58.4185 120.352 58.3819 119.778 58.4185C118.012 58.4917 117.217 57.8694 117.261 56.3684C117.305 54.2451 117.217 52.0852 117.305 49.9619C117.349 48.9003 116.907 48.6074 115.671 48.6074C112.27 48.6806 108.914 48.6806 105.513 48.6074C104.055 48.5708 103.79 49.0467 103.835 50.1083C103.923 52.2317 103.835 54.355 103.879 56.5149C103.923 57.8328 103.172 58.3453 101.626 58.4185C96.8122 58.6382 96.5914 58.4917 96.5914 54.5746C96.5914 51.9754 96.5914 49.3396 96.5914 46.7403Z" fill="#472017"/>
<path d="M23.5421 0.79651C27.3844 0.79651 31.1827 0.869727 35.025 0.759901C37.0566 0.723293 37.9841 1.30903 37.9399 3.10286C37.8516 9.32633 37.8958 15.5498 37.9399 21.7733C37.9399 23.4573 37.145 24.1528 35.1575 24.0064C34.495 23.9698 33.8326 23.9698 33.1701 24.0064C31.2268 24.1162 30.5643 23.3475 30.6085 21.8099C30.6527 16.8677 30.5643 11.9255 30.6527 6.98338C30.6527 5.73868 30.3435 5.26277 28.7094 5.29938C25.2645 5.4092 21.7755 5.4092 18.3306 5.29938C16.564 5.22616 16.299 5.77529 16.299 7.0932C16.3873 11.9255 16.3431 16.7213 16.3431 21.5536C16.3431 23.7502 16.034 23.9698 13.4282 24.0064C12.8983 24.0064 12.4124 23.9698 11.8825 24.0064C9.76253 24.1895 9.01172 23.3841 9.01172 21.6635C9.10005 15.5132 9.01172 9.32633 9.05588 3.17607C9.05588 1.05277 9.40921 0.79651 12.0591 0.79651C15.9015 0.759901 19.6997 0.79651 23.5421 0.79651Z" fill="#472017"/>
<path d="M174.234 35.0989C177.326 35.0623 180.417 35.0257 183.288 36.2704C185.54 37.2222 187.307 38.5767 187.925 40.6634C188.234 41.7617 188.632 43.0064 187.086 43.7752C185.761 44.4341 182.36 44.1047 181.786 43.0796C179.136 38.2839 174.19 39.6018 169.729 39.9679C167.609 40.1509 166.417 41.4688 165.975 43.1528C165.357 45.4958 165.357 47.8754 165.931 50.2549C166.461 52.4514 167.83 53.6229 170.524 53.806C172.776 53.989 175.073 53.9524 177.37 53.8792C179.313 53.8426 180.682 52.8541 181.433 51.4264C182.493 49.3763 184.569 49.4129 187.086 49.7424C188.058 49.8522 188.499 50.5112 188.543 51.3532C188.632 53.0372 187.881 54.4649 186.556 55.673C185.761 56.4052 184.789 57.0275 183.685 57.357C177.061 59.2241 170.303 59.4437 163.943 56.8811C158.909 54.831 158.158 50.6576 158.202 46.5208C158.246 42.3841 159.394 38.6134 164.297 36.4901C167.477 35.1355 170.833 35.0623 174.234 35.0989Z" fill="#472017"/>
<path d="M49.8204 23.6037C49.8204 25.1047 49.7321 26.4226 49.8204 27.7405C49.9088 29.0218 49.2463 29.4611 47.7447 29.4245C42.3124 29.3513 43.1073 29.8638 43.1073 25.6904C43.0632 20.0161 43.0632 14.3417 43.1073 8.66737C43.1073 7.86198 42.5774 6.6905 43.8581 6.39763C45.4481 6.06815 47.568 5.66546 48.7163 6.61728C49.8204 7.5325 50.3504 7.0932 51.1896 6.76372C56.4894 4.75024 62.4517 6.17798 64.6599 10.1683C66.4265 13.3533 66.4265 16.7213 64.6599 19.9428C62.7608 23.4207 58.0793 24.9948 52.6028 24.0796C51.7195 24.0064 50.8804 23.8234 49.8204 23.6037ZM49.8646 15.5132C49.8646 16.5016 49.9971 17.4535 49.8204 18.4419C49.6438 19.6866 50.4388 19.9795 51.6312 20.1991C56.666 21.0777 58.8301 19.65 58.9185 15.4034C58.9185 14.6346 58.8301 13.8292 58.6976 13.0604C58.256 10.7907 56.6219 9.72902 53.972 9.94867C50.9246 10.2049 49.8204 11.1568 49.8204 13.5363C49.8204 14.1587 49.8204 14.8542 49.8646 15.5132Z" fill="#472017"/>
<path d="M86.6542 24.5555C82.9885 24.5555 79.2786 24.5921 75.6129 24.5555C71.9913 24.5189 70.1806 23.0545 70.1364 20.0526C70.0922 16.7578 70.0922 13.463 70.1364 10.1683C70.1806 7.75209 71.903 5.99487 74.6412 6.06809C77.0703 6.1413 78.3511 5.22609 79.3669 3.76174C80.5594 2.04113 82.1493 1.23574 84.5784 1.60183C85.2409 1.71165 85.9034 1.67504 86.5659 1.60183C90.1874 1.23574 93.3673 1.63844 95.0456 4.86C95.5314 5.73861 96.5472 5.99487 97.7838 6.03148C101.052 6.10469 102.775 7.60565 102.819 10.3147C102.863 13.6095 102.863 16.9043 102.819 20.199C102.775 23.0545 100.964 24.5555 97.4747 24.5921C93.8973 24.5555 90.2757 24.5555 86.6542 24.5555ZM86.6542 22.1027C89.6574 22.1027 92.7048 22.1393 95.7081 22.1027C98.5347 22.0661 99.7713 21.0776 99.8154 18.8079C99.8596 16.4283 99.8596 14.0488 99.8154 11.6692C99.7713 9.36287 98.5788 8.30122 95.7522 8.26461C89.6574 8.228 83.5626 8.228 77.4237 8.26461C74.7737 8.30122 73.493 9.32626 73.4046 11.5228C73.3163 13.9756 73.3163 16.3917 73.4046 18.8445C73.4488 21.0776 74.7296 22.0661 77.3795 22.1027C80.4711 22.1027 83.5626 22.0661 86.6542 22.1027ZM79.0136 5.81183C83.9601 5.81183 88.9066 5.81183 93.9415 5.81183C91.7774 3.43226 91.7774 3.43226 88.6416 3.50548C87.8467 3.50548 87.0075 3.43226 86.2125 3.5787C83.6951 4.018 80.4711 2.91974 79.0136 5.81183Z" fill="#BA8D61"/>
<path d="M164.827 24.336C155.552 24.336 150.782 19.1375 153.255 11.889C154.448 8.44779 157.539 6.47092 162.618 6.03162C164.738 5.84857 166.902 5.9584 168.978 6.3977C172.6 7.20309 174.985 9.10675 175.912 12.1819C177.502 17.4901 174.985 22.2127 169.817 23.7136C168.139 24.1895 166.372 24.336 164.827 24.336ZM169.641 15.2204C169.508 14.3418 169.508 13.4998 169.243 12.6578C168.625 10.4979 167.035 9.54605 164.297 9.61927C161.823 9.69248 160.278 10.7907 159.792 12.914C159.439 14.415 159.439 15.9526 159.836 17.4535C160.366 19.5402 161.779 20.5287 164.208 20.6385C167.035 20.7483 168.581 19.9063 169.243 17.7464C169.464 16.9044 169.508 16.0258 169.641 15.2204Z" fill="#472017"/>
<path d="M118.365 24.336C116.907 24.3726 115.229 24.2627 113.595 23.86C110.415 23.0913 108.207 21.4805 107.147 18.808C105.071 13.6828 107.412 8.30135 112.623 6.72718C116.863 5.44587 121.147 5.62892 125.343 7.02005C127.551 7.75222 128.92 9.10674 129.053 11.1934C129.097 12.1087 128.7 12.5846 127.551 12.5846C125.564 12.6212 123.753 12.6944 122.296 11.047C120.926 9.54604 118.63 9.69248 116.554 10.1318C114.787 10.4979 114.037 11.6693 113.683 13.0971C113.418 14.1953 113.418 15.2936 113.551 16.3553C113.772 18.0759 114.258 19.6866 116.598 20.1992C118.983 20.7117 121.236 20.6385 123.002 18.8813C124.062 17.8196 127.021 17.3071 128.435 17.8196C129.274 18.1491 129.318 18.6982 129.23 19.3572C128.965 21.151 127.772 22.3591 125.873 23.1645C123.665 24.1163 121.147 24.2993 118.365 24.336Z" fill="#472017"/>
<path d="M141.375 6.28773C144.334 6.28773 147.249 6.32434 150.208 6.28773C151.975 6.25113 152.063 7.09312 152.063 8.19139C152.063 9.28964 152.107 10.3513 150.208 10.2415C150.12 10.2415 150.075 10.2415 149.987 10.2415C148.265 10.3879 145.924 9.54591 144.996 10.6442C144.157 11.6326 144.731 13.463 144.731 14.9274C144.731 17.4168 144.687 19.9428 144.731 22.4322C144.731 23.6036 144.201 24.0795 142.744 24.0429C137.356 23.9331 137.93 24.6287 137.886 20.2356C137.886 17.4168 137.798 14.6345 137.93 11.8156C137.974 10.4977 137.444 10.0584 135.943 10.2415C135.059 10.3147 134.176 10.2415 133.293 10.2415C130.643 10.2415 130.422 9.98521 130.466 7.8253C130.51 6.61721 131.173 6.25113 132.542 6.28773C135.457 6.32434 138.416 6.28773 141.375 6.28773Z" fill="#472017"/>
</svg>
