<svg width="124" height="112" viewBox="0 0 124 112" fill="none" xmlns="http://www.w3.org/2000/svg">
<path d="M36.6213 0C48.7765 0 57.8669 5.00558 63.8926 15.0168C70.0221 25.1322 73.0868 38.7933 73.0868 56C73.0868 73.7281 70.0221 87.4935 63.8926 97.2961C57.763 107.099 48.7765 112 36.933 112C24.9856 112 15.8433 107.047 9.50597 97.1397C3.16866 87.2328 0 73.5196 0 56C0 38.3762 3.11671 24.6629 9.35013 14.8603C15.5835 4.95344 24.674 0 36.6213 0ZM19.1678 56C19.1678 82.175 25.0895 95.2626 36.933 95.2626C43.0625 95.2626 47.4259 92.1862 50.0232 86.0335C52.7243 79.8808 54.0749 69.8697 54.0749 56C54.0749 42.2346 52.7243 32.2756 50.0232 26.1229C47.322 19.9702 42.8548 16.8939 36.6213 16.8939C30.4918 16.8939 26.0245 20.0745 23.2195 26.4358C20.5183 32.6927 19.1678 42.5475 19.1678 56Z" fill="#CA5747"/>
<path d="M92.6771 36.7598L83.1711 21.8994L111.066 0.938545H124V110.749H106.079V26.5922L92.6771 36.7598Z" fill="#CA5747"/>
</svg>
