<svg width="153" height="112" viewBox="0 0 153 112" fill="none" xmlns="http://www.w3.org/2000/svg">
<path d="M36.5133 0.465377C48.6325 0.465377 57.6961 5.42936 63.704 15.3573C69.8154 25.3887 72.8711 38.9363 72.8711 56C72.8711 73.5808 69.8154 87.2318 63.704 96.9529C57.5925 106.674 48.6325 111.535 36.824 111.535C24.9119 111.535 15.7965 106.622 9.47791 96.7978C3.1593 86.9732 0 73.374 0 56C0 38.5226 3.10751 24.9234 9.32253 15.2022C15.5376 5.37766 24.6011 0.465377 36.5133 0.465377ZM19.1112 56C19.1112 81.9575 25.0155 94.9363 36.824 94.9363C42.9354 94.9363 47.286 91.8855 49.8756 85.7839C52.5687 79.6824 53.9153 69.7544 53.9153 56C53.9153 42.349 52.5687 32.4728 49.8756 26.3712C47.1824 20.2696 42.7283 17.2188 36.5133 17.2188C30.4018 17.2188 25.9477 20.373 23.151 26.6814C20.4578 32.8864 19.1112 42.6593 19.1112 56Z" fill="#CA5747"/>
<path d="M117.419 112C109.443 112 102.399 110.397 96.2879 107.191C90.2801 103.882 85.826 99.3832 82.9256 93.6953L93.025 80.6648C99.1365 89.662 106.905 94.1607 116.331 94.1607C121.821 94.1607 126.12 92.7645 129.228 89.9723C132.335 87.1801 133.889 83.5605 133.889 79.1136C133.889 74.1496 132.076 70.3749 128.451 67.7895C124.929 65.1006 120.009 63.7562 113.69 63.7562H105.921V45.9169H112.913C117.678 45.9169 121.666 44.5208 124.877 41.7285C128.088 38.9363 129.694 35.3684 129.694 31.0249C129.694 26.8883 128.502 23.6824 126.12 21.4072C123.738 19.0286 120.319 17.8393 115.865 17.8393C107.475 17.8393 100.638 21.7175 95.3557 29.4737L85.4116 16.9086C91.4195 5.63619 102.14 0 117.574 0C127 0 134.562 2.5337 140.259 7.6011C145.956 12.5651 148.805 19.2355 148.805 27.6122C148.805 39.9187 143.263 48.5023 132.18 53.3629V53.8283C138.705 54.9658 143.781 57.9132 147.406 62.6704C151.135 67.3241 153 73.012 153 79.7341C153 89.5586 149.634 97.4183 142.901 103.313C136.168 109.104 127.674 112 117.419 112Z" fill="#CA5747"/>
</svg>
