<svg width="155" height="112" viewBox="0 0 155 112" fill="none" xmlns="http://www.w3.org/2000/svg">
<path d="M36.8409 0C49.0689 0 58.2138 5.00558 64.2756 15.0168C70.4419 25.1322 73.525 38.7933 73.525 56C73.525 73.7281 70.4419 87.4935 64.2756 97.2961C58.1093 107.099 49.0689 112 37.1544 112C25.1354 112 15.9383 107.047 9.56296 97.1397C3.18765 87.2328 0 73.5196 0 56C0 38.3762 3.1354 24.6629 9.40619 14.8603C15.677 4.95344 24.8219 0 36.8409 0ZM19.2827 56C19.2827 82.175 25.2399 95.2626 37.1544 95.2626C43.3207 95.2626 47.7103 92.1862 50.3231 86.0335C53.0404 79.8808 54.3991 69.8697 54.3991 56C54.3991 42.2346 53.0404 32.2756 50.3231 26.1229C47.6058 19.9702 43.1117 16.8939 36.8409 16.8939C30.6746 16.8939 26.1806 20.0745 23.3587 26.4358C20.6414 32.6927 19.2827 42.5475 19.2827 56Z" fill="#CA5747"/>
<path d="M155 110.749H86.0213V96.3575C98.6674 84.0521 107.394 75.1359 112.202 69.6089C125.161 54.8007 131.641 42.3389 131.641 32.2235C131.641 27.7393 130.439 24.2458 128.036 21.743C125.632 19.2402 122.183 17.9888 117.689 17.9888C109.641 17.9888 104.363 22.8901 101.855 32.6927L86.8051 25.9665C88.2683 17.9367 91.9263 11.6276 97.779 7.0391C103.736 2.34637 111.052 0 119.727 0C129.551 0 137.18 2.81564 142.615 8.44692C148.05 13.9739 150.767 20.7002 150.767 28.6257C150.767 34.257 149.565 40.2533 147.162 46.6145C144.758 52.7672 141.988 58.1378 138.853 62.7263C135.613 67.5233 131.798 72.216 127.409 76.8045C123.646 80.9758 120.197 84.5214 117.062 87.4413C115.494 88.9013 112.933 91.0913 109.38 94.0112H155V110.749Z" fill="#CA5747"/>
</svg>
