<svg width="165" height="35" viewBox="0 0 165 35" fill="none" xmlns="http://www.w3.org/2000/svg">
<path d="M116.016 6.16211V15.0414H113.062V8.12536H110.806V15.0414H107.798V6.16211H116.016Z" fill="#472017"/>
<path d="M110.8 34.0046V32.6169H113.056V34.0001H116.016V30.6537H107.798V34.0001L110.8 34.0046Z" fill="#BA8D61"/>
<path d="M130.673 34.0046C130.642 33.5216 130.774 33.0409 131.055 32.617C131.144 32.4941 131.27 32.3925 131.421 32.322C131.571 32.2515 131.741 32.2145 131.914 32.2145C132.087 32.2145 132.257 32.2515 132.407 32.322C132.558 32.3925 132.684 32.4941 132.773 32.617C133.034 33.0452 133.163 33.5204 133.149 34.0002H136.157C136.076 33.0525 135.644 32.1488 134.922 31.4122C134.088 30.8084 133.02 30.4757 131.914 30.4757C130.808 30.4757 129.74 30.8084 128.906 31.4122C128.162 32.138 127.728 33.0479 127.671 34.0002L130.673 34.0046Z" fill="#BA8D61"/>
<path d="M120.791 34.0046V33.9154C120.753 33.5156 120.846 33.1149 121.06 32.7553C121.148 32.5711 121.306 32.4155 121.509 32.3111C121.712 32.2067 121.95 32.1591 122.187 32.1752C122.36 32.1772 122.529 32.215 122.679 32.2851C122.829 32.3553 122.955 32.4556 123.047 32.5768C123.34 33.0112 123.471 33.5082 123.423 34.0046H126.431C126.27 32.7999 125.894 31.729 125.034 31.149C124.504 30.7509 123.815 30.5286 123.101 30.5243C122.545 30.5278 122.003 30.6675 121.543 30.9259C121.116 31.1987 120.798 31.5718 120.63 31.9967V30.6582H117.837V34.0046H120.791Z" fill="#BA8D61"/>
<path d="M158.227 34.0046C158.195 33.5234 158.325 33.0444 158.603 32.6213C158.692 32.4985 158.818 32.3969 158.969 32.3264C159.119 32.2559 159.289 32.2189 159.462 32.2189C159.635 32.2189 159.805 32.2559 159.955 32.3264C160.106 32.3969 160.232 32.4985 160.321 32.6213C160.582 33.0496 160.711 33.5248 160.697 34.0046H163.705C163.624 33.0569 163.192 32.1532 162.47 31.4166C161.636 30.8128 160.568 30.4801 159.462 30.4801C158.356 30.4801 157.288 30.8128 156.454 31.4166C155.71 32.1424 155.275 33.0523 155.219 34.0046H158.227Z" fill="#BA8D61"/>
<path d="M140.449 34.0046C140.494 33.6368 140.603 33.2762 140.771 32.9337C140.857 32.7698 141 32.6312 141.182 32.5357C141.364 32.4402 141.576 32.3924 141.791 32.3983C141.965 32.395 142.136 32.4306 142.287 32.5013C142.439 32.5719 142.564 32.6751 142.651 32.7999C142.871 33.1589 142.982 33.5572 142.973 33.96H143.403L145.766 33.8708C145.764 32.9309 145.343 32.0249 144.584 31.3275C144.235 31.0065 143.803 30.7552 143.32 30.5922C142.838 30.4292 142.317 30.3587 141.797 30.386C141.211 30.3612 140.626 30.4399 140.08 30.6168C139.534 30.7937 139.039 31.0648 138.628 31.4122C137.906 32.119 137.457 32.9895 137.339 33.9109H140.454L140.449 34.0046Z" fill="#BA8D61"/>
<path d="M148.988 34.0046H151.942V32.6169H154.574V30.6537H146.41V32.6169H148.988V34.0046Z" fill="#BA8D61"/>
<path d="M152.319 1.25392C152.194 1.38896 152.03 1.49623 151.843 1.56627C151.655 1.6363 151.45 1.66695 151.245 1.65549C151.02 1.67337 150.794 1.63649 150.593 1.54935C150.393 1.4622 150.228 1.32855 150.117 1.16468C149.899 0.821054 149.788 0.437549 149.795 0.0491943H146.841C146.973 0.892347 147.403 1.68409 148.076 2.32479C148.469 2.65226 148.939 2.90856 149.456 3.07752C149.974 3.24648 150.528 3.32442 151.084 3.30641C151.668 3.32351 152.251 3.24132 152.796 3.06485C153.341 2.88839 153.837 2.62138 154.253 2.28017C154.833 1.68704 155.222 0.980515 155.381 0.227672L152.695 0.0938138C152.684 0.500035 152.555 0.898038 152.319 1.25392V1.25392Z" fill="#BA8D61"/>
<path d="M162.094 0.0446194C162.093 0.375742 161.981 0.700173 161.771 0.981627C161.681 1.10088 161.554 1.19726 161.402 1.26022C161.25 1.32317 161.081 1.35028 160.912 1.33858C160.71 1.34587 160.511 1.30308 160.339 1.21565C160.166 1.12823 160.029 1.00015 159.945 0.847769C159.798 0.592304 159.69 0.32248 159.623 0.0446194H156.562C156.682 0.868766 157.093 1.64493 157.743 2.27559C158.148 2.60174 158.628 2.85677 159.154 3.02543C159.68 3.19409 160.241 3.27292 160.805 3.25722C161.373 3.27297 161.939 3.1898 162.466 3.01306C162.993 2.83633 163.47 2.56992 163.866 2.23097C164.456 1.5794 164.826 0.80953 164.94 0L162.094 0.0446194Z" fill="#BA8D61"/>
<path d="M145.336 0.0447998H142.382V3.12354H145.336V0.0447998Z" fill="#BA8D61"/>
<path d="M139.966 0.0447998H137.012V3.12354H139.966V0.0447998Z" fill="#BA8D61"/>
<path d="M113.271 0.0447998C113.164 0.847949 112.949 1.11567 112.842 1.2049C112.715 1.30953 112.564 1.39129 112.398 1.44504C112.231 1.49879 112.053 1.52338 111.875 1.51724C111.701 1.51505 111.53 1.48208 111.372 1.42053C111.215 1.35898 111.075 1.27026 110.962 1.16029C110.736 0.816951 110.608 0.435502 110.586 0.0447998L107.632 0.0447998C107.731 0.887018 108.144 1.68253 108.813 2.32039C109.214 2.66451 109.7 2.93095 110.239 3.10064C110.777 3.27033 111.354 3.3391 111.929 3.30202C112.493 3.33311 113.06 3.27019 113.595 3.11695C114.13 2.9637 114.622 2.72323 115.044 2.40963C115.811 1.78118 116.271 0.938494 116.333 0.0447998L113.271 0.0447998Z" fill="#BA8D61"/>
<path d="M117.729 0.0447998V3.12354H120.521V2.45871L122.025 0.0492617L117.729 0.0447998Z" fill="#BA8D61"/>
<path d="M126.108 0.0447998H123.315V3.12354H126.108V0.0447998Z" fill="#BA8D61"/>
<path d="M132.499 0.0447998C132.544 0.160021 132.562 0.281037 132.553 0.401755C132.561 0.556666 132.531 0.711295 132.467 0.856775C132.402 1.00225 132.304 1.13572 132.177 1.24952C132.061 1.35345 131.92 1.43521 131.762 1.48914C131.604 1.54307 131.434 1.56789 131.264 1.56186C131.031 1.58302 130.796 1.54797 130.586 1.46093C130.377 1.37389 130.202 1.23853 130.082 1.07105C129.929 0.807051 129.856 0.516143 129.868 0.223278L127.289 0.401755C127.276 1.22605 127.641 2.02359 128.31 2.63273C129.116 3.2574 130.351 3.30202 131.21 3.30202C132.231 3.30202 133.466 3.21278 134.326 2.72197C134.706 2.46089 135.014 2.13407 135.227 1.76421C135.441 1.39435 135.554 0.990326 135.561 0.580233C135.57 0.415365 135.552 0.250262 135.507 0.0894192H132.499V0.0447998Z" fill="#BA8D61"/>
<path d="M98.125 6.16211L99.5752 11.6057L100.972 6.16211H103.657L100.435 15.1752C100.059 16.1569 99.79 16.9154 99.2529 17.4508C98.9966 17.7303 98.662 17.9536 98.2783 18.1013C97.8945 18.249 97.4732 18.3168 97.0508 18.2986C96.5582 18.3152 96.0662 18.2546 95.6006 18.1201V16.1078C95.897 16.1789 96.2055 16.209 96.5137 16.197C96.7519 16.2261 96.9951 16.2045 97.2205 16.1343C97.446 16.0641 97.6463 15.9475 97.8027 15.7954C97.96 15.5857 98.0862 15.361 98.1787 15.1262L95.0098 6.20227H98.125V6.16211Z" fill="#472017"/>
<path d="M93.7207 6.92065C92.8873 6.31681 91.8188 5.98413 90.7129 5.98413C89.607 5.98413 88.5385 6.31681 87.7051 6.92065C86.4697 8.03614 86.3623 9.68706 86.3623 10.5794C86.3623 11.4718 86.4697 13.1674 87.7051 14.2382C88.5385 14.8421 89.607 15.1748 90.7129 15.1748C91.8188 15.1748 92.8873 14.8421 93.7207 14.2382C94.9561 13.1228 95.0635 11.4718 95.0635 10.5794C95.0635 9.68706 94.9561 8.03614 93.7207 6.92065ZM91.5723 13.0781C91.4828 13.201 91.3567 13.3026 91.2062 13.3731C91.0556 13.4436 90.8857 13.4806 90.7129 13.4806C90.5401 13.4806 90.3702 13.4436 90.2196 13.3731C90.0691 13.3026 89.943 13.201 89.8535 13.0781C89.6387 12.8104 89.4238 12.2304 89.4238 10.5794C89.4238 8.92853 89.6387 8.34847 89.8535 8.08076C89.943 7.95792 90.0691 7.85633 90.2196 7.78582C90.3702 7.71531 90.5401 7.67826 90.7129 7.67826C90.8857 7.67826 91.0556 7.71531 91.2062 7.78582C91.3567 7.85633 91.4828 7.95792 91.5723 8.08076C91.7871 8.34847 92.0019 8.92853 92.0019 10.5794C92.0019 12.2304 91.7871 12.8104 91.5723 13.0781Z" fill="#472017"/>
<path d="M72.8271 6.16211H75.6201V13.3012H77.7685V6.16211H80.5669V13.3012H82.6616V6.16211H85.5083V15.0414H72.8325L72.8271 6.16211Z" fill="#472017"/>
<path d="M71.3232 9.5531H67.0264V11.4717H71.3232V9.5531Z" fill="#472017"/>
<path d="M59.9365 6.16205V10.267C59.9365 10.3563 59.9365 10.5794 59.8828 11.3825C60.1514 10.9363 60.2051 10.6686 60.3662 10.4455L62.7295 6.65287V6.11743H65.4688V14.9967H62.7295V10.7534C62.7295 10.4857 62.7295 10.2626 62.7832 9.63791C62.6221 9.95024 62.4072 10.3964 62.2998 10.6195L59.9365 14.3229V14.9922H57.1973V6.16205H59.9365Z" fill="#472017"/>
<path d="M53.8135 15.0414H50.8057V8.12536H48.2275V6.16211H56.397V8.12536H53.8188L53.8135 15.0414Z" fill="#472017"/>
<path d="M41.8945 6.16205V10.267C41.8945 10.3563 41.8945 10.5794 41.8408 11.3825C42.1094 10.9363 42.1631 10.6686 42.3242 10.4455L44.6875 6.65287V6.11743H47.4268V14.9967H44.6875V10.7534C44.6875 10.4857 44.6875 10.2626 44.7412 9.63791C44.5801 9.95024 44.3652 10.3964 44.2578 10.6195L41.8945 14.372V15.0413H39.1553V6.16205H41.8945Z" fill="#472017"/>
<path d="M37.6992 6.16211V15.0414H34.7451V7.99151H33.0801V9.15161C33.0549 10.3011 32.9473 11.4484 32.7578 12.5873C32.6504 13.1227 32.4355 14.3275 31.5225 14.8183C31.0162 15.0649 30.444 15.2029 29.8574 15.2199C29.4711 15.2213 29.0881 15.1607 28.7295 15.0414V13.1674C29.0494 13.2249 29.3837 13.1783 29.6635 13.0372C29.9433 12.8961 30.1473 12.6712 30.2334 12.4088C30.3945 12.0519 30.6094 11.2933 30.6631 9.24085C30.6631 8.70542 30.7168 7.72379 30.7168 7.41145V6.16211H37.6992Z" fill="#472017"/>
<path d="M27.6557 13.0781V9.55314C27.6557 8.16994 27.6557 7.23293 26.4203 6.56364C25.6843 6.17511 24.8203 5.98787 23.9496 6.02821C22.2309 6.02821 21.1567 6.51902 20.6196 7.00984C20.0712 7.50603 19.7156 8.128 19.5991 8.79461L22.4457 9.01771C22.5532 8.43766 22.6069 8.21456 22.7143 8.12532C22.8088 7.98307 22.9496 7.86578 23.1206 7.78687C23.2915 7.70797 23.4858 7.67063 23.6811 7.67913C23.8434 7.67381 24.0051 7.69915 24.154 7.75326C24.3028 7.80736 24.435 7.8888 24.5405 7.99146C24.7355 8.25989 24.829 8.57076 24.809 8.88385V9.59776C23.9064 9.65184 23.0092 9.75619 22.1235 9.9101C21.2887 10.0686 20.5362 10.4436 19.975 10.981C19.5226 11.4979 19.2953 12.1273 19.3305 12.7657C19.3008 13.1113 19.3624 13.458 19.5108 13.7817C19.6592 14.1054 19.891 14.3982 20.1899 14.6398C20.7408 15.0391 21.446 15.2608 22.1772 15.2644C22.9431 15.2718 23.6866 15.0501 24.2719 14.6398C24.5987 14.3819 24.8711 14.0802 25.0776 13.7474C25.042 14.1979 25.0965 14.6502 25.2387 15.086H27.978C27.7631 14.7692 27.6557 14.4167 27.6557 13.0781ZM24.707 11.2487C24.7271 11.7782 24.6362 12.3067 24.4384 12.8104C24.2773 13.1227 24.0624 13.5689 23.3105 13.5689C23.1583 13.57 23.0085 13.5376 22.8764 13.4749C22.7443 13.4121 22.6346 13.3214 22.5585 13.2119C22.3664 13.0095 22.2708 12.7553 22.29 12.498C22.2761 12.1713 22.3689 11.8475 22.5585 11.561C22.8808 11.0702 23.4179 10.9363 24.331 10.8025L24.707 10.7534V11.2487Z" fill="#472017"/>
<path d="M18.2031 11.0256C18.2568 10.4009 18.2031 8.75001 17.3975 7.63453C17.0533 7.12331 16.5441 6.70208 15.9273 6.41828C15.3104 6.13448 14.6105 5.99939 13.9062 6.02823C13.3373 6.00765 12.7697 6.08859 12.2416 6.26562C11.7134 6.44264 11.2371 6.71164 10.8447 7.05448C9.87793 7.90224 9.50195 9.33007 9.50195 10.7133C9.50195 12.0965 9.93164 13.4797 10.8984 14.2828C11.2927 14.6054 11.7643 14.8555 12.2824 15.017C12.8006 15.1784 13.3538 15.2475 13.9062 15.2198C14.4907 15.2369 15.0733 15.1547 15.6182 14.9783C16.1631 14.8018 16.6589 14.5348 17.0752 14.1936C17.6556 13.6005 18.0439 12.8939 18.2031 12.1411L15.5176 12.0072C15.5131 12.4142 15.3837 12.8135 15.1416 13.1673C15.016 13.3024 14.8523 13.4097 14.6649 13.4797C14.4776 13.5497 14.2724 13.5804 14.0674 13.5689C13.8423 13.5868 13.6159 13.5499 13.4156 13.4628C13.2153 13.3756 13.0499 13.242 12.9395 13.0781C12.7246 12.8104 12.5635 12.2749 12.6172 11.0256H18.2031ZM12.9395 8.12534C13.0414 7.97404 13.1904 7.84826 13.3708 7.76114C13.5513 7.67402 13.7566 7.62875 13.9653 7.63007C14.1665 7.6291 14.3648 7.6693 14.5428 7.74712C14.7208 7.82494 14.8729 7.93799 14.9858 8.07626C15.2884 8.54013 15.4192 9.0679 15.3618 9.59332H12.5688C12.6709 8.92849 12.6709 8.4823 12.9395 8.12534Z" fill="#472017"/>
<path d="M7.2456 6.65287C6.71502 6.25481 6.02692 6.03251 5.31201 6.0282C4.75653 6.03168 4.21465 6.17138 3.75439 6.42977C3.32768 6.70261 3.00955 7.07571 2.84131 7.50064V6.16206H0V18.0308H2.9541V14.372C3.17717 14.5756 3.42975 14.7555 3.70605 14.9075C4.10196 15.085 4.54522 15.177 4.99512 15.1752C5.44031 15.1899 5.88379 15.1213 6.29282 14.9746C6.70186 14.8279 7.06601 14.6067 7.3584 14.3274C8.32519 13.4796 8.59375 11.8287 8.59375 10.4009C8.64209 8.88384 8.2124 7.4114 7.2456 6.65287ZM5.15088 13.1227C5.05512 13.2612 4.91233 13.3732 4.74037 13.4446C4.56841 13.516 4.37491 13.5437 4.18408 13.5243C4.01753 13.5384 3.84927 13.5218 3.69139 13.4755C3.53351 13.4292 3.38994 13.3544 3.271 13.2565C2.97573 12.9055 2.84229 12.4779 2.89502 12.0518V9.41481C2.85743 9.01509 2.9502 8.61434 3.16357 8.25471C3.25346 8.07065 3.41207 7.9154 3.61607 7.81179C3.82006 7.70819 4.05869 7.66168 4.29687 7.67912C4.46909 7.68111 4.63796 7.71891 4.78808 7.78905C4.93819 7.8592 5.06477 7.95946 5.15625 8.08069C5.53223 8.52689 5.58594 9.28542 5.58594 10.4455C5.58057 12.0072 5.47314 12.7211 5.15088 13.1227V13.1227Z" fill="#472017"/>
<path d="M162.148 22.1804C162.163 21.7629 162.052 21.349 161.826 20.9757C161.739 20.8509 161.614 20.7477 161.463 20.6771C161.312 20.6064 161.14 20.5708 160.967 20.5741C160.752 20.5682 160.539 20.616 160.357 20.7115C160.175 20.807 160.032 20.9457 159.946 21.1096C159.785 21.3327 159.57 21.9127 159.57 23.2513C159.496 23.9838 159.644 24.72 160 25.393C160.084 25.5454 160.221 25.6735 160.393 25.7609C160.566 25.8483 160.765 25.8911 160.967 25.8838C161.136 25.8955 161.305 25.8684 161.457 25.8055C161.608 25.7425 161.736 25.6461 161.826 25.5269C162.041 25.3038 162.148 24.9468 162.202 24.1883L164.995 24.3222C164.93 25.2092 164.557 26.0616 163.921 26.7762C163.528 27.1191 163.052 27.3881 162.524 27.5651C161.996 27.7421 161.428 27.8231 160.859 27.8025C160.296 27.8182 159.734 27.7393 159.208 27.5707C158.682 27.402 158.203 27.147 157.798 26.8208C156.616 25.7946 156.509 24.2329 156.509 23.2513C156.509 22.2697 156.616 20.708 157.852 19.6371C158.262 19.2897 158.757 19.0185 159.304 18.8416C159.85 18.6647 160.435 18.5861 161.021 18.6109C161.541 18.5823 162.062 18.6518 162.546 18.814C163.03 18.9763 163.463 19.2271 163.813 19.5479C164.545 20.2589 164.962 21.1563 164.995 22.0912L162.148 22.1804Z" fill="#472017"/>
<path d="M155.381 23.6529C155.478 22.4689 155.2 21.2845 154.575 20.2172C154.225 19.7101 153.715 19.2923 153.1 19.0091C152.484 18.7259 151.787 18.5882 151.084 18.6109C150.517 18.6006 149.953 18.6862 149.426 18.8626C148.9 19.039 148.422 19.3026 148.022 19.6372C147.056 20.485 146.68 21.9574 146.68 23.296C146.68 24.7238 147.109 26.0624 148.076 26.8655C148.47 27.1881 148.942 27.4383 149.46 27.5997C149.978 27.7611 150.532 27.8302 151.084 27.8025C151.668 27.8196 152.251 27.7374 152.796 27.561C153.341 27.3845 153.837 27.1175 154.253 26.7763C154.833 26.1832 155.222 25.4766 155.381 24.7238L152.695 24.5899C152.691 24.9969 152.561 25.3962 152.319 25.75C152.194 25.8851 152.03 25.9924 151.843 26.0624C151.655 26.1324 151.45 26.1631 151.245 26.1516C151.02 26.1695 150.794 26.1326 150.593 26.0455C150.393 25.9583 150.228 25.8247 150.117 25.6608C149.902 25.3931 149.741 24.8577 149.795 23.6083H155.381V23.6529ZM150.117 20.7527C150.23 20.6009 150.388 20.4759 150.577 20.3899C150.765 20.3039 150.977 20.2598 151.191 20.2619C151.393 20.2609 151.591 20.3011 151.769 20.3789C151.947 20.4567 152.099 20.5698 152.212 20.7081C152.514 21.1719 152.645 21.6997 152.588 22.2251H149.795C149.74 21.7191 149.851 21.2102 150.117 20.7527V20.7527Z" fill="#472017"/>
<path d="M142.383 22.0466V18.7849H145.337V27.7088H142.383V24.0054H140.02V27.7088H137.012V18.7849H140.02V22.0421L142.383 22.0466Z" fill="#472017"/>
<path d="M127.295 21.5558C127.354 20.7224 127.796 19.9398 128.53 19.3694C129.39 18.7001 130.518 18.6555 131.538 18.6555C132.236 18.6555 133.364 18.6555 134.17 19.191C134.54 19.4272 134.839 19.7314 135.044 20.0797C135.249 20.4281 135.354 20.8111 135.352 21.1988C135.357 21.6477 135.187 22.0858 134.868 22.4482C134.549 22.7409 134.141 22.9567 133.687 23.0728V23.1175C134.171 23.2049 134.606 23.4248 134.922 23.7421C135.267 24.1635 135.454 24.6604 135.459 25.17C135.47 25.5825 135.364 25.9914 135.15 26.3636C134.935 26.7357 134.618 27.0606 134.224 27.3117C133.364 27.8471 132.129 27.8917 131.108 27.8917C130.249 27.8917 129.014 27.8471 128.208 27.2224C127.583 26.5915 127.225 25.8078 127.188 24.9915L129.766 24.813C129.754 25.1059 129.827 25.3968 129.98 25.6608C130.096 25.7962 130.244 25.9096 130.416 25.9933C130.589 26.0769 130.78 26.129 130.979 26.1459C131.177 26.1628 131.378 26.1442 131.567 26.0913C131.756 26.0384 131.929 25.9525 132.075 25.8392C132.202 25.7254 132.3 25.592 132.365 25.4465C132.429 25.301 132.459 25.1464 132.451 24.9915C132.469 24.6997 132.354 24.413 132.129 24.1883C131.865 23.9876 131.52 23.8762 131.162 23.876H130.303V22.4482H131.162C131.354 22.4598 131.547 22.4335 131.724 22.3715C131.901 22.3094 132.058 22.2134 132.183 22.0912C132.344 21.8762 132.437 21.6304 132.451 21.3773C132.458 21.2464 132.433 21.1158 132.377 20.9932C132.322 20.8705 132.237 20.7584 132.129 20.6634C131.89 20.4914 131.585 20.3963 131.27 20.3957C131.059 20.382 130.847 20.4164 130.658 20.495C130.469 20.5736 130.309 20.6935 130.195 20.8419C130.019 21.1164 129.926 21.4229 129.927 21.7343L127.295 21.5558Z" fill="#472017"/>
<path d="M120.522 18.7849V22.9345C120.522 23.0238 120.522 23.2469 120.469 24.05C120.737 23.6038 120.791 23.3361 120.952 23.113L123.369 19.3203V18.7849H126.162V27.7088H123.369V23.4253C123.369 23.1576 123.369 22.9345 123.423 22.3098C123.262 22.6222 123.047 23.0684 122.939 23.2915L120.576 27.0395V27.7088H117.783V18.7849H120.522Z" fill="#472017"/>
<path d="M115.043 20.1725C114.321 19.5965 113.358 19.2764 112.357 19.2801C111.682 19.2637 111.02 19.4366 110.478 19.771C110.028 20.0203 109.659 20.3573 109.403 20.7526H109.35C109.342 20.3515 109.445 19.9543 109.65 19.5909C109.854 19.2276 110.156 18.9077 110.531 18.6555C111.064 18.4066 111.646 18.2403 112.25 18.1647C112.948 18.0754 113.271 17.9862 113.808 17.8969C114.486 17.8042 115.152 17.6547 115.795 17.4507V15.4429C114.666 15.7117 113.518 15.9204 112.357 16.0675C111.229 16.246 109.94 16.4691 109.027 17.3169C107.631 18.5662 107.523 21.0203 107.523 22.6266C107.523 23.9652 107.631 25.7946 108.866 26.9101C109.833 27.8024 111.068 27.8471 111.981 27.8471C112.546 27.8782 113.112 27.8152 113.647 27.662C114.182 27.5088 114.675 27.2683 115.097 26.9547C116.278 26.0177 116.439 24.7237 116.439 23.519C116.386 22.7158 116.332 21.1988 115.043 20.1725ZM112.841 25.7946C112.714 25.8992 112.563 25.981 112.397 26.0347C112.23 26.0885 112.052 26.113 111.874 26.1069C111.7 26.1047 111.529 26.0717 111.371 26.0102C111.214 25.9486 111.074 25.8599 110.961 25.75C110.639 25.393 110.478 24.7237 110.478 23.519C110.478 22.3143 110.585 21.645 110.961 21.288C111.074 21.1816 111.216 21.0981 111.374 21.044C111.532 20.9898 111.703 20.9665 111.874 20.9757C112.223 20.991 112.551 21.1192 112.787 21.3326C113.163 21.6896 113.271 22.3589 113.271 23.5636C113.33 25.2591 113.002 25.6607 112.841 25.7946Z" fill="#472017"/>
<path d="M162.416 6.92065C161.583 6.31681 160.514 5.98413 159.408 5.98413C158.302 5.98413 157.234 6.31681 156.4 6.92065C155.165 8.03614 155.058 9.68706 155.058 10.5794C155.058 11.4718 155.165 13.1674 156.4 14.2382C157.234 14.8421 158.302 15.1748 159.408 15.1748C160.514 15.1748 161.583 14.8421 162.416 14.2382C163.651 13.1228 163.759 11.4718 163.759 10.5794C163.759 9.68706 163.651 8.03614 162.416 6.92065ZM160.268 13.0781C160.178 13.201 160.052 13.3026 159.901 13.3731C159.751 13.4436 159.581 13.4806 159.408 13.4806C159.235 13.4806 159.065 13.4436 158.915 13.3731C158.764 13.3026 158.638 13.201 158.549 13.0781C158.334 12.8104 158.119 12.2304 158.119 10.5794C158.119 8.92853 158.334 8.34847 158.549 8.08076C158.638 7.95792 158.764 7.85633 158.915 7.78582C159.065 7.71531 159.235 7.67826 159.408 7.67826C159.581 7.67826 159.751 7.71531 159.901 7.78582C160.052 7.85633 160.178 7.95792 160.268 8.08076C160.482 8.34847 160.697 8.92853 160.697 10.5794C160.697 12.2304 160.482 12.8104 160.268 13.0781Z" fill="#472017"/>
<path d="M151.942 15.0414H148.988V8.12536H146.41V6.16211H154.574V8.12536H151.942V15.0414Z" fill="#472017"/>
<path d="M142.973 9.50854C142.98 9.0916 142.869 8.67907 142.65 8.30382C142.564 8.17899 142.438 8.07584 142.287 8.00518C142.136 7.93453 141.964 7.89897 141.791 7.90225C141.576 7.8963 141.364 7.94417 141.182 8.03964C141 8.13511 140.856 8.27378 140.771 8.43768C140.609 8.66077 140.395 9.24083 140.395 10.5794C140.321 11.3119 140.468 12.0482 140.824 12.7211C140.908 12.8735 141.045 13.0016 141.218 13.089C141.39 13.1764 141.589 13.2192 141.791 13.212C141.96 13.2237 142.129 13.1965 142.281 13.1336C142.433 13.0706 142.56 12.9743 142.65 12.855C142.865 12.6319 142.973 12.2749 143.026 11.5164L145.819 11.6503C145.754 12.5373 145.381 13.3897 144.745 14.1043C144.353 14.4472 143.876 14.7162 143.348 14.8932C142.82 15.0702 142.253 15.1512 141.684 15.1306C141.12 15.1463 140.559 15.0675 140.032 14.8988C139.506 14.7301 139.027 14.4751 138.622 14.149C137.44 13.1227 137.333 11.561 137.333 10.5794C137.333 9.59778 137.44 8.0361 138.676 6.96524C139.087 6.61779 139.582 6.34667 140.128 6.16977C140.674 5.99287 141.259 5.91422 141.845 5.93899C142.365 5.91045 142.887 5.97989 143.37 6.14213C143.854 6.30438 144.287 6.55524 144.638 6.876C145.376 7.5805 145.777 8.48542 145.766 9.41931L142.973 9.50854Z" fill="#472017"/>
<path d="M134.916 6.92065C134.083 6.31681 133.014 5.98413 131.908 5.98413C130.802 5.98413 129.734 6.31681 128.9 6.92065C127.665 8.03614 127.558 9.68706 127.558 10.5794C127.558 11.4718 127.665 13.1674 128.9 14.2382C129.734 14.8421 130.802 15.1748 131.908 15.1748C133.014 15.1748 134.083 14.8421 134.916 14.2382C136.151 13.1228 136.259 11.4718 136.259 10.5794C136.259 9.68706 136.151 8.03614 134.916 6.92065ZM132.714 13.0781C132.624 13.201 132.498 13.3026 132.348 13.3731C132.197 13.4436 132.027 13.4806 131.854 13.4806C131.682 13.4806 131.512 13.4436 131.361 13.3731C131.211 13.3026 131.085 13.201 130.995 13.0781C130.78 12.8104 130.565 12.2304 130.565 10.5794C130.565 8.92853 130.78 8.34847 130.995 8.08076C131.085 7.95792 131.211 7.85633 131.361 7.78582C131.512 7.71531 131.682 7.67826 131.854 7.67826C132.027 7.67826 132.197 7.71531 132.348 7.78582C132.498 7.85633 132.624 7.95792 132.714 8.08076C132.929 8.34847 133.144 8.92853 133.144 10.5794C133.144 12.2304 132.982 12.8104 132.714 13.0781Z" fill="#472017"/>
<path d="M125.087 6.65287C124.556 6.25481 123.868 6.03251 123.153 6.0282C122.598 6.03168 122.056 6.17138 121.596 6.42977C121.169 6.70261 120.851 7.07571 120.683 7.50064V6.16206H117.89V18.0308H120.849V14.372C121.046 14.5854 121.305 14.7541 121.601 14.8628C121.997 15.0404 122.44 15.1324 122.89 15.1306C123.342 15.1399 123.792 15.0692 124.209 14.923C124.625 14.7768 125 14.5586 125.307 14.2828C126.274 13.435 126.542 11.7841 126.542 10.3563C126.542 8.92846 126.054 7.4114 125.087 6.65287ZM122.998 13.1227C122.902 13.2612 122.759 13.3732 122.587 13.4446C122.415 13.516 122.222 13.5437 122.031 13.5243C121.864 13.5384 121.696 13.5218 121.538 13.4755C121.38 13.4292 121.237 13.3544 121.118 13.2565C120.822 12.9055 120.689 12.4779 120.742 12.0518V9.41481C120.704 9.01509 120.797 8.61434 121.01 8.25471C121.099 8.0706 121.256 7.91494 121.459 7.81055C121.662 7.70617 121.9 7.65854 122.138 7.67466C122.31 7.67665 122.479 7.71445 122.629 7.78459C122.78 7.85474 122.906 7.955 122.998 8.07623C123.374 8.52242 123.427 9.28095 123.427 10.4857C123.422 12.0518 123.314 12.7211 122.998 13.1227Z" fill="#472017"/>
</svg>
