<svg id="svg2" xmlns="http://www.w3.org/2000/svg" xmlns:xlink="http://www.w3.org/1999/xlink" viewBox="0 0 307.2 76.2"><defs><style>.cls-1{fill:none;}.cls-2{clip-path:url(#clip-path);}.cls-3{fill:#472017;}.cls-4{fill:#ba8d61;}</style><clipPath id="clip-path" transform="translate(0.01 0.09)"><rect class="cls-1" x="-0.01" y="0.01" width="307.1" height="76.1"/></clipPath></defs><title>pb_logo_коричневый</title><g class="cls-2"><path class="cls-3" d="M216,13.71v19.9h-5.5V18.11h-4.2v15.5h-5.6V13.71Z" transform="translate(0.01 0.09)"/><path class="cls-4" d="M206.29,76.11V73h4.2v3.1H216v-7.5h-15.3v7.5Z" transform="translate(0.01 0.09)"/><path class="cls-4" d="M243.29,76.11A5.81,5.81,0,0,1,244,73a1.87,1.87,0,0,1,3.2,0,6.52,6.52,0,0,1,.7,3.1h5.6a10.35,10.35,0,0,0-2.3-5.8,8.52,8.52,0,0,0-11.2,0,9.68,9.68,0,0,0-2.3,5.8Z" transform="translate(0.01 0.09)"/><path class="cls-4" d="M224.89,76.11v-.2a5,5,0,0,1,.5-2.6,2.08,2.08,0,0,1,2.1-1.3,1.92,1.92,0,0,1,1.6.9,5.63,5.63,0,0,1,.7,3.2h5.6c-.3-2.7-1-5.1-2.6-6.4a5.43,5.43,0,0,0-3.6-1.4,5.25,5.25,0,0,0-2.9.9,5,5,0,0,0-1.7,2.4v-3h-5.2v7.5Z" transform="translate(0.01 0.09)"/><path class="cls-4" d="M294.59,76.11a5.81,5.81,0,0,1,.7-3.1,1.87,1.87,0,0,1,3.2,0,6.52,6.52,0,0,1,.7,3.1h5.6a10.35,10.35,0,0,0-2.3-5.8,8.52,8.52,0,0,0-11.2,0,9.68,9.68,0,0,0-2.3,5.8Z" transform="translate(0.01 0.09)"/><path class="cls-4" d="M261.49,76.11a8.74,8.74,0,0,1,.6-2.4,2,2,0,0,1,1.9-1.2,1.8,1.8,0,0,1,1.6.9,5.52,5.52,0,0,1,.6,2.6h.8l4.4-.2a8.53,8.53,0,0,0-2.2-5.7A6.45,6.45,0,0,0,264,68a7.72,7.72,0,0,0-5.9,2.3,10.36,10.36,0,0,0-2.4,5.6h5.8Z" transform="translate(0.01 0.09)"/><path class="cls-4" d="M277.39,76.11h5.5V73h4.9v-4.4h-15.2V73h4.8Z" transform="translate(0.01 0.09)"/><path class="cls-4" d="M283.59,2.71a2.33,2.33,0,0,1-2,.9,2.17,2.17,0,0,1-2.1-1.1,5.21,5.21,0,0,1-.6-2.5h-5.5a9.66,9.66,0,0,0,2.3,5.1,7.49,7.49,0,0,0,5.6,2.2,8,8,0,0,0,5.9-2.3,10.05,10.05,0,0,0,2.1-4.6l-5-.3A5.65,5.65,0,0,1,283.59,2.71Z" transform="translate(0.01 0.09)"/><path class="cls-4" d="M301.79,0a4,4,0,0,1-.6,2.1,1.72,1.72,0,0,1-1.6.8,1.89,1.89,0,0,1-1.8-1.1,7.59,7.59,0,0,1-.6-1.8h-5.7a9.44,9.44,0,0,0,2.2,5,7.81,7.81,0,0,0,5.7,2.2,7.59,7.59,0,0,0,5.7-2.3,10.32,10.32,0,0,0,2-5Z" transform="translate(0.01 0.09)"/><path class="cls-4" d="M270.59,0h-5.5v6.9h5.5Z" transform="translate(0.01 0.09)"/><path class="cls-4" d="M260.59,0h-5.5v6.9h5.5Z" transform="translate(0.01 0.09)"/><path class="cls-4" d="M210.89,0c-.2,1.8-.6,2.4-.8,2.6a2.41,2.41,0,0,1-1.8.7,2.28,2.28,0,0,1-1.7-.8,5.78,5.78,0,0,1-.7-2.5h-5.5a9.11,9.11,0,0,0,2.2,5.1,7.28,7.28,0,0,0,5.8,2.2,7.91,7.91,0,0,0,5.8-2,8.1,8.1,0,0,0,2.4-5.3Z" transform="translate(0.01 0.09)"/><path class="cls-4" d="M219.19,0v6.9h5.2V5.41l2.8-5.4Z" transform="translate(0.01 0.09)"/><path class="cls-4" d="M234.79,0h-5.2v6.9h5.2Z" transform="translate(0.01 0.09)"/><path class="cls-4" d="M246.69,0a2.2,2.2,0,0,1,.1.8,2.64,2.64,0,0,1-.7,1.9,2.19,2.19,0,0,1-1.7.7,2.27,2.27,0,0,1-2.2-1.1,4.06,4.06,0,0,1-.4-1.9l-4.8.4a7.28,7.28,0,0,0,1.9,5c1.5,1.4,3.8,1.5,5.4,1.5,1.9,0,4.2-.2,5.8-1.3a6.33,6.33,0,0,0,2.3-4.8,4.1,4.1,0,0,0-.1-1.1h-5.6Z" transform="translate(0.01 0.09)"/><path class="cls-3" d="M182.69,13.71l2.7,12.2,2.6-12.2h5l-6,20.2c-.7,2.2-1.2,3.9-2.2,5.1a4.84,4.84,0,0,1-4.1,1.9,7.32,7.32,0,0,1-2.7-.4V36a5.24,5.24,0,0,0,1.7.2,2.65,2.65,0,0,0,2.4-.9,6.89,6.89,0,0,0,.7-1.5l-5.9-20h5.8Z" transform="translate(0.01 0.09)"/><path class="cls-3" d="M174.49,15.41a8.52,8.52,0,0,0-11.2,0c-2.3,2.5-2.5,6.2-2.5,8.2s.2,5.8,2.5,8.2a8.52,8.52,0,0,0,11.2,0c2.3-2.5,2.5-6.2,2.5-8.2S176.79,17.91,174.49,15.41Zm-4,13.8a1.87,1.87,0,0,1-3.2,0c-.4-.6-.8-1.9-.8-5.6s.4-5,.8-5.6a1.87,1.87,0,0,1,3.2,0c.4.6.8,1.9.8,5.6S170.89,28.61,170.49,29.21Z" transform="translate(0.01 0.09)"/><path class="cls-3" d="M135.59,13.71h5.2v16h4v-16H150v16h3.9v-16h5.3v19.9h-23.6Z" transform="translate(0.01 0.09)"/><path class="cls-3" d="M132.79,21.31h-8v4.3h8Z" transform="translate(0.01 0.09)"/><path class="cls-3" d="M111.59,13.71v9.2c0,.2,0,.7-.1,2.5.5-1,.6-1.6.9-2.1l4.4-8.5v-1.2h5.1v19.9h-5.1V24c0-.6,0-1.1.1-2.5-.3.7-.7,1.7-.9,2.2l-4.4,8.3v1.5h-5.1V13.71Z" transform="translate(0.01 0.09)"/><path class="cls-3" d="M100.19,33.61h-5.6V18.11h-4.8v-4.4H105v4.4h-4.8Z" transform="translate(0.01 0.09)"/><path class="cls-3" d="M78,13.71v9.2c0,.2,0,.7-.1,2.5.5-1,.6-1.6.9-2.1l4.4-8.5v-1.2h5.1v19.9h-5.1V24c0-.6,0-1.1.1-2.5-.3.7-.7,1.7-.9,2.2L78,32.11v1.5h-5.1V13.71Z" transform="translate(0.01 0.09)"/><path class="cls-3" d="M70.19,13.71v19.9h-5.5V17.81h-3.1v2.6a64.85,64.85,0,0,1-.6,7.7c-.2,1.2-.6,3.9-2.3,5a6.58,6.58,0,0,1-3.1.9,5.58,5.58,0,0,1-2.1-.4v-4.2a2.38,2.38,0,0,0,2.8-1.7c.3-.8.7-2.5.8-7.1,0-1.2.1-3.4.1-4.1v-2.8Z" transform="translate(0.01 0.09)"/><path class="cls-3" d="M51.49,29.21v-7.9c0-3.1,0-5.2-2.3-6.7a7.77,7.77,0,0,0-4.6-1.2c-3.2,0-5.2,1.1-6.2,2.2a7.51,7.51,0,0,0-1.9,4l5.3.5c.2-1.3.3-1.8.5-2a1.94,1.94,0,0,1,1.8-1,2,2,0,0,1,1.6.7,3.51,3.51,0,0,1,.5,2v1.6a37.65,37.65,0,0,0-5,.7,7.51,7.51,0,0,0-4,2.4,6.31,6.31,0,0,0-1.2,4,5.33,5.33,0,0,0,1.6,4.2,5.68,5.68,0,0,0,3.7,1.4,5.94,5.94,0,0,0,3.9-1.4,7.49,7.49,0,0,0,1.5-2,9.17,9.17,0,0,0,.3,3h5.1C51.69,33,51.49,32.21,51.49,29.21ZM46,25.11a10.24,10.24,0,0,1-.5,3.5c-.3.7-.7,1.7-2.1,1.7a1.6,1.6,0,0,1-1.4-.8,2.35,2.35,0,0,1-.5-1.6,4.06,4.06,0,0,1,.5-2.1c.6-1.1,1.6-1.4,3.3-1.7L46,24Z" transform="translate(0.01 0.09)"/><path class="cls-3" d="M33.89,24.61c.1-1.4,0-5.1-1.5-7.6a7.05,7.05,0,0,0-6.5-3.6,7.42,7.42,0,0,0-5.7,2.3c-1.8,1.9-2.5,5.1-2.5,8.2s.8,6.2,2.6,8a7.35,7.35,0,0,0,5.6,2.1,8,8,0,0,0,5.9-2.3,10.05,10.05,0,0,0,2.1-4.6l-5-.3a5.36,5.36,0,0,1-.7,2.6,2.33,2.33,0,0,1-2,.9,2.17,2.17,0,0,1-2.1-1.1c-.4-.6-.7-1.8-.6-4.6Zm-9.8-6.5A2.17,2.17,0,0,1,26,17a2.28,2.28,0,0,1,1.9,1,6,6,0,0,1,.7,3.4h-5.2C23.59,19.91,23.59,18.91,24.09,18.11Z" transform="translate(0.01 0.09)"/><path class="cls-3" d="M13.49,14.81a5.43,5.43,0,0,0-3.6-1.4,5.25,5.25,0,0,0-2.9.9,5,5,0,0,0-1.7,2.4v-3H0v26.6h5.5v-8.2a7.47,7.47,0,0,0,1.4,1.2,5,5,0,0,0,2.4.6,5.54,5.54,0,0,0,4.4-1.9c1.8-1.9,2.3-5.6,2.3-8.8C16.09,19.81,15.29,16.51,13.49,14.81Zm-3.9,14.5a1.82,1.82,0,0,1-1.8.9,2.11,2.11,0,0,1-1.7-.6,4,4,0,0,1-.7-2.7V21a5,5,0,0,1,.5-2.6A2.08,2.08,0,0,1,8,17.11a1.92,1.92,0,0,1,1.6.9c.7,1,.8,2.7.8,5.3C10.39,26.81,10.19,28.41,9.59,29.31Z" transform="translate(0.01 0.09)"/><path class="cls-3" d="M301.89,49.61a5.66,5.66,0,0,0-.6-2.7,1.8,1.8,0,0,0-1.6-.9,2,2,0,0,0-1.9,1.2c-.3.5-.7,1.8-.7,4.8a9.88,9.88,0,0,0,.8,4.8,1.89,1.89,0,0,0,1.8,1.1,1.72,1.72,0,0,0,1.6-.8c.4-.5.6-1.3.7-3l5.2.3a10.31,10.31,0,0,1-2,5.5,7.42,7.42,0,0,1-5.7,2.3,7.81,7.81,0,0,1-5.7-2.2c-2.2-2.3-2.4-5.8-2.4-8s.2-5.7,2.5-8.1a7.72,7.72,0,0,1,5.9-2.3,6.45,6.45,0,0,1,5.2,2.1,9.19,9.19,0,0,1,2.2,5.7Z" transform="translate(0.01 0.09)"/><path class="cls-3" d="M289.29,52.91a15.25,15.25,0,0,0-1.5-7.7,7.17,7.17,0,0,0-6.5-3.6,7.79,7.79,0,0,0-5.7,2.3c-1.8,1.9-2.5,5.2-2.5,8.2,0,3.2.8,6.2,2.6,8a7.35,7.35,0,0,0,5.6,2.1,8,8,0,0,0,5.9-2.3,10.05,10.05,0,0,0,2.1-4.6l-5-.3a5.36,5.36,0,0,1-.7,2.6,2.33,2.33,0,0,1-2,.9,2.17,2.17,0,0,1-2.1-1.1c-.4-.6-.7-1.8-.6-4.6h10.4Zm-9.8-6.5a2.32,2.32,0,0,1,2-1.1,2.28,2.28,0,0,1,1.9,1,6,6,0,0,1,.7,3.4h-5.2A6.29,6.29,0,0,1,279.49,46.41Z" transform="translate(0.01 0.09)"/><path class="cls-3" d="M265.09,49.31V42h5.5V62h-5.5v-8.3h-4.4V62h-5.6V42h5.6v7.3Z" transform="translate(0.01 0.09)"/><path class="cls-3" d="M237,48.21a7.3,7.3,0,0,1,2.3-4.9c1.6-1.5,3.7-1.6,5.6-1.6,1.3,0,3.4,0,4.9,1.2a5.63,5.63,0,0,1,2.2,4.5,4.67,4.67,0,0,1-.9,2.8,4.92,4.92,0,0,1-2.2,1.4v.1a4.12,4.12,0,0,1,2.3,1.4,5.78,5.78,0,0,1,1,3.2,5.88,5.88,0,0,1-2.3,4.8c-1.6,1.2-3.9,1.3-5.8,1.3-1.6,0-3.9-.1-5.4-1.5a8.37,8.37,0,0,1-1.9-5l4.8-.4a4.06,4.06,0,0,0,.4,1.9,2.6,2.6,0,0,0,3.9.4,2.64,2.64,0,0,0,.7-1.9,2.61,2.61,0,0,0-.6-1.8,2.67,2.67,0,0,0-1.8-.7h-1.6v-3.2h1.6a2.27,2.27,0,0,0,1.9-.8,3.32,3.32,0,0,0,.5-1.6,2.19,2.19,0,0,0-.6-1.6,2.45,2.45,0,0,0-1.6-.6,2.17,2.17,0,0,0-2,1,4.23,4.23,0,0,0-.5,2Z" transform="translate(0.01 0.09)"/><path class="cls-3" d="M224.39,42v9.3c0,.2,0,.7-.1,2.5.5-1,.6-1.6.9-2.1l4.5-8.5V42h5.2V62h-5.2v-9.6c0-.6,0-1.1.1-2.5-.3.7-.7,1.7-.9,2.2l-4.4,8.4V62h-5.2V42Z" transform="translate(0.01 0.09)"/><path class="cls-3" d="M214.19,45.11a7.17,7.17,0,0,0-5-2,5.6,5.6,0,0,0-3.5,1.1,6.15,6.15,0,0,0-2,2.2h-.1a5.93,5.93,0,0,1,2.2-4.7,9.37,9.37,0,0,1,3.2-1.1c1.3-.2,1.9-.4,2.9-.6a19,19,0,0,0,3.7-1v-4.5a51.32,51.32,0,0,1-6.4,1.4c-2.1.4-4.5.9-6.2,2.8-2.6,2.8-2.8,8.3-2.8,11.9,0,3,.2,7.1,2.5,9.6,1.8,2,4.1,2.1,5.8,2.1a7.91,7.91,0,0,0,5.8-2c2.2-2.1,2.5-5,2.5-7.7C216.69,50.81,216.59,47.41,214.19,45.11Zm-4.1,12.6a2.41,2.41,0,0,1-1.8.7,2.28,2.28,0,0,1-1.7-.8c-.6-.8-.9-2.3-.9-5s.2-4.2.9-5a2.09,2.09,0,0,1,1.7-.7,2.49,2.49,0,0,1,1.7.8c.7.8.9,2.3.9,5C211,56.51,210.39,57.41,210.09,57.71Z" transform="translate(0.01 0.09)"/><path class="cls-3" d="M302.39,15.41a8.52,8.52,0,0,0-11.2,0c-2.3,2.5-2.5,6.2-2.5,8.2s.2,5.8,2.5,8.2a8.52,8.52,0,0,0,11.2,0c2.3-2.5,2.5-6.2,2.5-8.2S304.69,17.91,302.39,15.41Zm-4,13.8a1.87,1.87,0,0,1-3.2,0c-.4-.6-.8-1.9-.8-5.6s.4-5,.8-5.6a1.87,1.87,0,0,1,3.2,0c.4.6.8,1.9.8,5.6S298.79,28.61,298.39,29.21Z" transform="translate(0.01 0.09)"/><path class="cls-3" d="M282.89,33.61h-5.5V18.11h-4.8v-4.4h15.2v4.4h-4.9Z" transform="translate(0.01 0.09)"/><path class="cls-3" d="M266.19,21.21a6,6,0,0,0-.6-2.7,1.8,1.8,0,0,0-1.6-.9,2,2,0,0,0-1.9,1.2c-.3.5-.7,1.8-.7,4.8a9.88,9.88,0,0,0,.8,4.8,1.89,1.89,0,0,0,1.8,1.1,1.72,1.72,0,0,0,1.6-.8c.4-.5.6-1.3.7-3l5.2.3a10.31,10.31,0,0,1-2,5.5,7.42,7.42,0,0,1-5.7,2.3,7.81,7.81,0,0,1-5.7-2.2c-2.2-2.3-2.4-5.8-2.4-8s.2-5.7,2.5-8.1a7.72,7.72,0,0,1,5.9-2.3,6.45,6.45,0,0,1,5.2,2.1,8.55,8.55,0,0,1,2.1,5.7Z" transform="translate(0.01 0.09)"/><path class="cls-3" d="M251.19,15.41a8.52,8.52,0,0,0-11.2,0c-2.3,2.5-2.5,6.2-2.5,8.2s.2,5.8,2.5,8.2a8.52,8.52,0,0,0,11.2,0c2.3-2.5,2.5-6.2,2.5-8.2S253.49,17.91,251.19,15.41Zm-4.1,13.8a1.87,1.87,0,0,1-3.2,0c-.4-.6-.8-1.9-.8-5.6s.4-5,.8-5.6a1.87,1.87,0,0,1,3.2,0c.4.6.8,1.9.8,5.6S247.59,28.61,247.09,29.21Z" transform="translate(0.01 0.09)"/><path class="cls-3" d="M232.89,14.81a5.43,5.43,0,0,0-3.6-1.4,5.25,5.25,0,0,0-2.9.9,5,5,0,0,0-1.7,2.4v-3h-5.2v26.6H225v-8.2a3.6,3.6,0,0,0,1.4,1.1,5,5,0,0,0,2.4.6,5.93,5.93,0,0,0,4.5-1.9c1.8-1.9,2.3-5.6,2.3-8.8S234.69,16.51,232.89,14.81ZM229,29.31a1.82,1.82,0,0,1-1.8.9,2.11,2.11,0,0,1-1.7-.6,4,4,0,0,1-.7-2.7V21a5,5,0,0,1,.5-2.6,2.08,2.08,0,0,1,2.1-1.3,1.92,1.92,0,0,1,1.6.9c.7,1,.8,2.7.8,5.4C229.79,26.91,229.59,28.41,229,29.31Z" transform="translate(0.01 0.09)"/></g></svg>