<?xml version="1.0" encoding="UTF-8" standalone="no"?>
<svg
   xmlns:dc="http://purl.org/dc/elements/1.1/"
   xmlns:cc="http://creativecommons.org/ns#"
   xmlns:rdf="http://www.w3.org/1999/02/22-rdf-syntax-ns#"
   xmlns:svg="http://www.w3.org/2000/svg"
   xmlns="http://www.w3.org/2000/svg"
   viewBox="0 0 307.07999 76.120003"
   height="76.120003"
   width="307.07999"
   xml:space="preserve"
   id="svg2"
   version="1.1"><metadata
     id="metadata8"><rdf:RDF><cc:Work
         rdf:about=""><dc:format>image/svg+xml</dc:format><dc:type
           rdf:resource="http://purl.org/dc/dcmitype/StillImage" /></cc:Work></rdf:RDF></metadata><defs
     id="defs6"><clipPath
       id="clipPath20"
       clipPathUnits="userSpaceOnUse"><path
         id="path18"
         d="M 0,0 H 2303 V 570.93 H 0 Z" /></clipPath></defs><g
     transform="matrix(1.3333333,0,0,-1.3333333,0,76.12)"
     id="g10"><g
       transform="scale(0.1)"
       id="g12"><g
         id="g14"><g
           clip-path="url(#clipPath20)"
           id="g16"><path
             id="path22"
             style="fill:#3871c1;fill-opacity:1;fill-rule:nonzero;stroke:none"
             d="M 1620.28,468.223 V 318.82 h -41.58 v 116.598 h -31.64 V 318.82 h -41.61 V 468.223 Z M 1547.06,0 v 23.4961 h 31.63 V 0 h 41.6 V 56.3047 H 1505.45 V 0 Z m 277.63,0 c 0.93,13.9961 2.98,20.0469 5.35,23.4961 2.04,2.9258 5.84,6.4375 11.72,6.4375 5.85,0 9.65,-3.5117 11.72,-6.4375 2.37,-3.4492 4.41,-9.5 5.32,-23.4961 h 42.34 c -1.58,14.3281 -5.85,30.9688 -17.5,43.4102 -13.48,14.3554 -28.71,15.8281 -41.88,15.8281 -13.19,0 -28.42,-1.4727 -41.9,-15.8281 C 1788.21,30.9688 1783.94,14.3281 1782.36,0 Z m -137.6,0 v 1.81641 c 0,5.5664 0.29,13.18749 3.52,19.33199 3.2,6.4532 7.9,9.668 15.53,9.668 3.51,0 7.89,-1.168 11.71,-6.7344 3.65,-5.2734 4.98,-13.2734 5.5,-24.082 h 42.33 c -1.94,20.0039 -7.86,38.0156 -19.14,48.1016 -7.31,6.7382 -17.27,10.2617 -26.93,10.2617 -8.5,0 -16.41,-2.6406 -21.97,-6.7422 -4.98,-3.5195 -9.97,-9.6758 -12.91,-17.8711 v 22.5547 h -39.25 V 0 Z m 522.22,0 c 0.92,13.9961 2.97,20.0469 5.34,23.4961 2.05,2.9258 5.85,6.4375 11.72,6.4375 5.85,0 9.66,-3.5117 11.72,-6.4375 2.36,-3.4492 4.41,-9.5 5.33,-23.4961 h 42.34 c -1.59,14.3281 -5.85,30.9688 -17.51,43.4102 -13.47,14.3554 -28.71,15.8281 -41.88,15.8281 -13.18,0 -28.42,-1.4727 -41.9,-15.8281 C 2172.81,30.9688 2168.56,14.3281 2166.97,0 Z m -248.27,0 c 1.13,9.76172 3.06,14.9141 4.63,17.6406 4.09,7.3125 9.95,8.7813 14.34,8.7813 3.23,0 8.5,-0.8828 12.3,-6.7383 2.91,-4.3516 3.8,-10.44922 4.39,-19.6836 h 6.29 l 32.69,1.23438 c -0.29,14.35152 -5.28,31.04292 -16.13,42.46482 -12.87,14.0664 -27.82,15.5391 -39.25,15.5391 -12.88,0 -29.87,-2.0586 -44.24,-17.293 C 1924.55,29.8398 1920.12,14.0195 1918.4,0 Z m 119.45,0 h 41.59 v 23.4961 h 36.05 V 56.3047 H 2044.46 V 23.4961 h 36.03 z m 46.29,551 c -4.99,-6.437 -11.7,-7.023 -15.24,-7.023 -5.85,0 -12.01,1.464 -16.1,8.195 -2.05,3.269 -3.64,8.641 -4.23,18.758 h -40.89 c 2.7,-15.395 8.22,-29.114 17.3,-38.375 13.76,-14.067 30.75,-16.125 42.17,-16.125 12.61,0 30.47,2.648 43.94,17.293 8.79,9.668 13.77,24.019 15.81,34.558 l -37.18,2.352 c -0.31,-4.395 -1.47,-14.363 -5.58,-19.633 z m 136.87,19.93 c -0.83,-7.996 -2.35,-12.5 -4.46,-15.532 -2.93,-4.398 -7.02,-6.152 -12,-6.152 -6.74,0 -10.25,2.926 -13.48,8.496 -1.98,3.707 -3.37,8.074 -4.37,13.188 h -43.01 c 2.01,-13.129 6.53,-27.172 16.62,-37.801 6.74,-7.024 19.92,-16.699 42.48,-16.699 21.37,0 35.16,9.09 42.48,17.293 10,11.238 13.56,27.535 14.78,37.207 z m -275.72,-51.567 h 41.59 v 51.567 h -41.59 z m -74.42,0 h 41.61 v 51.567 h -41.61 z m -331.8,51.567 c -1.36,-13.707 -4.13,-17.907 -5.65,-19.625 -2.93,-3.528 -8.8,-5.571 -13.18,-5.571 -6.74,0 -10.85,3.797 -12.9,6.149 -2.97,3.887 -4.66,10.125 -5.58,19.047 h -41.39 c 2.3,-14.254 6.94,-28.164 16.5,-38.375 13.76,-14.66 30.47,-16.125 43.37,-16.125 12.88,0 29,1.179 43.34,14.656 11.68,11.035 16.32,25.336 18.06,39.844 z m 62.3,0 v -51.567 h 38.68 v 11.422 l 21.19,40.145 z m 77.94,-51.567 h 38.67 v 51.567 h -38.67 z m 127.98,51.567 c 0.44,-2.067 0.61,-4.106 0.61,-5.86 0,-5.269 -1.46,-10.254 -5.55,-14.355 -3.52,-3.516 -7.63,-4.981 -12.62,-4.981 -9.36,0 -14.05,4.102 -16.39,8.496 -2.05,3.797 -2.93,9.958 -2.65,14.352 l -36.32,-3.223 c 0.3,-12.011 4.7,-28.711 14.06,-37.496 11.14,-10.543 28.72,-11.433 40.72,-11.433 14.06,0 31.65,1.179 43.37,9.961 10.84,7.922 17,22.855 17,36.332 0,2.707 -0.36,5.472 -0.89,8.207 z m -479.55,-102.696 20.18,-91.261 19.31,91.261 h 37.72 L 1402.56,316.73 c -4.98,-16.675 -9.36,-29.253 -16.39,-38.035 -9.35,-11.406 -19.59,-14.05 -31,-14.05 -7.9,0 -14.03,0.898 -20.18,2.945 v 33.926 c 4.98,-1.172 8.49,-1.172 12.59,-1.172 6.13,0 12.85,0.285 18.13,7.023 2.33,2.93 4.08,7.317 4.97,11.11 l -44.18,149.757 z m -115.04,-32.746 c -3.21,-4.691 -5.86,-14.054 -5.86,-41.828 0,-27.797 2.65,-37.16 5.86,-41.847 2.04,-2.926 5.85,-6.418 11.69,-6.418 5.85,0 9.66,3.492 11.71,6.418 3.21,4.687 5.86,14.05 5.86,41.847 0,27.774 -2.65,37.137 -5.86,41.828 -2.05,2.922 -5.86,6.438 -11.71,6.438 -5.84,0 -9.65,-3.516 -11.69,-6.438 z m 53.52,19.879 c 17.25,-18.418 18.44,-46.215 18.44,-61.707 0,-15.515 -1.19,-43.312 -18.44,-61.722 -13.45,-14.34 -28.65,-15.801 -41.83,-15.801 -13.16,0 -28.36,1.461 -41.83,15.801 -17.25,18.41 -18.41,46.207 -18.41,61.722 0,15.492 1.16,43.289 18.41,61.707 13.47,14.332 28.67,15.797 41.83,15.797 13.18,0 28.38,-1.465 41.83,-15.797 z m -291.75,12.867 h 39.19 V 348.32 h 29.53 v 119.914 h 39.19 V 348.32 h 29.55 v 119.914 h 39.2 V 319.059 H 1017.11 Z M 995.992,379.02 h -59.953 v 32.464 h 59.953 z m -158.918,89.214 v -69.308 c 0,-1.465 0,-5.266 -0.875,-18.735 3.512,7.606 4.676,11.704 6.727,15.497 l 33.359,63.492 v 9.054 h 38.59 V 319.059 h -38.59 v 71.961 c 0,4.668 0.278,8.179 0.863,18.433 -2.05,-5.273 -4.964,-12.582 -7.019,-16.379 L 837.074,330.473 V 319.059 H 798.473 V 468.234 Z M 751.309,319.063 H 709.77 v 116.425 h -35.985 v 32.75 h 113.5 v -32.75 H 751.309 Z M 584.777,468.234 v -69.308 c 0,-1.465 0,-5.266 -0.879,-18.735 3.516,7.606 4.672,11.704 6.727,15.497 l 33.355,63.492 v 9.054 h 38.598 V 319.059 H 623.98 v 71.961 c 0,4.668 0.286,8.179 0.872,18.433 -2.051,-5.273 -4.969,-12.582 -7.02,-16.379 l -33.055,-62.601 v -11.414 h -38.601 v 149.175 z m -57.992,0 V 319.059 h -41.539 v 118.476 h -23.109 l -0.285,-19.613 c -0.301,-15.797 -2.051,-42.984 -4.399,-57.91 -1.465,-9.074 -4.676,-28.949 -17.547,-37.739 -5.847,-4.085 -15.492,-6.414 -23.394,-6.414 -7.024,0 -12.301,1.739 -15.504,3.2 v 31.289 c 14.328,-2.328 18.996,7.617 21.055,12.879 2.351,6.148 4.968,18.718 6.152,53.543 0.277,9.05 0.863,25.722 0.863,30.699 l 0.289,20.765 z m -181.762,-77.8 -5.543,-0.875 c -12.285,-2.051 -19.894,-4.692 -24.566,-12.59 -2.926,-4.957 -3.816,-10.52 -3.816,-15.774 0,-4.41 0.89,-8.203 3.515,-12.004 2.914,-3.793 6.149,-5.843 10.821,-5.843 10.226,0 13.742,7.308 15.793,12.875 3.234,8.773 3.796,17.25 3.796,26.617 z m -71.652,34.234 c 1.742,12.566 7.309,23.105 14.035,29.824 7.895,8.18 22.532,16.668 46.801,16.668 11.406,0 23.996,-1.738 34.813,-9.055 17.265,-11.414 17.546,-27.207 17.546,-50.617 v -59.371 c 0,-22.519 1.18,-28.359 2.637,-33.051 h -38.617 c -2.617,9.645 -2.332,20.184 -2.051,22.821 -2.613,-5.563 -6.719,-11.125 -11.101,-15.203 -7.028,-6.442 -17.258,-10.829 -29.547,-10.829 -9.664,0 -20.481,3.211 -27.793,10.235 -5.848,5.543 -11.699,15.207 -11.699,31.594 0,10.515 2.929,21.64 9.367,30.113 8.765,11.402 22.23,16.098 30.125,18.148 11.414,3.203 23.695,4.383 37.136,5.543 v 12.004 c 0,4.969 -0.562,11.106 -3.796,15.203 -2.332,2.918 -5.844,4.977 -11.692,4.977 -7.312,0 -11.133,-4.109 -13.16,-7.602 -1.176,-2.047 -2.352,-5.562 -3.516,-15.226 z m -58.312,-14.055 c 0.3,12.282 -1.465,20.485 -5.258,25.746 -3.211,4.102 -8.488,7.313 -14.336,7.313 -5.254,0 -10.817,-2.336 -14.617,-8.488 -3.516,-5.852 -4.102,-13.75 -4.692,-24.571 z m -39.188,-23.98 c -0.59,-21.36 1.461,-30.125 4.387,-34.824 4.101,-6.715 10.226,-8.18 16.082,-8.18 3.512,0 10.25,0.59 15.207,7.027 4.101,5.262 5.277,15.207 5.562,19.598 l 37.161,-2.34 c -2.051,-10.539 -7.028,-24.871 -15.801,-34.512 -13.457,-14.621 -31.313,-17.261 -43.879,-17.261 -11.406,0 -28.387,2.05 -42.129,16.082 -13.152,13.461 -19.285,35.976 -19.285,59.972 0,22.809 5.543,47.09 18.719,61.422 7.589,8.18 21.05,17.543 42.695,17.543 23.984,0 39.187,-11.414 48.551,-27.207 11.406,-19.285 11.714,-46.801 11.129,-57.32 z M 41.5234,369.375 c 0,-13.152 3.2227,-18.129 4.9727,-20.184 3.793,-4.382 9.3555,-4.683 12.5898,-4.683 4.9532,0 9.0547,0.586 13.1563,6.738 4.3867,6.719 5.8398,18.418 5.8398,44.75 0,19.598 -0.5859,32.465 -5.8398,40.078 -3.8008,5.543 -8.2031,6.727 -11.6992,6.727 -7.6094,0 -12.2813,-3.235 -15.5117,-9.668 -3.211,-6.137 -3.5079,-13.75 -3.5079,-19.293 z m -2.3398,98.859 v -22.515 c 2.9258,8.183 7.9023,14.34 12.875,17.851 5.5625,4.078 13.457,6.715 21.9219,6.715 9.6679,0 19.6172,-3.512 26.9295,-10.226 14.035,-12.59 19.875,-37.442 19.875,-63.188 0,-23.98 -4.383,-51.777 -17.543,-65.808 -6.4334,-7.028 -17.5428,-14.051 -33.3357,-14.051 -6.4415,0 -11.7149,1.179 -17.8477,4.386 -4.1016,2.051 -7.3125,4.692 -10.5352,8.489 V 268.754 H 0 v 199.48 z M 2264.18,199.137 c -0.58,9.379 -1.47,15.523 -4.4,19.918 -3.81,5.855 -9.08,6.738 -12.3,6.738 -4.39,0 -10.26,-1.473 -14.35,-8.781 -2.35,-4.11 -5.58,-13.481 -5.58,-36.34 0,-16.988 1.76,-27.82 6.16,-36.024 3.23,-5.57 6.74,-8.496 13.48,-8.496 4.98,0 9.08,1.758 12,6.153 2.65,3.804 4.41,9.672 4.99,22.261 l 38.97,-2.336 c -0.61,-8.21 -3.52,-28.421 -15.24,-41.605 -7.32,-8.203 -21.11,-17.289 -42.48,-17.289 -22.55,0 -35.74,9.672 -42.48,16.699 -16.41,17.285 -18.17,43.649 -18.17,60.352 0,16.113 1.47,42.765 18.75,60.926 14.36,15.238 31.35,17.292 44.24,17.292 11.42,0 26.38,-1.468 39.25,-15.535 10.86,-11.422 15.83,-28.109 16.13,-42.465 z m -133.89,-1.168 c 0.31,12.301 -1.45,20.504 -5.27,25.773 -3.23,4.11 -8.49,7.324 -14.34,7.324 -5.28,0 -10.84,-2.343 -14.66,-8.5 -3.52,-5.847 -4.09,-13.765 -4.67,-24.597 z m -39.25,-24.035 c -0.58,-21.375 1.46,-30.168 4.4,-34.856 4.1,-6.73 10.25,-8.199 16.11,-8.199 3.53,0 10.24,0.59 15.23,7.031 4.11,5.27 5.27,15.235 5.58,19.625 l 37.18,-2.347 c -2.04,-10.54 -7.02,-24.903 -15.8,-34.563 -13.48,-14.645 -31.35,-17.289 -43.95,-17.289 -11.42,0 -28.41,2.055 -42.17,16.117 -13.2,13.473 -19.36,36.035 -19.36,60.055 0,22.855 5.59,47.16 18.76,61.519 7.62,8.2 21.1,17.578 42.77,17.578 24.04,0 39.25,-11.425 48.63,-27.242 11.43,-19.34 11.73,-46.875 11.12,-57.429 z m -103.11,26.957 v 54.785 h 41.59 V 106.27 h -41.59 v 61.808 h -32.81 V 106.27 h -41.61 v 149.406 h 41.61 v -54.785 z m -210.34,8.789 c 1.76,22.562 14.95,34.863 16.99,36.625 12.31,11.125 27.54,12.304 42.2,12.304 9.67,0 25.19,-0.3 36.91,-8.796 9.37,-6.739 16.4,-18.747 16.4,-33.68 0,-8.789 -2.63,-16.121 -6.43,-20.809 -3.54,-4.39 -9.67,-8.496 -16.71,-10.25 v -0.582 c 7.61,-1.758 13.77,-5.863 17.58,-10.551 4.69,-5.867 7.63,-15.523 7.63,-24.316 0,-13.477 -6.16,-28.41 -17,-36.324 -11.72,-8.793 -29.31,-9.969 -43.36,-9.969 -12.01,0 -29.59,0.891 -40.73,11.438 -9.36,8.781 -13.76,25.484 -14.06,37.496 l 36.33,3.218 c -0.29,-4.386 0.6,-10.546 2.64,-14.355 2.34,-4.391 7.02,-8.492 16.39,-8.492 4.98,0 9.1,1.465 12.61,4.98 4.09,4.102 5.56,9.086 5.56,14.356 0,4.09 -0.58,9.664 -4.69,13.769 -2.91,2.926 -7.89,5.27 -13.77,5.27 h -12 v 24.019 h 12 c 7.63,0 12.01,3.223 14.08,5.864 2.05,2.925 3.52,8.785 3.52,12.011 0,6.739 -2.95,10.551 -4.7,12.008 -3.22,2.934 -7.92,4.395 -12.29,4.395 -7.92,0 -12.9,-3.805 -15.24,-7.606 -2.36,-3.531 -4.11,-9.969 -4.11,-15.238 z m -94.9,45.992 V 186.25 c 0,-1.469 0,-5.273 -0.89,-18.754 3.52,7.621 4.7,11.723 6.74,15.531 l 33.4,63.567 v 9.078 h 38.68 V 106.27 h -38.68 v 72.058 c 0,4.699 0.3,8.211 0.87,18.461 -2.04,-5.269 -4.98,-12.59 -7.03,-16.406 l -33.09,-62.695 V 106.27 h -38.67 V 255.672 Z M 1576.07,138.211 c 2.04,2.332 6.43,9.074 6.43,38.074 0,20.219 -1.16,31.344 -6.43,37.492 -2.94,3.231 -7.34,5.871 -12.9,5.871 -6.45,0 -10.55,-2.929 -12.9,-5.574 -5.56,-6.445 -6.74,-18.457 -6.74,-37.789 0,-20.222 1.76,-31.347 6.45,-37.5 2.05,-2.34 6.16,-6.148 12.9,-6.148 4.38,0 10.25,2.043 13.19,5.574 z m 40.41,140.023 c -12.01,-4.394 -19.04,-5.57 -27.54,-7.328 -7.31,-1.457 -12.29,-2.636 -21.68,-4.394 -7.32,-1.465 -16.99,-3.219 -24.01,-7.903 -14.36,-9.675 -16.12,-28.714 -16.4,-35.453 l 0.87,-0.293 c 3.8,7.032 8.79,12.301 14.65,16.403 8.21,5.574 16.7,7.91 26.36,7.91 16.12,0 29.6,-6.727 37.79,-14.645 17.88,-16.996 18.74,-42.484 18.74,-57.129 0,-19.918 -2.62,-41.882 -19.03,-57.414 -14.35,-13.48 -30.47,-14.652 -43.35,-14.652 -12.9,0 -29.6,1.469 -43.37,16.121 -17.28,18.449 -18.75,48.922 -18.75,71.773 0,26.946 1.47,67.969 20.82,89.055 12.59,13.766 30.45,17.867 46.57,20.805 13.19,2.332 27.83,4.387 48.33,10.543 z m 598.17,157.188 c -3.22,-4.692 -5.87,-14.07 -5.87,-41.895 0,-27.832 2.65,-37.207 5.87,-41.894 2.04,-2.93 5.85,-6.438 11.72,-6.438 5.85,0 9.65,3.508 11.73,6.438 3.2,4.687 5.85,14.062 5.85,41.894 0,27.825 -2.65,37.203 -5.85,41.895 -2.08,2.926 -5.88,6.433 -11.73,6.433 -5.87,0 -9.68,-3.507 -11.72,-6.433 z m 53.6,19.918 c 17.29,-18.465 18.46,-46.289 18.46,-61.813 0,-15.523 -1.17,-43.355 -18.46,-61.812 -13.47,-14.363 -28.71,-15.824 -41.88,-15.824 -13.19,0 -28.42,1.461 -41.9,15.824 -17.28,18.457 -18.45,46.289 -18.45,61.812 0,15.524 1.17,43.348 18.45,61.813 13.48,14.351 28.71,15.82 41.9,15.82 13.17,0 28.41,-1.469 41.88,-15.82 z M 2122.09,318.824 h -41.6 v 116.598 h -36.03 v 32.805 h 113.68 v -32.805 h -36.05 z m -125.38,92.867 c -0.58,9.375 -1.47,15.52 -4.4,19.914 -3.81,5.86 -9.08,6.743 -12.3,6.743 -4.38,0 -10.26,-1.473 -14.35,-8.785 -2.35,-4.11 -5.58,-13.481 -5.58,-36.336 0,-16.989 1.76,-27.825 6.16,-36.028 3.23,-5.566 6.74,-8.496 13.48,-8.496 4.98,0 9.08,1.758 12.01,6.152 2.64,3.805 4.4,9.676 4.98,22.262 l 38.97,-2.336 c -0.6,-8.211 -3.51,-28.422 -15.24,-41.601 -7.31,-8.207 -21.1,-17.289 -42.48,-17.289 -22.55,0 -35.74,9.672 -42.48,16.695 -16.41,17.289 -18.16,43.652 -18.16,60.355 0,16.11 1.46,42.766 18.74,60.93 14.36,15.231 31.36,17.289 44.24,17.289 11.43,0 26.38,-1.469 39.26,-15.539 10.85,-11.418 15.83,-28.109 16.12,-42.461 z m -166.67,23.731 c -3.23,-4.692 -5.87,-14.07 -5.87,-41.895 0,-27.832 2.64,-37.207 5.87,-41.894 2.04,-2.93 5.85,-6.438 11.72,-6.438 5.85,0 9.65,3.508 11.72,6.438 3.22,4.687 5.85,14.062 5.85,41.894 0,27.825 -2.63,37.203 -5.85,41.895 -2.07,2.926 -5.87,6.433 -11.72,6.433 -5.87,0 -9.68,-3.507 -11.72,-6.433 z m 53.6,19.918 c 17.28,-18.465 18.46,-46.289 18.46,-61.813 0,-15.523 -1.18,-43.355 -18.46,-61.812 -13.48,-14.363 -28.71,-15.824 -41.88,-15.824 -13.19,0 -28.43,1.461 -41.9,15.824 -17.28,18.457 -18.46,46.289 -18.46,61.812 0,15.524 1.18,43.348 18.46,61.813 13.47,14.351 28.71,15.82 41.9,15.82 13.17,0 28.4,-1.469 41.88,-15.82 z m -196.55,-86.129 c 0,-13.176 3.21,-18.16 4.96,-20.223 3.83,-4.386 9.39,-4.675 12.61,-4.675 4.99,0 9.08,0.585 13.19,6.738 4.39,6.734 5.85,18.461 5.85,44.812 0,19.641 -0.57,32.516 -5.85,40.145 -3.82,5.562 -8.2,6.734 -11.71,6.734 -7.63,0 -12.33,-3.219 -15.53,-9.668 -3.23,-6.152 -3.52,-13.765 -3.52,-19.336 z m -2.36,99.016 v -22.555 c 2.94,8.199 7.93,14.363 12.91,17.871 5.56,4.102 13.47,6.738 21.97,6.738 9.66,0 19.62,-3.515 26.93,-10.246 14.08,-12.605 19.94,-37.504 19.94,-63.281 0,-24.031 -4.39,-51.856 -17.58,-65.918 -6.45,-7.031 -17.59,-14.059 -33.4,-14.059 -6.46,0 -11.72,1.168 -17.86,4.387 -4.12,2.055 -7.34,4.684 -10.55,8.5 v -61.23 h -41.61 v 199.793 h 39.25" /></g></g></g></g></svg>