<svg width="192" height="747" viewBox="0 0 192 747" fill="none" xmlns="http://www.w3.org/2000/svg">
<g clip-path="url(#clip0)">
<path d="M0.742061 637.349L143.329 637.349L143.329 677.097L32.2756 677.097L32.2756 707.251L144.014 707.251L144.014 747L0.742065 747L0.742061 637.349Z" fill="white" fill-opacity="0.1"/>
<path d="M0.742083 575.67L21.993 575.67C14.4523 572.928 8.28272 568.131 4.85516 563.334C0.742082 557.851 -1.31446 550.313 -1.31446 542.089C-1.31446 533.18 2.11311 523.585 8.28272 516.047C20.6219 502.34 43.9294 496.858 68.6078 496.858C91.9152 496.858 117.965 500.97 131.675 513.991C138.53 520.159 145.385 531.124 145.385 546.201C145.385 552.369 144.014 557.166 141.272 563.334C139.216 567.446 136.474 570.187 133.046 573.614L191.315 573.614L191.315 613.362L0.742085 613.362L0.742083 575.67ZM95.3428 573.614C107.682 573.614 112.481 570.872 114.537 568.816C118.65 565.39 119.336 559.907 119.336 556.481C119.336 551.683 118.65 547.571 113.166 544.145C106.997 540.033 95.3428 538.662 69.9788 538.662C51.47 538.662 39.1308 539.348 31.5901 544.145C26.106 547.571 25.4205 551.683 25.4205 555.11C25.4205 562.649 28.1626 566.76 34.3322 570.187C40.5018 572.928 47.3569 573.614 52.841 573.614L95.3428 573.614Z" fill="white" fill-opacity="0.1"/>
<path d="M13.0813 385.836C30.9046 369.388 57.6396 368.017 72.0353 368.017C86.4311 368.017 113.166 369.388 130.989 385.836C144.7 398.857 146.071 413.249 146.071 425.584C146.071 437.92 144.7 452.997 130.989 465.333C113.166 481.781 86.4311 483.151 72.0354 483.151C57.6396 483.151 30.9046 481.781 13.0813 465.333C-0.628976 452.312 -2 437.92 -2 425.584C-2 413.249 -0.628978 398.172 13.0813 385.836ZM32.2756 436.55C37.0742 439.291 45.9859 442.032 72.0354 442.032C98.7703 442.032 107.682 439.291 111.795 436.55C114.537 434.494 117.965 431.067 117.965 425.584C117.965 420.102 114.537 416.675 111.795 414.619C106.996 411.878 98.0848 409.137 72.0354 409.137C45.3004 409.137 36.3887 411.878 32.2756 414.619C29.5336 416.675 26.106 420.102 26.106 425.584C26.106 431.067 29.5336 434.494 32.2756 436.55Z" fill="white" fill-opacity="0.1"/>
<path d="M54.8975 277.554C45.9859 278.24 39.8163 278.925 35.7032 281.666C30.2191 285.093 29.5336 290.576 29.5336 293.317C29.5336 297.429 30.9046 302.911 37.7597 307.023C41.8728 309.079 50.7845 312.506 72.7209 312.506C89.1732 312.506 99.4559 311.135 106.996 306.338C112.481 303.597 115.223 300.17 115.223 293.317C115.223 288.52 113.852 284.408 109.053 281.666C105.625 278.925 100.141 277.554 87.8021 276.869L89.8587 239.862C97.3993 240.547 117.279 243.288 129.618 254.254C137.159 261.107 146.071 274.128 146.071 294.688C146.071 315.932 137.159 328.954 130.304 335.121C113.852 350.884 88.4877 352.255 72.7209 352.255C57.6396 352.255 31.5901 350.884 14.4523 334.436C0.0565374 320.73 -2 304.282 -2 291.946C-2 280.981 -0.628978 266.589 13.0813 254.254C24.0495 243.974 39.8163 239.176 53.5265 239.176L54.8975 277.554Z" fill="white" fill-opacity="0.1"/>
<path d="M143.329 157.624L143.329 197.373L32.2756 197.373L32.2756 231.639L0.742065 231.639L0.742061 123.358L32.2756 123.358L32.2756 157.624L143.329 157.624Z" fill="white" fill-opacity="0.1"/>
<path d="M13.0813 17.8185C30.9046 1.37081 57.6396 0.000180499 72.0353 0.000179869C86.4311 0.00017924 113.166 1.37081 130.989 17.8185C144.7 30.8396 146.071 45.2314 146.071 57.5672C146.071 69.9029 144.7 84.98 130.989 97.3158C113.166 113.763 86.4311 115.134 72.0353 115.134C57.6396 115.134 30.9046 113.763 13.0813 97.3158C-0.628976 84.2947 -2 69.903 -2 57.5672C-2 45.2314 -0.628978 30.8396 13.0813 17.8185ZM32.2756 69.2176C37.0742 71.9589 45.9859 74.7002 72.0353 74.7002C98.7703 74.7002 107.682 71.9589 111.795 69.2176C114.537 67.1616 117.965 63.735 117.965 58.2525C117.965 52.7699 114.537 49.3433 111.795 47.2873C106.996 44.5461 98.0848 41.8048 72.0353 41.8048C45.3004 41.8048 36.3887 44.5461 32.2756 47.2874C29.5336 49.3433 26.106 52.7699 26.106 58.2525C26.106 63.735 29.5336 67.1616 32.2756 69.2176Z" fill="white" fill-opacity="0.1"/>
</g>
<defs>
<clipPath id="clip0">
<rect width="747" height="194" fill="white" transform="translate(-2 747) rotate(-90)"/>
</clipPath>
</defs>
</svg>
