<svg width="36" height="35" viewBox="0 0 36 35" fill="none" xmlns="http://www.w3.org/2000/svg">
<path d="M25.9905 16.9835C25.9905 17.9747 26.0119 18.9659 25.9905 19.9548C25.9214 22.8072 23.8475 24.9108 21.0068 24.9679C18.9852 25.0083 16.9588 25.0131 14.9444 24.9679C13.6515 24.9599 12.4135 24.4456 11.4966 23.5356C10.5797 22.6256 10.0572 21.3927 10.0417 20.1021C9.98611 18.0516 9.98611 15.9986 10.0417 13.9433C10.0466 12.6521 10.5605 11.4148 11.4722 10.4989C12.3839 9.583 13.6201 9.06217 14.9135 9.04906C17.0041 8.98726 19.0995 8.98013 21.1901 9.04906C22.4443 9.0841 23.6378 9.5955 24.5272 10.4789C25.4166 11.3624 25.9348 12.5513 25.9762 13.8031C26.0262 14.8608 25.9762 15.9257 25.9762 16.9883L25.9905 16.9835ZM18.0375 10.9768C17.085 10.9768 16.1183 10.9554 15.1611 10.9768C13.2895 11.0291 12.0228 12.258 11.9799 14.1311C11.937 16.0438 11.937 17.9573 11.9799 19.8716C12.0251 21.7447 13.28 22.9831 15.1659 23.0211C17.0517 23.0591 18.9995 23.0687 20.9163 23.0211C22.7379 22.9736 23.9856 21.7328 24.0332 19.9167C24.084 17.9676 24.084 16.0184 24.0332 14.0693C23.9808 12.1867 22.7021 11.003 20.8091 10.9792C19.8829 10.9649 18.959 10.9768 18.0375 10.9768Z" fill="#D5604F"/>
<path d="M33.7582 3.23326L28.5113 7.99282C28.2871 8.20703 28.0606 8.40195 27.8292 8.59902C27.3523 8.99743 26.8467 9.15594 26.3291 8.70183C25.8116 8.24772 25.9547 7.77648 26.4102 7.35879C27.1805 6.64978 27.9628 5.95148 28.7427 5.25319C29.9638 4.16076 31.1896 3.07261 32.6492 1.77026H28.1965C27.8412 1.77026 27.4333 1.86451 27.1424 1.74027C26.7226 1.56248 26.1479 1.27331 26.0668 0.945581C25.9237 0.367236 26.4531 0.0202302 27.1114 0.00952009C28.3539 -0.0119001 29.5989 0.00952009 30.8438 0.00952009C32.0887 0.00952009 33.4028 0.00952009 34.6835 0.00952009C35.5588 0.00952009 36.0024 0.375802 36 1.17049C36 3.40676 36 5.6416 36 7.87502C36 8.47906 35.8044 8.98244 35.0198 8.99958C34.2352 9.01671 34.0324 8.51333 34.0324 7.905V3.32965L33.7582 3.23326Z" fill="#D5604F"/>
<path d="M3.61812 1.99446C5.43058 3.61397 7.24224 5.23419 9.05311 6.85512C9.28026 7.05863 9.62698 7.23858 9.69632 7.47851C9.80392 7.85768 9.89 8.37395 9.69632 8.66314C9.36156 9.14514 8.7614 9.07016 8.30948 8.68885C7.55628 8.04619 6.83416 7.39068 6.10726 6.73516C4.80889 5.56552 3.5177 4.39159 1.97782 2.99916V6.80799C1.97782 7.15932 1.97782 7.51063 1.97782 7.86196C1.99217 8.48748 1.73871 8.98448 0.97834 8.95877C0.217968 8.93306 -0.00680325 8.43393 0.000370082 7.81054C0.000370082 6.95366 0.000370082 6.09678 0.000370082 5.2249C0.000370082 3.91602 0.019499 2.60713 0.000370082 1.29825C-0.0139766 0.426369 0.387732 -0.00635608 1.392 7.05361e-05C3.81658 0.015066 6.23877 7.05361e-05 8.66336 7.05361e-05C9.39265 7.05361e-05 10.0024 0.195009 9.99999 0.921216C9.99999 1.67956 9.32331 1.7781 8.62271 1.7781C6.99437 1.76739 5.36602 1.7781 3.73528 1.7781L3.61812 1.99446Z" fill="#D5604F"/>
<path d="M3.43103 33.0324H5.00607C6.03388 33.0324 7.0617 33.0157 8.09903 33.0324C8.87941 33.0467 9.95719 32.8061 9.92864 34.0309C9.90247 35.1175 8.91273 34.9959 8.13235 34.9959C6.28608 34.9959 4.4414 34.9959 2.59831 34.9959C2.20812 34.9959 1.81794 34.9816 1.42775 34.9959C0.45465 35.0364 -0.0116741 34.6004 0.000221886 33.6043C0.0168763 31.1881 0.000221886 28.7742 0.000221886 26.3579C0.000221886 25.6288 0.223871 25.0331 1.03042 25.0354C1.79891 25.0354 1.9821 25.6335 1.9821 26.3103C1.9821 27.9783 1.9821 29.6249 1.9821 31.5955C2.52456 31.0618 2.86479 30.7353 3.19788 30.4041C4.78401 28.8155 6.3638 27.2333 7.93725 25.6574C8.43688 25.1546 8.97935 24.6589 9.65504 25.3142C10.3307 25.9695 9.89296 26.5247 9.37192 27.0371C7.69061 28.7178 6.01089 30.4009 4.33276 32.0864C4.06629 32.3342 3.84264 32.5892 3.43103 33.0324Z" fill="#D5604F"/>
<path d="M34.0046 31.5579V27.3275C34.0046 26.9368 34.0046 26.5462 34.0046 26.1555C34.0046 25.4838 34.3346 24.9312 34.973 25.0741C35.3647 25.1599 35.8489 25.772 35.9225 26.2079C36.0649 27.1441 35.9675 28.1136 35.9675 29.0783C35.9675 30.5694 35.9486 32.0605 35.9675 33.5517C35.9842 34.5188 35.5901 35.0071 34.5909 34.9999C32.1842 34.9832 29.7774 34.988 27.373 34.9999C26.661 34.9999 26.0415 34.7879 26.0415 33.9804C26.0415 33.1729 26.7085 33.0276 27.4039 33.0276C29.0226 33.0395 30.639 33.0276 32.5046 33.0276C32.1319 32.6108 31.9255 32.3559 31.6952 32.1248C30.0227 30.4384 28.347 28.7551 26.6681 27.075C26.1744 26.5795 25.6523 26.0388 26.3073 25.3552C27.0194 24.6192 27.5772 25.1742 28.097 25.6958L33.0552 30.6647C33.2926 30.9076 33.5513 31.1363 34.0046 31.5579Z" fill="#D5604F"/>
</svg>
