<svg width="144" height="178" viewBox="0 0 144 178" fill="none" xmlns="http://www.w3.org/2000/svg">
<path d="M120.967 103.055C100.454 96.355 91.9265 88.0229 91.9265 88.0229L91.24 88.6774C85.1482 94.4111 78.4107 97.7818 72.273 97.7818H71.6937C65.5564 97.7818 58.8189 94.4111 52.7271 88.6774L52.0402 88.0229C52.0402 88.0229 43.5139 96.3547 23.0005 103.055C-7.28093 114.367 1.81145 160.403 1.80269 160.759C2.75642 165.887 3.31231 167.649 3.79666 167.847C34.2058 181.385 109.762 181.385 140.171 167.847C140.656 167.649 141.211 165.887 142.165 160.759C142.156 160.403 151.37 114.55 120.967 103.055Z" fill="white"/>
<path d="M103.787 44.3254L103.533 44.0498C101.829 42.4898 101.962 42.5792 101.962 42.5792C101.962 42.5792 104.934 27.5842 102.551 20.493C98.8096 9.16833 76.4628 1.57826 71.9807 0.69607C71.9814 0.687675 69.2545 0.142008 69.0804 0.140913C69.0804 0.140913 65.5549 -0.571922 61.4688 1.21035C58.8076 2.23416 44.8951 8.5431 40.9462 20.493C38.5636 27.5842 41.5353 42.5792 41.5353 42.5792C41.5353 42.5792 41.6686 42.4898 39.9644 44.0498L39.7107 44.3254C38.5581 45.6342 38.8428 49.7295 40.1027 53.9901C41.2445 58.2587 42.7325 59.4059 43.0891 60.4056C46.7037 77.3768 59.2723 91.8671 72.0803 91.8671C84.8883 91.8671 96.793 77.3768 100.408 60.4056C100.765 59.4062 102.253 58.2587 103.394 53.9901C104.654 49.7291 104.972 45.3528 103.787 44.3254Z" fill="white"/>
</svg>
